<svg width="541" height="117" viewBox="0 0 541 117" fill="none" xmlns="http://www.w3.org/2000/svg">
<circle cx="51" cy="40" r="40" fill="#B6DBFA"/>
<circle cx="201" cy="40" r="40" fill="#B6DBFA"/>
<circle cx="351" cy="40" r="40" fill="#C4C4C4"/>
<circle cx="501" cy="40" r="40" fill="#C4C4C4"/>
<path d="M350.366 55.4184C348.107 55.4184 346.392 54.7908 345.22 53.5357C344.077 52.2805 343.505 50.4815 343.505 48.1385V45.7538H347.856V48.3477C347.856 50.2723 348.651 51.2346 350.241 51.2346C351.022 51.2346 351.608 50.9975 351.998 50.5233C352.416 50.0213 352.626 49.1566 352.626 47.9293V45.5446C352.626 44.2057 352.388 43.2574 351.914 42.6996C351.44 42.1138 350.673 41.821 349.613 41.821H348.065V37.6371H349.739C350.659 37.6371 351.343 37.4001 351.789 36.9259C352.263 36.4517 352.5 35.6568 352.5 34.5411V32.4074C352.5 31.4032 352.291 30.6641 351.872 30.1899C351.454 29.7158 350.896 29.4787 350.199 29.4787C348.721 29.4787 347.982 30.3852 347.982 32.1982V34.1227H343.63V32.5747C343.63 30.2318 344.202 28.4327 345.346 27.1776C346.517 25.9224 348.191 25.2949 350.366 25.2949C352.57 25.2949 354.243 25.9224 355.387 27.1776C356.53 28.4048 357.102 30.1899 357.102 32.5329V33.5788C357.102 35.1687 356.837 36.4517 356.307 37.4279C355.777 38.3763 354.955 39.0596 353.839 39.478V39.5617C355.038 40.008 355.903 40.7332 356.433 41.7373C356.963 42.7414 357.228 44.0244 357.228 45.5864V48.1804C357.228 50.5233 356.642 52.3224 355.471 53.5775C354.327 54.8048 352.626 55.4184 350.366 55.4184Z" fill="#173F5F"/>
<path d="M501.538 49.6865H492.752V45.5027L501.119 25.7132H506.14V45.5027H508.316V49.6865H506.14V55H501.538V49.6865ZM501.538 45.5027V34.0809H501.454L496.936 45.5027H501.538Z" fill="#173F5F"/>
<path d="M5.98139 101.23H7.2257V113H5.98139V101.23ZM14.9733 104.088C16.0831 104.088 16.9631 104.413 17.6133 105.063C18.2747 105.702 18.6053 106.638 18.6053 107.871V113H17.4115V107.989C17.4115 107.07 17.1817 106.369 16.7221 105.887C16.2625 105.405 15.6067 105.164 14.7547 105.164C13.8019 105.164 13.0452 105.45 12.4847 106.022C11.9354 106.582 11.6608 107.361 11.6608 108.359V113H10.4669V104.155H11.6103V105.786C11.9354 105.248 12.3838 104.834 12.9555 104.542C13.5384 104.239 14.211 104.088 14.9733 104.088ZM24.4361 101.448C23.9204 101.448 23.5281 101.588 23.259 101.869C23.0012 102.149 22.8723 102.564 22.8723 103.113V104.155H25.5963V105.164H22.9059V113H21.712V105.164H20.1314V104.155H21.712V103.062C21.712 102.255 21.9418 101.616 22.4015 101.145C22.8723 100.675 23.5337 100.439 24.3856 100.439C24.7219 100.439 25.047 100.49 25.3609 100.591C25.6748 100.68 25.9382 100.815 26.1512 100.994L25.7476 101.885C25.4001 101.594 24.9629 101.448 24.4361 101.448ZM30.3394 113.084C29.4875 113.084 28.7196 112.894 28.0358 112.512C27.352 112.12 26.8139 111.582 26.4215 110.898C26.0292 110.214 25.833 109.441 25.833 108.578C25.833 107.715 26.0292 106.941 26.4215 106.257C26.8139 105.573 27.352 105.041 28.0358 104.66C28.7196 104.279 29.4875 104.088 30.3394 104.088C31.1914 104.088 31.9593 104.279 32.6431 104.66C33.3269 105.041 33.8593 105.573 34.2405 106.257C34.6328 106.941 34.829 107.715 34.829 108.578C34.829 109.441 34.6328 110.214 34.2405 110.898C33.8593 111.582 33.3269 112.12 32.6431 112.512C31.9593 112.894 31.1914 113.084 30.3394 113.084ZM30.3394 112.025C30.9672 112.025 31.5277 111.885 32.0209 111.604C32.5254 111.313 32.9177 110.904 33.198 110.377C33.4782 109.85 33.6183 109.25 33.6183 108.578C33.6183 107.905 33.4782 107.305 33.198 106.778C32.9177 106.252 32.5254 105.848 32.0209 105.568C31.5277 105.276 30.9672 105.131 30.3394 105.131C29.7117 105.131 29.1456 105.276 28.6411 105.568C28.1479 105.848 27.7555 106.252 27.4641 106.778C27.1838 107.305 27.0437 107.905 27.0437 108.578C27.0437 109.25 27.1838 109.85 27.4641 110.377C27.7555 110.904 28.1479 111.313 28.6411 111.604C29.1456 111.885 29.7117 112.025 30.3394 112.025ZM38.0735 105.887C38.3538 105.293 38.7685 104.845 39.3178 104.542C39.8783 104.239 40.5677 104.088 41.3861 104.088V105.248L41.1002 105.231C40.1698 105.231 39.4411 105.517 38.9143 106.089C38.3874 106.661 38.124 107.462 38.124 108.494V113H36.9301V104.155H38.0735V105.887ZM54.242 104.088C55.3518 104.088 56.2206 104.408 56.8483 105.047C57.4873 105.685 57.8068 106.627 57.8068 107.871V113H56.6129V107.989C56.6129 107.07 56.3887 106.369 55.9403 105.887C55.5031 105.405 54.881 105.164 54.0739 105.164C53.1546 105.164 52.4316 105.45 51.9047 106.022C51.3779 106.582 51.1144 107.361 51.1144 108.359V113H49.9206V107.989C49.9206 107.07 49.6964 106.369 49.248 105.887C48.8108 105.405 48.183 105.164 47.3647 105.164C46.4567 105.164 45.7336 105.45 45.1956 106.022C44.6687 106.582 44.4053 107.361 44.4053 108.359V113H43.2114V104.155H44.3548V105.77C44.6687 105.231 45.1059 104.817 45.6664 104.525C46.2269 104.234 46.8714 104.088 47.6001 104.088C48.34 104.088 48.9789 104.245 49.517 104.559C50.0663 104.873 50.4755 105.338 50.7445 105.955C51.0696 105.372 51.5348 104.918 52.1401 104.593C52.7567 104.256 53.4573 104.088 54.242 104.088ZM63.8021 104.088C64.9567 104.088 65.8423 104.38 66.4588 104.962C67.0754 105.534 67.3837 106.386 67.3837 107.518V113H66.2403V111.621C65.9712 112.081 65.5733 112.44 65.0464 112.697C64.5307 112.955 63.9142 113.084 63.1967 113.084C62.2103 113.084 61.4256 112.849 60.8427 112.378C60.2597 111.907 59.9683 111.285 59.9683 110.511C59.9683 109.76 60.2373 109.155 60.7754 108.695C61.3247 108.236 62.1935 108.006 63.3817 108.006H66.1898V107.468C66.1898 106.706 65.9768 106.128 65.5508 105.736C65.1249 105.332 64.5027 105.131 63.6844 105.131C63.1239 105.131 62.5858 105.226 62.0701 105.416C61.5545 105.596 61.1117 105.848 60.7418 106.173L60.2037 105.282C60.6521 104.901 61.1902 104.609 61.8179 104.408C62.4457 104.195 63.1071 104.088 63.8021 104.088ZM63.3817 112.142C64.0543 112.142 64.6316 111.991 65.1137 111.688C65.5957 111.375 65.9544 110.926 66.1898 110.343V108.897H63.4153C61.902 108.897 61.1453 109.424 61.1453 110.478C61.1453 110.993 61.3415 111.403 61.7338 111.705C62.1262 111.997 62.6755 112.142 63.3817 112.142ZM74.9478 112.462C74.7236 112.664 74.4433 112.821 74.107 112.933C73.7819 113.034 73.44 113.084 73.0813 113.084C72.2518 113.084 71.6128 112.86 71.1644 112.411C70.716 111.963 70.4918 111.33 70.4918 110.511V105.164H68.9112V104.155H70.4918V102.222H71.6857V104.155H74.3761V105.164H71.6857V110.444C71.6857 110.971 71.8146 111.375 72.0724 111.655C72.3415 111.924 72.7226 112.058 73.2158 112.058C73.4625 112.058 73.6979 112.019 73.9221 111.941C74.1575 111.862 74.3592 111.75 74.5274 111.604L74.9478 112.462ZM76.7848 104.155H77.9787V113H76.7848V104.155ZM77.3901 102.222C77.1435 102.222 76.9361 102.138 76.768 101.969C76.5998 101.801 76.5158 101.599 76.5158 101.364C76.5158 101.14 76.5998 100.944 76.768 100.776C76.9361 100.607 77.1435 100.523 77.3901 100.523C77.6368 100.523 77.8441 100.607 78.0123 100.776C78.1804 100.932 78.2645 101.123 78.2645 101.347C78.2645 101.594 78.1804 101.801 78.0123 101.969C77.8441 102.138 77.6368 102.222 77.3901 102.222ZM84.5794 113.084C83.7275 113.084 82.9596 112.894 82.2758 112.512C81.592 112.12 81.0539 111.582 80.6616 110.898C80.2692 110.214 80.073 109.441 80.073 108.578C80.073 107.715 80.2692 106.941 80.6616 106.257C81.0539 105.573 81.592 105.041 82.2758 104.66C82.9596 104.279 83.7275 104.088 84.5794 104.088C85.4314 104.088 86.1993 104.279 86.8831 104.66C87.5669 105.041 88.0994 105.573 88.4805 106.257C88.8729 106.941 89.069 107.715 89.069 108.578C89.069 109.441 88.8729 110.214 88.4805 110.898C88.0994 111.582 87.5669 112.12 86.8831 112.512C86.1993 112.894 85.4314 113.084 84.5794 113.084ZM84.5794 112.025C85.2072 112.025 85.7677 111.885 86.2609 111.604C86.7654 111.313 87.1577 110.904 87.438 110.377C87.7182 109.85 87.8584 109.25 87.8584 108.578C87.8584 107.905 87.7182 107.305 87.438 106.778C87.1577 106.252 86.7654 105.848 86.2609 105.568C85.7677 105.276 85.2072 105.131 84.5794 105.131C83.9517 105.131 83.3856 105.276 82.8811 105.568C82.3879 105.848 81.9955 106.252 81.7041 106.778C81.4238 107.305 81.2837 107.905 81.2837 108.578C81.2837 109.25 81.4238 109.85 81.7041 110.377C81.9955 110.904 82.3879 111.313 82.8811 111.604C83.3856 111.885 83.9517 112.025 84.5794 112.025ZM95.6765 104.088C96.7863 104.088 97.6663 104.413 98.3165 105.063C98.9779 105.702 99.3086 106.638 99.3086 107.871V113H98.1147V107.989C98.1147 107.07 97.8849 106.369 97.4253 105.887C96.9657 105.405 96.3099 105.164 95.4579 105.164C94.5051 105.164 93.7484 105.45 93.1879 106.022C92.6386 106.582 92.364 107.361 92.364 108.359V113H91.1701V104.155H92.3135V105.786C92.6386 105.248 93.087 104.834 93.6587 104.542C94.2417 104.239 94.9142 104.088 95.6765 104.088Z" fill="#173F5F"/>
<path d="M174.917 101.23H179.709C180.953 101.23 182.052 101.482 183.005 101.986C183.958 102.479 184.698 103.174 185.224 104.071C185.751 104.957 186.015 105.971 186.015 107.115C186.015 108.258 185.751 109.278 185.224 110.175C184.698 111.061 183.958 111.756 183.005 112.26C182.052 112.753 180.953 113 179.709 113H174.917V101.23ZM179.642 111.924C180.673 111.924 181.576 111.722 182.349 111.319C183.123 110.904 183.722 110.338 184.148 109.62C184.574 108.892 184.787 108.056 184.787 107.115C184.787 106.173 184.574 105.344 184.148 104.626C183.722 103.898 183.123 103.331 182.349 102.928C181.576 102.513 180.673 102.306 179.642 102.306H176.161V111.924H179.642ZM195.922 108.948H188.523C188.59 109.867 188.943 110.612 189.582 111.184C190.221 111.744 191.029 112.025 192.004 112.025C192.553 112.025 193.058 111.929 193.517 111.739C193.977 111.537 194.375 111.246 194.711 110.865L195.384 111.638C194.991 112.109 194.498 112.468 193.904 112.714C193.321 112.961 192.676 113.084 191.97 113.084C191.062 113.084 190.255 112.894 189.549 112.512C188.854 112.12 188.31 111.582 187.918 110.898C187.525 110.214 187.329 109.441 187.329 108.578C187.329 107.715 187.514 106.941 187.884 106.257C188.265 105.573 188.781 105.041 189.431 104.66C190.092 104.279 190.832 104.088 191.651 104.088C192.469 104.088 193.203 104.279 193.853 104.66C194.504 105.041 195.014 105.573 195.384 106.257C195.754 106.93 195.938 107.703 195.938 108.578L195.922 108.948ZM191.651 105.114C190.799 105.114 190.081 105.388 189.498 105.938C188.927 106.476 188.602 107.182 188.523 108.056H194.795C194.717 107.182 194.386 106.476 193.803 105.938C193.231 105.388 192.514 105.114 191.651 105.114ZM202.69 112.462C202.466 112.664 202.185 112.821 201.849 112.933C201.524 113.034 201.182 113.084 200.823 113.084C199.994 113.084 199.355 112.86 198.907 112.411C198.458 111.963 198.234 111.33 198.234 110.511V105.164H196.653V104.155H198.234V102.222H199.428V104.155H202.118V105.164H199.428V110.444C199.428 110.971 199.557 111.375 199.815 111.655C200.084 111.924 200.465 112.058 200.958 112.058C201.205 112.058 201.44 112.019 201.664 111.941C201.9 111.862 202.101 111.75 202.27 111.604L202.69 112.462ZM207.621 104.088C208.776 104.088 209.661 104.38 210.278 104.962C210.894 105.534 211.203 106.386 211.203 107.518V113H210.059V111.621C209.79 112.081 209.392 112.44 208.865 112.697C208.35 112.955 207.733 113.084 207.016 113.084C206.029 113.084 205.244 112.849 204.661 112.378C204.079 111.907 203.787 111.285 203.787 110.511C203.787 109.76 204.056 109.155 204.594 108.695C205.144 108.236 206.012 108.006 207.201 108.006H210.009V107.468C210.009 106.706 209.796 106.128 209.37 105.736C208.944 105.332 208.322 105.131 207.503 105.131C206.943 105.131 206.405 105.226 205.889 105.416C205.373 105.596 204.931 105.848 204.561 106.173L204.023 105.282C204.471 104.901 205.009 104.609 205.637 104.408C206.265 104.195 206.926 104.088 207.621 104.088ZM207.201 112.142C207.873 112.142 208.45 111.991 208.932 111.688C209.415 111.375 209.773 110.926 210.009 110.343V108.897H207.234C205.721 108.897 204.964 109.424 204.964 110.478C204.964 110.993 205.16 111.403 205.553 111.705C205.945 111.997 206.494 112.142 207.201 112.142ZM214.109 104.155H215.303V113H214.109V104.155ZM214.714 102.222C214.468 102.222 214.26 102.138 214.092 101.969C213.924 101.801 213.84 101.599 213.84 101.364C213.84 101.14 213.924 100.944 214.092 100.776C214.26 100.607 214.468 100.523 214.714 100.523C214.961 100.523 215.168 100.607 215.336 100.776C215.505 100.932 215.589 101.123 215.589 101.347C215.589 101.594 215.505 101.801 215.336 101.969C215.168 102.138 214.961 102.222 214.714 102.222ZM218.288 100.523H219.482V113H218.288V100.523ZM224.839 113.084C224.121 113.084 223.432 112.983 222.77 112.781C222.12 112.568 221.61 112.305 221.24 111.991L221.778 111.049C222.148 111.341 222.613 111.582 223.174 111.773C223.734 111.952 224.317 112.042 224.923 112.042C225.73 112.042 226.324 111.918 226.705 111.672C227.097 111.414 227.294 111.055 227.294 110.595C227.294 110.27 227.187 110.018 226.974 109.839C226.761 109.648 226.492 109.508 226.167 109.418C225.842 109.318 225.41 109.222 224.872 109.133C224.155 108.998 223.578 108.864 223.14 108.729C222.703 108.583 222.328 108.342 222.014 108.006C221.711 107.67 221.56 107.204 221.56 106.61C221.56 105.87 221.868 105.265 222.485 104.794C223.101 104.323 223.959 104.088 225.057 104.088C225.629 104.088 226.201 104.167 226.772 104.323C227.344 104.469 227.815 104.665 228.185 104.912L227.664 105.87C226.935 105.366 226.066 105.114 225.057 105.114C224.295 105.114 223.718 105.248 223.325 105.517C222.944 105.786 222.754 106.14 222.754 106.577C222.754 106.913 222.86 107.182 223.073 107.384C223.297 107.586 223.572 107.737 223.897 107.838C224.222 107.927 224.67 108.023 225.242 108.124C225.948 108.258 226.515 108.393 226.941 108.527C227.366 108.662 227.731 108.892 228.033 109.217C228.336 109.542 228.487 109.99 228.487 110.562C228.487 111.335 228.162 111.952 227.512 112.411C226.873 112.86 225.982 113.084 224.839 113.084Z" fill="#173F5F"/>
<path d="M328.322 101.23C329.825 101.23 331.002 101.588 331.854 102.306C332.706 103.023 333.131 104.01 333.131 105.265C333.131 106.521 332.706 107.507 331.854 108.225C331.002 108.931 329.825 109.284 328.322 109.284H325.161V113H323.917V101.23H328.322ZM328.289 108.191C329.455 108.191 330.346 107.939 330.962 107.434C331.579 106.919 331.887 106.196 331.887 105.265C331.887 104.312 331.579 103.584 330.962 103.079C330.346 102.564 329.455 102.306 328.289 102.306H325.161V108.191H328.289ZM335.004 104.155H336.197V113H335.004V104.155ZM335.609 102.222C335.362 102.222 335.155 102.138 334.987 101.969C334.819 101.801 334.735 101.599 334.735 101.364C334.735 101.14 334.819 100.944 334.987 100.776C335.155 100.607 335.362 100.523 335.609 100.523C335.856 100.523 336.063 100.607 336.231 100.776C336.399 100.932 336.483 101.123 336.483 101.347C336.483 101.594 336.399 101.801 336.231 101.969C336.063 102.138 335.856 102.222 335.609 102.222ZM342.849 113.084C341.974 113.084 341.19 112.894 340.495 112.512C339.811 112.131 339.273 111.599 338.88 110.915C338.488 110.22 338.292 109.441 338.292 108.578C338.292 107.715 338.488 106.941 338.88 106.257C339.273 105.573 339.811 105.041 340.495 104.66C341.19 104.279 341.974 104.088 342.849 104.088C343.611 104.088 344.289 104.239 344.883 104.542C345.489 104.834 345.965 105.265 346.313 105.837L345.421 106.442C345.13 106.005 344.76 105.68 344.312 105.467C343.863 105.243 343.376 105.131 342.849 105.131C342.21 105.131 341.632 105.276 341.117 105.568C340.612 105.848 340.214 106.252 339.923 106.778C339.643 107.305 339.503 107.905 339.503 108.578C339.503 109.261 339.643 109.867 339.923 110.394C340.214 110.909 340.612 111.313 341.117 111.604C341.632 111.885 342.21 112.025 342.849 112.025C343.376 112.025 343.863 111.918 344.312 111.705C344.76 111.492 345.13 111.167 345.421 110.73L346.313 111.335C345.965 111.907 345.489 112.344 344.883 112.647C344.278 112.938 343.6 113.084 342.849 113.084ZM353.078 112.462C352.854 112.664 352.573 112.821 352.237 112.933C351.912 113.034 351.57 113.084 351.211 113.084C350.382 113.084 349.743 112.86 349.294 112.411C348.846 111.963 348.622 111.33 348.622 110.511V105.164H347.041V104.155H348.622V102.222H349.816V104.155H352.506V105.164H349.816V110.444C349.816 110.971 349.945 111.375 350.202 111.655C350.472 111.924 350.853 112.058 351.346 112.058C351.593 112.058 351.828 112.019 352.052 111.941C352.288 111.862 352.489 111.75 352.657 111.604L353.078 112.462ZM362.885 104.155V113H361.742V111.386C361.428 111.924 360.996 112.344 360.447 112.647C359.898 112.938 359.27 113.084 358.564 113.084C357.409 113.084 356.495 112.765 355.823 112.126C355.161 111.475 354.831 110.528 354.831 109.284V104.155H356.025V109.166C356.025 110.097 356.254 110.803 356.714 111.285C357.174 111.767 357.829 112.008 358.681 112.008C359.612 112.008 360.346 111.728 360.884 111.167C361.422 110.595 361.691 109.805 361.691 108.796V104.155H362.885ZM367.036 105.887C367.316 105.293 367.731 104.845 368.28 104.542C368.841 104.239 369.53 104.088 370.348 104.088V105.248L370.063 105.231C369.132 105.231 368.404 105.517 367.877 106.089C367.35 106.661 367.086 107.462 367.086 108.494V113H365.893V104.155H367.036V105.887ZM379.793 108.948H372.394C372.462 109.867 372.815 110.612 373.454 111.184C374.093 111.744 374.9 112.025 375.875 112.025C376.424 112.025 376.929 111.929 377.388 111.739C377.848 111.537 378.246 111.246 378.582 110.865L379.255 111.638C378.863 112.109 378.369 112.468 377.775 112.714C377.192 112.961 376.548 113.084 375.841 113.084C374.933 113.084 374.126 112.894 373.42 112.512C372.725 112.12 372.181 111.582 371.789 110.898C371.397 110.214 371.201 109.441 371.201 108.578C371.201 107.715 371.385 106.941 371.755 106.257C372.137 105.573 372.652 105.041 373.302 104.66C373.964 104.279 374.704 104.088 375.522 104.088C376.34 104.088 377.075 104.279 377.725 104.66C378.375 105.041 378.885 105.573 379.255 106.257C379.625 106.93 379.81 107.703 379.81 108.578L379.793 108.948ZM375.522 105.114C374.67 105.114 373.953 105.388 373.37 105.938C372.798 106.476 372.473 107.182 372.394 108.056H378.666C378.588 107.182 378.257 106.476 377.674 105.938C377.103 105.388 376.385 105.114 375.522 105.114Z" fill="#173F5F"/>
<path d="M475.162 113.101C474.288 113.101 473.447 112.961 472.64 112.681C471.844 112.4 471.227 112.03 470.79 111.571L471.278 110.612C471.704 111.038 472.27 111.386 472.976 111.655C473.682 111.913 474.411 112.042 475.162 112.042C476.216 112.042 477.006 111.851 477.533 111.47C478.06 111.077 478.323 110.573 478.323 109.956C478.323 109.486 478.178 109.11 477.886 108.83C477.606 108.55 477.258 108.337 476.844 108.191C476.429 108.034 475.852 107.866 475.112 107.686C474.226 107.462 473.52 107.249 472.993 107.048C472.466 106.835 472.012 106.515 471.631 106.089C471.261 105.663 471.076 105.086 471.076 104.357C471.076 103.763 471.233 103.225 471.547 102.743C471.861 102.25 472.343 101.857 472.993 101.566C473.643 101.274 474.45 101.129 475.414 101.129C476.087 101.129 476.743 101.224 477.382 101.415C478.032 101.594 478.592 101.846 479.063 102.171L478.643 103.163C478.15 102.838 477.623 102.597 477.062 102.44C476.502 102.272 475.952 102.188 475.414 102.188C474.383 102.188 473.604 102.39 473.077 102.793C472.561 103.186 472.304 103.696 472.304 104.323C472.304 104.794 472.444 105.175 472.724 105.467C473.015 105.747 473.374 105.966 473.8 106.123C474.237 106.268 474.82 106.431 475.549 106.61C476.412 106.823 477.107 107.036 477.634 107.249C478.172 107.451 478.626 107.765 478.996 108.191C479.366 108.606 479.551 109.172 479.551 109.889C479.551 110.483 479.388 111.027 479.063 111.52C478.749 112.002 478.262 112.389 477.6 112.681C476.939 112.961 476.126 113.101 475.162 113.101ZM489.644 104.155V113H488.5V111.386C488.187 111.924 487.755 112.344 487.206 112.647C486.656 112.938 486.029 113.084 485.322 113.084C484.168 113.084 483.254 112.765 482.582 112.126C481.92 111.475 481.589 110.528 481.589 109.284V104.155H482.783V109.166C482.783 110.097 483.013 110.803 483.473 111.285C483.932 111.767 484.588 112.008 485.44 112.008C486.37 112.008 487.105 111.728 487.643 111.167C488.181 110.595 488.45 109.805 488.45 108.796V104.155H489.644ZM497.208 104.088C498.038 104.088 498.789 104.279 499.461 104.66C500.134 105.03 500.661 105.557 501.042 106.24C501.423 106.924 501.614 107.703 501.614 108.578C501.614 109.452 501.423 110.231 501.042 110.915C500.661 111.599 500.134 112.131 499.461 112.512C498.789 112.894 498.038 113.084 497.208 113.084C496.468 113.084 495.801 112.927 495.207 112.613C494.624 112.299 494.153 111.845 493.795 111.251V113H492.651V100.523H493.845V105.837C494.215 105.265 494.686 104.834 495.257 104.542C495.84 104.239 496.491 104.088 497.208 104.088ZM497.124 112.025C497.741 112.025 498.301 111.885 498.805 111.604C499.31 111.313 499.702 110.904 499.982 110.377C500.274 109.85 500.42 109.25 500.42 108.578C500.42 107.905 500.274 107.305 499.982 106.778C499.702 106.252 499.31 105.848 498.805 105.568C498.301 105.276 497.741 105.131 497.124 105.131C496.496 105.131 495.93 105.276 495.426 105.568C494.932 105.848 494.54 106.252 494.249 106.778C493.968 107.305 493.828 107.905 493.828 108.578C493.828 109.25 493.968 109.85 494.249 110.377C494.54 110.904 494.932 111.313 495.426 111.604C495.93 111.885 496.496 112.025 497.124 112.025ZM514.742 104.088C515.851 104.088 516.72 104.408 517.348 105.047C517.987 105.685 518.306 106.627 518.306 107.871V113H517.112V107.989C517.112 107.07 516.888 106.369 516.44 105.887C516.003 105.405 515.381 105.164 514.573 105.164C513.654 105.164 512.931 105.45 512.404 106.022C511.877 106.582 511.614 107.361 511.614 108.359V113H510.42V107.989C510.42 107.07 510.196 106.369 509.748 105.887C509.31 105.405 508.683 105.164 507.864 105.164C506.956 105.164 506.233 105.45 505.695 106.022C505.168 106.582 504.905 107.361 504.905 108.359V113H503.711V104.155H504.854V105.77C505.168 105.231 505.605 104.817 506.166 104.525C506.726 104.234 507.371 104.088 508.1 104.088C508.84 104.088 509.478 104.245 510.017 104.559C510.566 104.873 510.975 105.338 511.244 105.955C511.569 105.372 512.034 104.918 512.64 104.593C513.256 104.256 513.957 104.088 514.742 104.088ZM521.208 104.155H522.402V113H521.208V104.155ZM521.813 102.222C521.566 102.222 521.359 102.138 521.191 101.969C521.023 101.801 520.939 101.599 520.939 101.364C520.939 101.14 521.023 100.944 521.191 100.776C521.359 100.607 521.566 100.523 521.813 100.523C522.06 100.523 522.267 100.607 522.435 100.776C522.603 100.932 522.687 101.123 522.687 101.347C522.687 101.594 522.603 101.801 522.435 101.969C522.267 102.138 522.06 102.222 521.813 102.222ZM530.045 112.462C529.821 112.664 529.54 112.821 529.204 112.933C528.879 113.034 528.537 113.084 528.178 113.084C527.349 113.084 526.71 112.86 526.261 112.411C525.813 111.963 525.589 111.33 525.589 110.511V105.164H524.008V104.155H525.589V102.222H526.783V104.155H529.473V105.164H526.783V110.444C526.783 110.971 526.912 111.375 527.17 111.655C527.439 111.924 527.82 112.058 528.313 112.058C528.56 112.058 528.795 112.019 529.019 111.941C529.255 111.862 529.456 111.75 529.624 111.604L530.045 112.462Z" fill="#173F5F"/>
<line x1="91" y1="40.5" x2="161" y2="40.5" stroke="#173F5F" stroke-width="3"/>
<line x1="241" y1="40.5" x2="311" y2="40.5" stroke="#173F5F" stroke-width="3"/>
<line x1="391" y1="40.5" x2="461" y2="40.5" stroke="#173F5F" stroke-width="3"/>
<path fill-rule="evenodd" clip-rule="evenodd" d="M62.2523 14.2639C56.5647 11.6968 50.2102 11.0608 44.1367 12.4509C38.0631 13.8409 32.5958 17.1826 28.5502 21.9774C24.5046 26.7722 22.0975 32.7633 21.6878 39.0572C21.2781 45.351 22.8878 51.6104 26.2768 56.9019C29.6659 62.1933 34.6526 66.2332 40.4935 68.4191C46.3343 70.605 52.7161 70.8198 58.6873 69.0313C64.6584 67.2429 69.8989 63.5472 73.6271 58.4953C77.3554 53.4434 79.3716 47.306 79.3752 40.9984V38.0103C79.3752 36.2154 80.8116 34.7603 82.5835 34.7603C84.3554 34.7603 85.7918 36.2154 85.7918 38.0103V41.0003C85.7875 48.7095 83.3232 56.2126 78.7664 62.3872C74.2097 68.5617 67.8047 73.0788 60.5066 75.2646C53.2086 77.4504 45.4085 77.1879 38.2697 74.5163C31.131 71.8446 25.036 66.907 20.8938 60.4397C16.7517 53.9724 14.7843 46.322 15.285 38.6295C15.7857 30.937 18.7278 23.6145 23.6724 17.7542C28.617 11.8939 35.2993 7.80964 42.7225 6.11067C50.1458 4.4117 57.9124 5.18901 64.8639 8.32665C66.4824 9.05719 67.2099 10.9785 66.4887 12.618C65.7675 14.2576 63.8708 14.9945 62.2523 14.2639Z" fill="#F1F9FF"/>
<path fill-rule="evenodd" clip-rule="evenodd" d="M84.851 12.7011C86.1046 13.9696 86.1056 16.0274 84.8533 17.2972L52.77 49.8297C52.1684 50.4397 51.3522 50.7826 50.501 50.7828C49.6498 50.783 48.8334 50.4406 48.2315 49.8309L38.6065 40.0809C37.3536 38.8117 37.3536 36.7539 38.6065 35.4847C39.8595 34.2155 41.8909 34.2155 43.1438 35.4847L50.499 42.9355L80.3137 12.7033C81.566 11.4335 83.5975 11.4325 84.851 12.7011Z" fill="#F1F9FF"/>
<path fill-rule="evenodd" clip-rule="evenodd" d="M213.252 14.2639C207.565 11.6968 201.21 11.0608 195.137 12.4509C189.063 13.8409 183.596 17.1826 179.55 21.9774C175.505 26.7722 173.097 32.7633 172.688 39.0572C172.278 45.351 173.888 51.6104 177.277 56.9019C180.666 62.1933 185.653 66.2332 191.493 68.4191C197.334 70.605 203.716 70.8198 209.687 69.0313C215.658 67.2429 220.899 63.5472 224.627 58.4953C228.355 53.4434 230.372 47.306 230.375 40.9984V38.0103C230.375 36.2154 231.812 34.7603 233.584 34.7603C235.355 34.7603 236.792 36.2154 236.792 38.0103V41.0003C236.787 48.7095 234.323 56.2126 229.766 62.3872C225.21 68.5617 218.805 73.0788 211.507 75.2646C204.209 77.4504 196.408 77.1879 189.27 74.5163C182.131 71.8446 176.036 66.907 171.894 60.4397C167.752 53.9724 165.784 46.322 166.285 38.6295C166.786 30.937 169.728 23.6145 174.672 17.7542C179.617 11.8939 186.299 7.80964 193.723 6.11067C201.146 4.4117 208.912 5.18901 215.864 8.32665C217.482 9.05719 218.21 10.9785 217.489 12.618C216.768 14.2576 214.871 14.9945 213.252 14.2639Z" fill="#F1F9FF"/>
<path fill-rule="evenodd" clip-rule="evenodd" d="M235.851 12.7011C237.105 13.9696 237.106 16.0274 235.853 17.2972L203.77 49.8297C203.168 50.4397 202.352 50.7826 201.501 50.7828C200.65 50.783 199.833 50.4406 199.232 49.8309L189.607 40.0809C188.354 38.8117 188.354 36.7539 189.607 35.4847C190.859 34.2155 192.891 34.2155 194.144 35.4847L201.499 42.9355L231.314 12.7033C232.566 11.4335 234.597 11.4325 235.851 12.7011Z" fill="#F1F9FF"/>
</svg>
