<svg width="541" height="115" viewBox="0 0 541 115" fill="none" xmlns="http://www.w3.org/2000/svg">
<circle cx="51" cy="40" r="40" fill="#B6DBFA"/>
<circle cx="201" cy="40" r="40" fill="#C4C4C4"/>
<circle cx="351" cy="40" r="40" fill="#C4C4C4"/>
<circle cx="501" cy="40" r="40" fill="#C4C4C4"/>
<path d="M193.756 49.8203C193.756 47.7284 194.091 45.9433 194.76 44.465C195.429 42.9588 196.629 41.2992 198.358 39.4863C200.06 37.6733 201.231 36.1253 201.872 34.8422C202.542 33.5592 202.877 32.2204 202.877 30.8257C202.877 29.5706 202.667 28.7059 202.249 28.2318C201.859 27.7297 201.273 27.4787 200.492 27.4787C198.902 27.4787 198.107 28.441 198.107 30.3655V33.5034H193.756V30.6584C193.756 28.2876 194.342 26.4746 195.513 25.2194C196.685 23.9364 198.386 23.2949 200.617 23.2949C202.849 23.2949 204.55 23.9364 205.722 25.2194C206.893 26.4746 207.479 28.2876 207.479 30.6584C207.479 32.4435 207.046 34.1867 206.182 35.8882C205.345 37.5896 203.881 39.542 201.789 41.7455C200.422 43.1959 199.502 44.3813 199.027 45.3018C198.553 46.1943 198.316 47.1566 198.316 48.1886V48.8162H207.06V53H193.756V49.8203Z" fill="#173F5F"/>
<path d="M350.366 53.4184C348.107 53.4184 346.392 52.7908 345.22 51.5357C344.077 50.2805 343.505 48.4815 343.505 46.1385V43.7538H347.856V46.3477C347.856 48.2723 348.651 49.2346 350.241 49.2346C351.022 49.2346 351.608 48.9975 351.998 48.5233C352.416 48.0213 352.626 47.1566 352.626 45.9293V43.5446C352.626 42.2057 352.388 41.2574 351.914 40.6996C351.44 40.1138 350.673 39.821 349.613 39.821H348.065V35.6371H349.739C350.659 35.6371 351.343 35.4001 351.789 34.9259C352.263 34.4517 352.5 33.6568 352.5 32.5411V30.4074C352.5 29.4032 352.291 28.6641 351.872 28.1899C351.454 27.7158 350.896 27.4787 350.199 27.4787C348.721 27.4787 347.982 28.3852 347.982 30.1982V32.1227H343.63V30.5747C343.63 28.2318 344.202 26.4327 345.346 25.1776C346.517 23.9224 348.191 23.2949 350.366 23.2949C352.57 23.2949 354.243 23.9224 355.387 25.1776C356.53 26.4048 357.102 28.1899 357.102 30.5329V31.5788C357.102 33.1687 356.837 34.4517 356.307 35.4279C355.777 36.3763 354.955 37.0596 353.839 37.478V37.5617C355.038 38.008 355.903 38.7332 356.433 39.7373C356.963 40.7414 357.228 42.0244 357.228 43.5864V46.1804C357.228 48.5233 356.642 50.3224 355.471 51.5775C354.327 52.8048 352.626 53.4184 350.366 53.4184Z" fill="#173F5F"/>
<path d="M501.538 47.6865H492.752V43.5027L501.119 23.7132H506.14V43.5027H508.316V47.6865H506.14V53H501.538V47.6865ZM501.538 43.5027V32.0809H501.454L496.936 43.5027H501.538Z" fill="#173F5F"/>
<path d="M5.98139 99.2295H7.2257V111H5.98139V99.2295ZM14.9733 102.088C16.0831 102.088 16.9631 102.413 17.6133 103.063C18.2747 103.702 18.6053 104.638 18.6053 105.871V111H17.4115V105.989C17.4115 105.07 17.1817 104.369 16.7221 103.887C16.2625 103.405 15.6067 103.164 14.7547 103.164C13.8019 103.164 13.0452 103.45 12.4847 104.022C11.9354 104.582 11.6608 105.361 11.6608 106.359V111H10.4669V102.155H11.6103V103.786C11.9354 103.248 12.3838 102.834 12.9555 102.542C13.5384 102.239 14.211 102.088 14.9733 102.088ZM24.4361 99.4481C23.9204 99.4481 23.5281 99.5883 23.259 99.8685C23.0012 100.149 22.8723 100.564 22.8723 101.113V102.155H25.5963V103.164H22.9059V111H21.712V103.164H20.1314V102.155H21.712V101.062C21.712 100.255 21.9418 99.6163 22.4015 99.1455C22.8723 98.6746 23.5337 98.4392 24.3856 98.4392C24.7219 98.4392 25.047 98.4897 25.3609 98.5906C25.6748 98.6802 25.9382 98.8148 26.1512 98.9941L25.7476 99.8853C25.4001 99.5939 24.9629 99.4481 24.4361 99.4481ZM30.3394 111.084C29.4875 111.084 28.7196 110.894 28.0358 110.512C27.352 110.12 26.8139 109.582 26.4215 108.898C26.0292 108.214 25.833 107.441 25.833 106.578C25.833 105.715 26.0292 104.941 26.4215 104.257C26.8139 103.573 27.352 103.041 28.0358 102.66C28.7196 102.279 29.4875 102.088 30.3394 102.088C31.1914 102.088 31.9593 102.279 32.6431 102.66C33.3269 103.041 33.8593 103.573 34.2405 104.257C34.6328 104.941 34.829 105.715 34.829 106.578C34.829 107.441 34.6328 108.214 34.2405 108.898C33.8593 109.582 33.3269 110.12 32.6431 110.512C31.9593 110.894 31.1914 111.084 30.3394 111.084ZM30.3394 110.025C30.9672 110.025 31.5277 109.885 32.0209 109.604C32.5254 109.313 32.9177 108.904 33.198 108.377C33.4782 107.85 33.6183 107.25 33.6183 106.578C33.6183 105.905 33.4782 105.305 33.198 104.778C32.9177 104.252 32.5254 103.848 32.0209 103.568C31.5277 103.276 30.9672 103.131 30.3394 103.131C29.7117 103.131 29.1456 103.276 28.6411 103.568C28.1479 103.848 27.7555 104.252 27.4641 104.778C27.1838 105.305 27.0437 105.905 27.0437 106.578C27.0437 107.25 27.1838 107.85 27.4641 108.377C27.7555 108.904 28.1479 109.313 28.6411 109.604C29.1456 109.885 29.7117 110.025 30.3394 110.025ZM38.0735 103.887C38.3538 103.293 38.7685 102.845 39.3178 102.542C39.8783 102.239 40.5677 102.088 41.3861 102.088V103.248L41.1002 103.231C40.1698 103.231 39.4411 103.517 38.9143 104.089C38.3874 104.661 38.124 105.462 38.124 106.494V111H36.9301V102.155H38.0735V103.887ZM54.242 102.088C55.3518 102.088 56.2206 102.408 56.8483 103.047C57.4873 103.685 57.8068 104.627 57.8068 105.871V111H56.6129V105.989C56.6129 105.07 56.3887 104.369 55.9403 103.887C55.5031 103.405 54.881 103.164 54.0739 103.164C53.1546 103.164 52.4316 103.45 51.9047 104.022C51.3779 104.582 51.1144 105.361 51.1144 106.359V111H49.9206V105.989C49.9206 105.07 49.6964 104.369 49.248 103.887C48.8108 103.405 48.183 103.164 47.3647 103.164C46.4567 103.164 45.7336 103.45 45.1956 104.022C44.6687 104.582 44.4053 105.361 44.4053 106.359V111H43.2114V102.155H44.3548V103.77C44.6687 103.231 45.1059 102.817 45.6664 102.525C46.2269 102.234 46.8714 102.088 47.6001 102.088C48.34 102.088 48.9789 102.245 49.517 102.559C50.0663 102.873 50.4755 103.338 50.7445 103.955C51.0696 103.372 51.5348 102.918 52.1401 102.593C52.7567 102.256 53.4573 102.088 54.242 102.088ZM63.8021 102.088C64.9567 102.088 65.8423 102.38 66.4588 102.962C67.0754 103.534 67.3837 104.386 67.3837 105.518V111H66.2403V109.621C65.9712 110.081 65.5733 110.44 65.0464 110.697C64.5307 110.955 63.9142 111.084 63.1967 111.084C62.2103 111.084 61.4256 110.849 60.8427 110.378C60.2597 109.907 59.9683 109.285 59.9683 108.511C59.9683 107.76 60.2373 107.155 60.7754 106.695C61.3247 106.236 62.1935 106.006 63.3817 106.006H66.1898V105.468C66.1898 104.706 65.9768 104.128 65.5508 103.736C65.1249 103.332 64.5027 103.131 63.6844 103.131C63.1239 103.131 62.5858 103.226 62.0701 103.416C61.5545 103.596 61.1117 103.848 60.7418 104.173L60.2037 103.282C60.6521 102.901 61.1902 102.609 61.8179 102.408C62.4457 102.195 63.1071 102.088 63.8021 102.088ZM63.3817 110.142C64.0543 110.142 64.6316 109.991 65.1137 109.688C65.5957 109.375 65.9544 108.926 66.1898 108.343V106.897H63.4153C61.902 106.897 61.1453 107.424 61.1453 108.478C61.1453 108.993 61.3415 109.403 61.7338 109.705C62.1262 109.997 62.6755 110.142 63.3817 110.142ZM74.9478 110.462C74.7236 110.664 74.4433 110.821 74.107 110.933C73.7819 111.034 73.44 111.084 73.0813 111.084C72.2518 111.084 71.6128 110.86 71.1644 110.411C70.716 109.963 70.4918 109.33 70.4918 108.511V103.164H68.9112V102.155H70.4918V100.222H71.6857V102.155H74.3761V103.164H71.6857V108.444C71.6857 108.971 71.8146 109.375 72.0724 109.655C72.3415 109.924 72.7226 110.058 73.2158 110.058C73.4625 110.058 73.6979 110.019 73.9221 109.941C74.1575 109.862 74.3592 109.75 74.5274 109.604L74.9478 110.462ZM76.7848 102.155H77.9787V111H76.7848V102.155ZM77.3901 100.222C77.1435 100.222 76.9361 100.138 76.768 99.9694C76.5998 99.8012 76.5158 99.5995 76.5158 99.3641C76.5158 99.1399 76.5998 98.9437 76.768 98.7755C76.9361 98.6074 77.1435 98.5233 77.3901 98.5233C77.6368 98.5233 77.8441 98.6074 78.0123 98.7755C78.1804 98.9325 78.2645 99.123 78.2645 99.3472C78.2645 99.5939 78.1804 99.8012 78.0123 99.9694C77.8441 100.138 77.6368 100.222 77.3901 100.222ZM84.5794 111.084C83.7275 111.084 82.9596 110.894 82.2758 110.512C81.592 110.12 81.0539 109.582 80.6616 108.898C80.2692 108.214 80.073 107.441 80.073 106.578C80.073 105.715 80.2692 104.941 80.6616 104.257C81.0539 103.573 81.592 103.041 82.2758 102.66C82.9596 102.279 83.7275 102.088 84.5794 102.088C85.4314 102.088 86.1993 102.279 86.8831 102.66C87.5669 103.041 88.0994 103.573 88.4805 104.257C88.8729 104.941 89.069 105.715 89.069 106.578C89.069 107.441 88.8729 108.214 88.4805 108.898C88.0994 109.582 87.5669 110.12 86.8831 110.512C86.1993 110.894 85.4314 111.084 84.5794 111.084ZM84.5794 110.025C85.2072 110.025 85.7677 109.885 86.2609 109.604C86.7654 109.313 87.1577 108.904 87.438 108.377C87.7182 107.85 87.8584 107.25 87.8584 106.578C87.8584 105.905 87.7182 105.305 87.438 104.778C87.1577 104.252 86.7654 103.848 86.2609 103.568C85.7677 103.276 85.2072 103.131 84.5794 103.131C83.9517 103.131 83.3856 103.276 82.8811 103.568C82.3879 103.848 81.9955 104.252 81.7041 104.778C81.4238 105.305 81.2837 105.905 81.2837 106.578C81.2837 107.25 81.4238 107.85 81.7041 108.377C81.9955 108.904 82.3879 109.313 82.8811 109.604C83.3856 109.885 83.9517 110.025 84.5794 110.025ZM95.6765 102.088C96.7863 102.088 97.6663 102.413 98.3165 103.063C98.9779 103.702 99.3086 104.638 99.3086 105.871V111H98.1147V105.989C98.1147 105.07 97.8849 104.369 97.4253 103.887C96.9657 103.405 96.3099 103.164 95.4579 103.164C94.5051 103.164 93.7484 103.45 93.1879 104.022C92.6386 104.582 92.364 105.361 92.364 106.359V111H91.1701V102.155H92.3135V103.786C92.6386 103.248 93.087 102.834 93.6587 102.542C94.2417 102.239 94.9142 102.088 95.6765 102.088Z" fill="#173F5F"/>
<path d="M174.917 99.2295H179.709C180.953 99.2295 182.052 99.4818 183.005 99.9862C183.958 100.479 184.698 101.174 185.224 102.071C185.751 102.957 186.015 103.971 186.015 105.115C186.015 106.258 185.751 107.278 185.224 108.175C184.698 109.061 183.958 109.756 183.005 110.26C182.052 110.753 180.953 111 179.709 111H174.917V99.2295ZM179.642 109.924C180.673 109.924 181.576 109.722 182.349 109.319C183.123 108.904 183.722 108.338 184.148 107.62C184.574 106.892 184.787 106.056 184.787 105.115C184.787 104.173 184.574 103.344 184.148 102.626C183.722 101.898 183.123 101.331 182.349 100.928C181.576 100.513 180.673 100.306 179.642 100.306H176.161V109.924H179.642ZM195.922 106.948H188.523C188.59 107.867 188.943 108.612 189.582 109.184C190.221 109.744 191.029 110.025 192.004 110.025C192.553 110.025 193.058 109.929 193.517 109.739C193.977 109.537 194.375 109.246 194.711 108.865L195.384 109.638C194.991 110.109 194.498 110.468 193.904 110.714C193.321 110.961 192.676 111.084 191.97 111.084C191.062 111.084 190.255 110.894 189.549 110.512C188.854 110.12 188.31 109.582 187.918 108.898C187.525 108.214 187.329 107.441 187.329 106.578C187.329 105.715 187.514 104.941 187.884 104.257C188.265 103.573 188.781 103.041 189.431 102.66C190.092 102.279 190.832 102.088 191.651 102.088C192.469 102.088 193.203 102.279 193.853 102.66C194.504 103.041 195.014 103.573 195.384 104.257C195.754 104.93 195.938 105.703 195.938 106.578L195.922 106.948ZM191.651 103.114C190.799 103.114 190.081 103.388 189.498 103.938C188.927 104.476 188.602 105.182 188.523 106.056H194.795C194.717 105.182 194.386 104.476 193.803 103.938C193.231 103.388 192.514 103.114 191.651 103.114ZM202.69 110.462C202.466 110.664 202.185 110.821 201.849 110.933C201.524 111.034 201.182 111.084 200.823 111.084C199.994 111.084 199.355 110.86 198.907 110.411C198.458 109.963 198.234 109.33 198.234 108.511V103.164H196.653V102.155H198.234V100.222H199.428V102.155H202.118V103.164H199.428V108.444C199.428 108.971 199.557 109.375 199.815 109.655C200.084 109.924 200.465 110.058 200.958 110.058C201.205 110.058 201.44 110.019 201.664 109.941C201.9 109.862 202.101 109.75 202.27 109.604L202.69 110.462ZM207.621 102.088C208.776 102.088 209.661 102.38 210.278 102.962C210.894 103.534 211.203 104.386 211.203 105.518V111H210.059V109.621C209.79 110.081 209.392 110.44 208.865 110.697C208.35 110.955 207.733 111.084 207.016 111.084C206.029 111.084 205.244 110.849 204.661 110.378C204.079 109.907 203.787 109.285 203.787 108.511C203.787 107.76 204.056 107.155 204.594 106.695C205.144 106.236 206.012 106.006 207.201 106.006H210.009V105.468C210.009 104.706 209.796 104.128 209.37 103.736C208.944 103.332 208.322 103.131 207.503 103.131C206.943 103.131 206.405 103.226 205.889 103.416C205.373 103.596 204.931 103.848 204.561 104.173L204.023 103.282C204.471 102.901 205.009 102.609 205.637 102.408C206.265 102.195 206.926 102.088 207.621 102.088ZM207.201 110.142C207.873 110.142 208.45 109.991 208.932 109.688C209.415 109.375 209.773 108.926 210.009 108.343V106.897H207.234C205.721 106.897 204.964 107.424 204.964 108.478C204.964 108.993 205.16 109.403 205.553 109.705C205.945 109.997 206.494 110.142 207.201 110.142ZM214.109 102.155H215.303V111H214.109V102.155ZM214.714 100.222C214.468 100.222 214.26 100.138 214.092 99.9694C213.924 99.8012 213.84 99.5995 213.84 99.3641C213.84 99.1399 213.924 98.9437 214.092 98.7755C214.26 98.6074 214.468 98.5233 214.714 98.5233C214.961 98.5233 215.168 98.6074 215.336 98.7755C215.505 98.9325 215.589 99.123 215.589 99.3472C215.589 99.5939 215.505 99.8012 215.336 99.9694C215.168 100.138 214.961 100.222 214.714 100.222ZM218.288 98.5233H219.482V111H218.288V98.5233ZM224.839 111.084C224.121 111.084 223.432 110.983 222.77 110.781C222.12 110.568 221.61 110.305 221.24 109.991L221.778 109.049C222.148 109.341 222.613 109.582 223.174 109.773C223.734 109.952 224.317 110.042 224.923 110.042C225.73 110.042 226.324 109.918 226.705 109.672C227.097 109.414 227.294 109.055 227.294 108.595C227.294 108.27 227.187 108.018 226.974 107.839C226.761 107.648 226.492 107.508 226.167 107.418C225.842 107.318 225.41 107.222 224.872 107.133C224.155 106.998 223.578 106.864 223.14 106.729C222.703 106.583 222.328 106.342 222.014 106.006C221.711 105.67 221.56 105.204 221.56 104.61C221.56 103.87 221.868 103.265 222.485 102.794C223.101 102.323 223.959 102.088 225.057 102.088C225.629 102.088 226.201 102.167 226.772 102.323C227.344 102.469 227.815 102.665 228.185 102.912L227.664 103.87C226.935 103.366 226.066 103.114 225.057 103.114C224.295 103.114 223.718 103.248 223.325 103.517C222.944 103.786 222.754 104.14 222.754 104.577C222.754 104.913 222.86 105.182 223.073 105.384C223.297 105.586 223.572 105.737 223.897 105.838C224.222 105.927 224.67 106.023 225.242 106.124C225.948 106.258 226.515 106.393 226.941 106.527C227.366 106.662 227.731 106.892 228.033 107.217C228.336 107.542 228.487 107.99 228.487 108.562C228.487 109.335 228.162 109.952 227.512 110.411C226.873 110.86 225.982 111.084 224.839 111.084Z" fill="#173F5F"/>
<path d="M328.322 99.2295C329.825 99.2295 331.002 99.5883 331.854 100.306C332.706 101.023 333.131 102.01 333.131 103.265C333.131 104.521 332.706 105.507 331.854 106.225C331.002 106.931 329.825 107.284 328.322 107.284H325.161V111H323.917V99.2295H328.322ZM328.289 106.191C329.455 106.191 330.346 105.939 330.962 105.434C331.579 104.919 331.887 104.196 331.887 103.265C331.887 102.312 331.579 101.584 330.962 101.079C330.346 100.564 329.455 100.306 328.289 100.306H325.161V106.191H328.289ZM335.004 102.155H336.197V111H335.004V102.155ZM335.609 100.222C335.362 100.222 335.155 100.138 334.987 99.9694C334.819 99.8012 334.735 99.5995 334.735 99.3641C334.735 99.1399 334.819 98.9437 334.987 98.7755C335.155 98.6074 335.362 98.5233 335.609 98.5233C335.856 98.5233 336.063 98.6074 336.231 98.7755C336.399 98.9325 336.483 99.123 336.483 99.3472C336.483 99.5939 336.399 99.8012 336.231 99.9694C336.063 100.138 335.856 100.222 335.609 100.222ZM342.849 111.084C341.974 111.084 341.19 110.894 340.495 110.512C339.811 110.131 339.273 109.599 338.88 108.915C338.488 108.22 338.292 107.441 338.292 106.578C338.292 105.715 338.488 104.941 338.88 104.257C339.273 103.573 339.811 103.041 340.495 102.66C341.19 102.279 341.974 102.088 342.849 102.088C343.611 102.088 344.289 102.239 344.883 102.542C345.489 102.834 345.965 103.265 346.313 103.837L345.421 104.442C345.13 104.005 344.76 103.68 344.312 103.467C343.863 103.243 343.376 103.131 342.849 103.131C342.21 103.131 341.632 103.276 341.117 103.568C340.612 103.848 340.214 104.252 339.923 104.778C339.643 105.305 339.503 105.905 339.503 106.578C339.503 107.261 339.643 107.867 339.923 108.394C340.214 108.909 340.612 109.313 341.117 109.604C341.632 109.885 342.21 110.025 342.849 110.025C343.376 110.025 343.863 109.918 344.312 109.705C344.76 109.492 345.13 109.167 345.421 108.73L346.313 109.335C345.965 109.907 345.489 110.344 344.883 110.647C344.278 110.938 343.6 111.084 342.849 111.084ZM353.078 110.462C352.854 110.664 352.573 110.821 352.237 110.933C351.912 111.034 351.57 111.084 351.211 111.084C350.382 111.084 349.743 110.86 349.294 110.411C348.846 109.963 348.622 109.33 348.622 108.511V103.164H347.041V102.155H348.622V100.222H349.816V102.155H352.506V103.164H349.816V108.444C349.816 108.971 349.945 109.375 350.202 109.655C350.472 109.924 350.853 110.058 351.346 110.058C351.593 110.058 351.828 110.019 352.052 109.941C352.288 109.862 352.489 109.75 352.657 109.604L353.078 110.462ZM362.885 102.155V111H361.742V109.386C361.428 109.924 360.996 110.344 360.447 110.647C359.898 110.938 359.27 111.084 358.564 111.084C357.409 111.084 356.495 110.765 355.823 110.126C355.161 109.475 354.831 108.528 354.831 107.284V102.155H356.025V107.166C356.025 108.097 356.254 108.803 356.714 109.285C357.174 109.767 357.829 110.008 358.681 110.008C359.612 110.008 360.346 109.728 360.884 109.167C361.422 108.595 361.691 107.805 361.691 106.796V102.155H362.885ZM367.036 103.887C367.316 103.293 367.731 102.845 368.28 102.542C368.841 102.239 369.53 102.088 370.348 102.088V103.248L370.063 103.231C369.132 103.231 368.404 103.517 367.877 104.089C367.35 104.661 367.086 105.462 367.086 106.494V111H365.893V102.155H367.036V103.887ZM379.793 106.948H372.394C372.462 107.867 372.815 108.612 373.454 109.184C374.093 109.744 374.9 110.025 375.875 110.025C376.424 110.025 376.929 109.929 377.388 109.739C377.848 109.537 378.246 109.246 378.582 108.865L379.255 109.638C378.863 110.109 378.369 110.468 377.775 110.714C377.192 110.961 376.548 111.084 375.841 111.084C374.933 111.084 374.126 110.894 373.42 110.512C372.725 110.12 372.181 109.582 371.789 108.898C371.397 108.214 371.201 107.441 371.201 106.578C371.201 105.715 371.385 104.941 371.755 104.257C372.137 103.573 372.652 103.041 373.302 102.66C373.964 102.279 374.704 102.088 375.522 102.088C376.34 102.088 377.075 102.279 377.725 102.66C378.375 103.041 378.885 103.573 379.255 104.257C379.625 104.93 379.81 105.703 379.81 106.578L379.793 106.948ZM375.522 103.114C374.67 103.114 373.953 103.388 373.37 103.938C372.798 104.476 372.473 105.182 372.394 106.056H378.666C378.588 105.182 378.257 104.476 377.674 103.938C377.103 103.388 376.385 103.114 375.522 103.114Z" fill="#173F5F"/>
<path d="M475.162 111.101C474.288 111.101 473.447 110.961 472.64 110.681C471.844 110.4 471.227 110.03 470.79 109.571L471.278 108.612C471.704 109.038 472.27 109.386 472.976 109.655C473.682 109.913 474.411 110.042 475.162 110.042C476.216 110.042 477.006 109.851 477.533 109.47C478.06 109.077 478.323 108.573 478.323 107.956C478.323 107.486 478.178 107.11 477.886 106.83C477.606 106.55 477.258 106.337 476.844 106.191C476.429 106.034 475.852 105.866 475.112 105.686C474.226 105.462 473.52 105.249 472.993 105.048C472.466 104.835 472.012 104.515 471.631 104.089C471.261 103.663 471.076 103.086 471.076 102.357C471.076 101.763 471.233 101.225 471.547 100.743C471.861 100.25 472.343 99.8573 472.993 99.5658C473.643 99.2744 474.45 99.1286 475.414 99.1286C476.087 99.1286 476.743 99.2239 477.382 99.4145C478.032 99.5939 478.592 99.8461 479.063 100.171L478.643 101.163C478.15 100.838 477.623 100.597 477.062 100.44C476.502 100.272 475.952 100.188 475.414 100.188C474.383 100.188 473.604 100.39 473.077 100.793C472.561 101.186 472.304 101.696 472.304 102.323C472.304 102.794 472.444 103.175 472.724 103.467C473.015 103.747 473.374 103.966 473.8 104.123C474.237 104.268 474.82 104.431 475.549 104.61C476.412 104.823 477.107 105.036 477.634 105.249C478.172 105.451 478.626 105.765 478.996 106.191C479.366 106.606 479.551 107.172 479.551 107.889C479.551 108.483 479.388 109.027 479.063 109.52C478.749 110.002 478.262 110.389 477.6 110.681C476.939 110.961 476.126 111.101 475.162 111.101ZM489.644 102.155V111H488.5V109.386C488.187 109.924 487.755 110.344 487.206 110.647C486.656 110.938 486.029 111.084 485.322 111.084C484.168 111.084 483.254 110.765 482.582 110.126C481.92 109.475 481.589 108.528 481.589 107.284V102.155H482.783V107.166C482.783 108.097 483.013 108.803 483.473 109.285C483.932 109.767 484.588 110.008 485.44 110.008C486.37 110.008 487.105 109.728 487.643 109.167C488.181 108.595 488.45 107.805 488.45 106.796V102.155H489.644ZM497.208 102.088C498.038 102.088 498.789 102.279 499.461 102.66C500.134 103.03 500.661 103.557 501.042 104.24C501.423 104.924 501.614 105.703 501.614 106.578C501.614 107.452 501.423 108.231 501.042 108.915C500.661 109.599 500.134 110.131 499.461 110.512C498.789 110.894 498.038 111.084 497.208 111.084C496.468 111.084 495.801 110.927 495.207 110.613C494.624 110.299 494.153 109.845 493.795 109.251V111H492.651V98.5233H493.845V103.837C494.215 103.265 494.686 102.834 495.257 102.542C495.84 102.239 496.491 102.088 497.208 102.088ZM497.124 110.025C497.741 110.025 498.301 109.885 498.805 109.604C499.31 109.313 499.702 108.904 499.982 108.377C500.274 107.85 500.42 107.25 500.42 106.578C500.42 105.905 500.274 105.305 499.982 104.778C499.702 104.252 499.31 103.848 498.805 103.568C498.301 103.276 497.741 103.131 497.124 103.131C496.496 103.131 495.93 103.276 495.426 103.568C494.932 103.848 494.54 104.252 494.249 104.778C493.968 105.305 493.828 105.905 493.828 106.578C493.828 107.25 493.968 107.85 494.249 108.377C494.54 108.904 494.932 109.313 495.426 109.604C495.93 109.885 496.496 110.025 497.124 110.025ZM514.742 102.088C515.851 102.088 516.72 102.408 517.348 103.047C517.987 103.685 518.306 104.627 518.306 105.871V111H517.112V105.989C517.112 105.07 516.888 104.369 516.44 103.887C516.003 103.405 515.381 103.164 514.573 103.164C513.654 103.164 512.931 103.45 512.404 104.022C511.877 104.582 511.614 105.361 511.614 106.359V111H510.42V105.989C510.42 105.07 510.196 104.369 509.748 103.887C509.31 103.405 508.683 103.164 507.864 103.164C506.956 103.164 506.233 103.45 505.695 104.022C505.168 104.582 504.905 105.361 504.905 106.359V111H503.711V102.155H504.854V103.77C505.168 103.231 505.605 102.817 506.166 102.525C506.726 102.234 507.371 102.088 508.1 102.088C508.84 102.088 509.478 102.245 510.017 102.559C510.566 102.873 510.975 103.338 511.244 103.955C511.569 103.372 512.034 102.918 512.64 102.593C513.256 102.256 513.957 102.088 514.742 102.088ZM521.208 102.155H522.402V111H521.208V102.155ZM521.813 100.222C521.566 100.222 521.359 100.138 521.191 99.9694C521.023 99.8012 520.939 99.5995 520.939 99.3641C520.939 99.1399 521.023 98.9437 521.191 98.7755C521.359 98.6074 521.566 98.5233 521.813 98.5233C522.06 98.5233 522.267 98.6074 522.435 98.7755C522.603 98.9325 522.687 99.123 522.687 99.3472C522.687 99.5939 522.603 99.8012 522.435 99.9694C522.267 100.138 522.06 100.222 521.813 100.222ZM530.045 110.462C529.821 110.664 529.54 110.821 529.204 110.933C528.879 111.034 528.537 111.084 528.178 111.084C527.349 111.084 526.71 110.86 526.261 110.411C525.813 109.963 525.589 109.33 525.589 108.511V103.164H524.008V102.155H525.589V100.222H526.783V102.155H529.473V103.164H526.783V108.444C526.783 108.971 526.912 109.375 527.17 109.655C527.439 109.924 527.82 110.058 528.313 110.058C528.56 110.058 528.795 110.019 529.019 109.941C529.255 109.862 529.456 109.75 529.624 109.604L530.045 110.462Z" fill="#173F5F"/>
<line x1="91" y1="38.5" x2="161" y2="38.5" stroke="#173F5F" stroke-width="3"/>
<line x1="241" y1="38.5" x2="311" y2="38.5" stroke="#173F5F" stroke-width="3"/>
<line x1="391" y1="38.5" x2="461" y2="38.5" stroke="#173F5F" stroke-width="3"/>
<path fill-rule="evenodd" clip-rule="evenodd" d="M62.2523 12.2639C56.5647 9.69677 50.2102 9.0608 44.1367 10.4509C38.0631 11.8409 32.5958 15.1826 28.5502 19.9774C24.5046 24.7722 22.0975 30.7633 21.6878 37.0572C21.2781 43.351 22.8878 49.6104 26.2768 54.9019C29.6659 60.1933 34.6526 64.2332 40.4935 66.4191C46.3343 68.605 52.7161 68.8198 58.6873 67.0313C64.6584 65.2429 69.8989 61.5472 73.6271 56.4953C77.3554 51.4434 79.3716 45.306 79.3752 38.9984V36.0103C79.3752 34.2154 80.8116 32.7603 82.5835 32.7603C84.3554 32.7603 85.7918 34.2154 85.7918 36.0103V39.0003C85.7875 46.7095 83.3232 54.2126 78.7664 60.3872C74.2097 66.5617 67.8047 71.0788 60.5066 73.2646C53.2086 75.4504 45.4085 75.1879 38.2697 72.5163C31.131 69.8446 25.036 64.907 20.8938 58.4397C16.7517 51.9724 14.7843 44.322 15.285 36.6295C15.7857 28.937 18.7278 21.6145 23.6724 15.7542C28.617 9.89386 35.2993 5.80964 42.7225 4.11067C50.1458 2.4117 57.9124 3.18901 64.8639 6.32665C66.4824 7.05719 67.2099 8.97851 66.4887 10.618C65.7675 12.2576 63.8708 12.9945 62.2523 12.2639Z" fill="#F1F9FF"/>
<path fill-rule="evenodd" clip-rule="evenodd" d="M84.851 10.7011C86.1046 11.9696 86.1056 14.0274 84.8533 15.2972L52.77 47.8297C52.1684 48.4397 51.3522 48.7826 50.501 48.7828C49.6498 48.783 48.8334 48.4406 48.2315 47.8309L38.6065 38.0809C37.3536 36.8117 37.3536 34.7539 38.6065 33.4847C39.8595 32.2155 41.8909 32.2155 43.1438 33.4847L50.499 40.9355L80.3137 10.7033C81.566 9.43351 83.5975 9.43248 84.851 10.7011Z" fill="#F1F9FF"/>
</svg>
