<svg width="691" height="115" viewBox="0 0 691 115" fill="none" xmlns="http://www.w3.org/2000/svg">
<circle cx="51" cy="40" r="40" fill="#B6DBFA"/>
<circle cx="201" cy="40" r="40" fill="#B6DBFA"/>
<circle cx="351" cy="40" r="40" fill="#B6DBFA"/>
<circle cx="501" cy="40" r="40" fill="#C4C4C4"/>
<circle cx="651" cy="40" r="40" fill="#C4C4C4"/>
<path d="M501.538 47.6865H492.752V43.5027L501.119 23.7132H506.14V43.5027H508.316V47.6865H506.14V53H501.538V47.6865ZM501.538 43.5027V32.0809H501.454L496.936 43.5027H501.538Z" fill="#173F5F"/>
<path d="M650.576 53.4184C648.344 53.4184 646.643 52.7908 645.471 51.5357C644.3 50.2526 643.714 48.4257 643.714 46.0549V43.7538H648.065V46.3896C648.065 48.2862 648.86 49.2346 650.45 49.2346C652.04 49.2346 652.835 48.2862 652.835 46.3896V39.821C652.835 37.8964 652.04 36.9341 650.45 36.9341C648.86 36.9341 648.065 37.8964 648.065 39.821V40.072H643.714L644.551 23.7132H656.684V27.8971H648.651L648.274 34.8841H648.358C649.223 33.4616 650.548 32.7503 652.333 32.7503C654.006 32.7503 655.275 33.3221 656.14 34.4657C657.005 35.6092 657.437 37.2688 657.437 39.4444V46.0549C657.437 48.4257 656.851 50.2526 655.68 51.5357C654.508 52.7908 652.807 53.4184 650.576 53.4184Z" fill="#173F5F"/>
<path d="M5.98139 99.2295H7.2257V111H5.98139V99.2295ZM14.9733 102.088C16.0831 102.088 16.9631 102.413 17.6133 103.063C18.2747 103.702 18.6053 104.638 18.6053 105.871V111H17.4115V105.989C17.4115 105.07 17.1817 104.369 16.7221 103.887C16.2625 103.405 15.6067 103.164 14.7547 103.164C13.8019 103.164 13.0452 103.45 12.4847 104.022C11.9354 104.582 11.6608 105.361 11.6608 106.359V111H10.4669V102.155H11.6103V103.786C11.9354 103.248 12.3838 102.834 12.9555 102.542C13.5384 102.239 14.211 102.088 14.9733 102.088ZM24.4361 99.4481C23.9204 99.4481 23.5281 99.5883 23.259 99.8685C23.0012 100.149 22.8723 100.564 22.8723 101.113V102.155H25.5963V103.164H22.9059V111H21.712V103.164H20.1314V102.155H21.712V101.062C21.712 100.255 21.9418 99.6163 22.4015 99.1455C22.8723 98.6746 23.5337 98.4392 24.3856 98.4392C24.7219 98.4392 25.047 98.4897 25.3609 98.5906C25.6748 98.6802 25.9382 98.8148 26.1512 98.9941L25.7476 99.8853C25.4001 99.5939 24.9629 99.4481 24.4361 99.4481ZM30.3394 111.084C29.4875 111.084 28.7196 110.894 28.0358 110.512C27.352 110.12 26.8139 109.582 26.4215 108.898C26.0292 108.214 25.833 107.441 25.833 106.578C25.833 105.715 26.0292 104.941 26.4215 104.257C26.8139 103.573 27.352 103.041 28.0358 102.66C28.7196 102.279 29.4875 102.088 30.3394 102.088C31.1914 102.088 31.9593 102.279 32.6431 102.66C33.3269 103.041 33.8593 103.573 34.2405 104.257C34.6328 104.941 34.829 105.715 34.829 106.578C34.829 107.441 34.6328 108.214 34.2405 108.898C33.8593 109.582 33.3269 110.12 32.6431 110.512C31.9593 110.894 31.1914 111.084 30.3394 111.084ZM30.3394 110.025C30.9672 110.025 31.5277 109.885 32.0209 109.604C32.5254 109.313 32.9177 108.904 33.198 108.377C33.4782 107.85 33.6183 107.25 33.6183 106.578C33.6183 105.905 33.4782 105.305 33.198 104.778C32.9177 104.252 32.5254 103.848 32.0209 103.568C31.5277 103.276 30.9672 103.131 30.3394 103.131C29.7117 103.131 29.1456 103.276 28.6411 103.568C28.1479 103.848 27.7555 104.252 27.4641 104.778C27.1838 105.305 27.0437 105.905 27.0437 106.578C27.0437 107.25 27.1838 107.85 27.4641 108.377C27.7555 108.904 28.1479 109.313 28.6411 109.604C29.1456 109.885 29.7117 110.025 30.3394 110.025ZM38.0735 103.887C38.3538 103.293 38.7685 102.845 39.3178 102.542C39.8783 102.239 40.5677 102.088 41.3861 102.088V103.248L41.1002 103.231C40.1698 103.231 39.4411 103.517 38.9143 104.089C38.3874 104.661 38.124 105.462 38.124 106.494V111H36.9301V102.155H38.0735V103.887ZM54.242 102.088C55.3518 102.088 56.2206 102.408 56.8483 103.047C57.4873 103.685 57.8068 104.627 57.8068 105.871V111H56.6129V105.989C56.6129 105.07 56.3887 104.369 55.9403 103.887C55.5031 103.405 54.881 103.164 54.0739 103.164C53.1546 103.164 52.4316 103.45 51.9047 104.022C51.3779 104.582 51.1144 105.361 51.1144 106.359V111H49.9206V105.989C49.9206 105.07 49.6964 104.369 49.248 103.887C48.8108 103.405 48.183 103.164 47.3647 103.164C46.4567 103.164 45.7336 103.45 45.1956 104.022C44.6687 104.582 44.4053 105.361 44.4053 106.359V111H43.2114V102.155H44.3548V103.77C44.6687 103.231 45.1059 102.817 45.6664 102.525C46.2269 102.234 46.8714 102.088 47.6001 102.088C48.34 102.088 48.9789 102.245 49.517 102.559C50.0663 102.873 50.4755 103.338 50.7445 103.955C51.0696 103.372 51.5348 102.918 52.1401 102.593C52.7567 102.256 53.4573 102.088 54.242 102.088ZM63.8021 102.088C64.9567 102.088 65.8423 102.38 66.4588 102.962C67.0754 103.534 67.3837 104.386 67.3837 105.518V111H66.2403V109.621C65.9712 110.081 65.5733 110.44 65.0464 110.697C64.5307 110.955 63.9142 111.084 63.1967 111.084C62.2103 111.084 61.4256 110.849 60.8427 110.378C60.2597 109.907 59.9683 109.285 59.9683 108.511C59.9683 107.76 60.2373 107.155 60.7754 106.695C61.3247 106.236 62.1935 106.006 63.3817 106.006H66.1898V105.468C66.1898 104.706 65.9768 104.128 65.5508 103.736C65.1249 103.332 64.5027 103.131 63.6844 103.131C63.1239 103.131 62.5858 103.226 62.0701 103.416C61.5545 103.596 61.1117 103.848 60.7418 104.173L60.2037 103.282C60.6521 102.901 61.1902 102.609 61.8179 102.408C62.4457 102.195 63.1071 102.088 63.8021 102.088ZM63.3817 110.142C64.0543 110.142 64.6316 109.991 65.1137 109.688C65.5957 109.375 65.9544 108.926 66.1898 108.343V106.897H63.4153C61.902 106.897 61.1453 107.424 61.1453 108.478C61.1453 108.993 61.3415 109.403 61.7338 109.705C62.1262 109.997 62.6755 110.142 63.3817 110.142ZM74.9478 110.462C74.7236 110.664 74.4433 110.821 74.107 110.933C73.7819 111.034 73.44 111.084 73.0813 111.084C72.2518 111.084 71.6128 110.86 71.1644 110.411C70.716 109.963 70.4918 109.33 70.4918 108.511V103.164H68.9112V102.155H70.4918V100.222H71.6857V102.155H74.3761V103.164H71.6857V108.444C71.6857 108.971 71.8146 109.375 72.0724 109.655C72.3415 109.924 72.7226 110.058 73.2158 110.058C73.4625 110.058 73.6979 110.019 73.9221 109.941C74.1575 109.862 74.3592 109.75 74.5274 109.604L74.9478 110.462ZM76.7848 102.155H77.9787V111H76.7848V102.155ZM77.3901 100.222C77.1435 100.222 76.9361 100.138 76.768 99.9694C76.5998 99.8012 76.5158 99.5995 76.5158 99.3641C76.5158 99.1399 76.5998 98.9437 76.768 98.7755C76.9361 98.6074 77.1435 98.5233 77.3901 98.5233C77.6368 98.5233 77.8441 98.6074 78.0123 98.7755C78.1804 98.9325 78.2645 99.123 78.2645 99.3472C78.2645 99.5939 78.1804 99.8012 78.0123 99.9694C77.8441 100.138 77.6368 100.222 77.3901 100.222ZM84.5794 111.084C83.7275 111.084 82.9596 110.894 82.2758 110.512C81.592 110.12 81.0539 109.582 80.6616 108.898C80.2692 108.214 80.073 107.441 80.073 106.578C80.073 105.715 80.2692 104.941 80.6616 104.257C81.0539 103.573 81.592 103.041 82.2758 102.66C82.9596 102.279 83.7275 102.088 84.5794 102.088C85.4314 102.088 86.1993 102.279 86.8831 102.66C87.5669 103.041 88.0994 103.573 88.4805 104.257C88.8729 104.941 89.069 105.715 89.069 106.578C89.069 107.441 88.8729 108.214 88.4805 108.898C88.0994 109.582 87.5669 110.12 86.8831 110.512C86.1993 110.894 85.4314 111.084 84.5794 111.084ZM84.5794 110.025C85.2072 110.025 85.7677 109.885 86.2609 109.604C86.7654 109.313 87.1577 108.904 87.438 108.377C87.7182 107.85 87.8584 107.25 87.8584 106.578C87.8584 105.905 87.7182 105.305 87.438 104.778C87.1577 104.252 86.7654 103.848 86.2609 103.568C85.7677 103.276 85.2072 103.131 84.5794 103.131C83.9517 103.131 83.3856 103.276 82.8811 103.568C82.3879 103.848 81.9955 104.252 81.7041 104.778C81.4238 105.305 81.2837 105.905 81.2837 106.578C81.2837 107.25 81.4238 107.85 81.7041 108.377C81.9955 108.904 82.3879 109.313 82.8811 109.604C83.3856 109.885 83.9517 110.025 84.5794 110.025ZM95.6765 102.088C96.7863 102.088 97.6663 102.413 98.3165 103.063C98.9779 103.702 99.3086 104.638 99.3086 105.871V111H98.1147V105.989C98.1147 105.07 97.8849 104.369 97.4253 103.887C96.9657 103.405 96.3099 103.164 95.4579 103.164C94.5051 103.164 93.7484 103.45 93.1879 104.022C92.6386 104.582 92.364 105.361 92.364 106.359V111H91.1701V102.155H92.3135V103.786C92.6386 103.248 93.087 102.834 93.6587 102.542C94.2417 102.239 94.9142 102.088 95.6765 102.088Z" fill="#173F5F"/>
<path d="M174.917 99.2295H179.709C180.953 99.2295 182.052 99.4818 183.005 99.9862C183.958 100.479 184.698 101.174 185.224 102.071C185.751 102.957 186.015 103.971 186.015 105.115C186.015 106.258 185.751 107.278 185.224 108.175C184.698 109.061 183.958 109.756 183.005 110.26C182.052 110.753 180.953 111 179.709 111H174.917V99.2295ZM179.642 109.924C180.673 109.924 181.576 109.722 182.349 109.319C183.123 108.904 183.722 108.338 184.148 107.62C184.574 106.892 184.787 106.056 184.787 105.115C184.787 104.173 184.574 103.344 184.148 102.626C183.722 101.898 183.123 101.331 182.349 100.928C181.576 100.513 180.673 100.306 179.642 100.306H176.161V109.924H179.642ZM195.922 106.948H188.523C188.59 107.867 188.943 108.612 189.582 109.184C190.221 109.744 191.029 110.025 192.004 110.025C192.553 110.025 193.058 109.929 193.517 109.739C193.977 109.537 194.375 109.246 194.711 108.865L195.384 109.638C194.991 110.109 194.498 110.468 193.904 110.714C193.321 110.961 192.676 111.084 191.97 111.084C191.062 111.084 190.255 110.894 189.549 110.512C188.854 110.12 188.31 109.582 187.918 108.898C187.525 108.214 187.329 107.441 187.329 106.578C187.329 105.715 187.514 104.941 187.884 104.257C188.265 103.573 188.781 103.041 189.431 102.66C190.092 102.279 190.832 102.088 191.651 102.088C192.469 102.088 193.203 102.279 193.853 102.66C194.504 103.041 195.014 103.573 195.384 104.257C195.754 104.93 195.938 105.703 195.938 106.578L195.922 106.948ZM191.651 103.114C190.799 103.114 190.081 103.388 189.498 103.938C188.927 104.476 188.602 105.182 188.523 106.056H194.795C194.717 105.182 194.386 104.476 193.803 103.938C193.231 103.388 192.514 103.114 191.651 103.114ZM202.69 110.462C202.466 110.664 202.185 110.821 201.849 110.933C201.524 111.034 201.182 111.084 200.823 111.084C199.994 111.084 199.355 110.86 198.907 110.411C198.458 109.963 198.234 109.33 198.234 108.511V103.164H196.653V102.155H198.234V100.222H199.428V102.155H202.118V103.164H199.428V108.444C199.428 108.971 199.557 109.375 199.815 109.655C200.084 109.924 200.465 110.058 200.958 110.058C201.205 110.058 201.44 110.019 201.664 109.941C201.9 109.862 202.101 109.75 202.27 109.604L202.69 110.462ZM207.621 102.088C208.776 102.088 209.661 102.38 210.278 102.962C210.894 103.534 211.203 104.386 211.203 105.518V111H210.059V109.621C209.79 110.081 209.392 110.44 208.865 110.697C208.35 110.955 207.733 111.084 207.016 111.084C206.029 111.084 205.244 110.849 204.661 110.378C204.079 109.907 203.787 109.285 203.787 108.511C203.787 107.76 204.056 107.155 204.594 106.695C205.144 106.236 206.012 106.006 207.201 106.006H210.009V105.468C210.009 104.706 209.796 104.128 209.37 103.736C208.944 103.332 208.322 103.131 207.503 103.131C206.943 103.131 206.405 103.226 205.889 103.416C205.373 103.596 204.931 103.848 204.561 104.173L204.023 103.282C204.471 102.901 205.009 102.609 205.637 102.408C206.265 102.195 206.926 102.088 207.621 102.088ZM207.201 110.142C207.873 110.142 208.45 109.991 208.932 109.688C209.415 109.375 209.773 108.926 210.009 108.343V106.897H207.234C205.721 106.897 204.964 107.424 204.964 108.478C204.964 108.993 205.16 109.403 205.553 109.705C205.945 109.997 206.494 110.142 207.201 110.142ZM214.109 102.155H215.303V111H214.109V102.155ZM214.714 100.222C214.468 100.222 214.26 100.138 214.092 99.9694C213.924 99.8012 213.84 99.5995 213.84 99.3641C213.84 99.1399 213.924 98.9437 214.092 98.7755C214.26 98.6074 214.468 98.5233 214.714 98.5233C214.961 98.5233 215.168 98.6074 215.336 98.7755C215.505 98.9325 215.589 99.123 215.589 99.3472C215.589 99.5939 215.505 99.8012 215.336 99.9694C215.168 100.138 214.961 100.222 214.714 100.222ZM218.288 98.5233H219.482V111H218.288V98.5233ZM224.839 111.084C224.121 111.084 223.432 110.983 222.77 110.781C222.12 110.568 221.61 110.305 221.24 109.991L221.778 109.049C222.148 109.341 222.613 109.582 223.174 109.773C223.734 109.952 224.317 110.042 224.923 110.042C225.73 110.042 226.324 109.918 226.705 109.672C227.097 109.414 227.294 109.055 227.294 108.595C227.294 108.27 227.187 108.018 226.974 107.839C226.761 107.648 226.492 107.508 226.167 107.418C225.842 107.318 225.41 107.222 224.872 107.133C224.155 106.998 223.578 106.864 223.14 106.729C222.703 106.583 222.328 106.342 222.014 106.006C221.711 105.67 221.56 105.204 221.56 104.61C221.56 103.87 221.868 103.265 222.485 102.794C223.101 102.323 223.959 102.088 225.057 102.088C225.629 102.088 226.201 102.167 226.772 102.323C227.344 102.469 227.815 102.665 228.185 102.912L227.664 103.87C226.935 103.366 226.066 103.114 225.057 103.114C224.295 103.114 223.718 103.248 223.325 103.517C222.944 103.786 222.754 104.14 222.754 104.577C222.754 104.913 222.86 105.182 223.073 105.384C223.297 105.586 223.572 105.737 223.897 105.838C224.222 105.927 224.67 106.023 225.242 106.124C225.948 106.258 226.515 106.393 226.941 106.527C227.366 106.662 227.731 106.892 228.033 107.217C228.336 107.542 228.487 107.99 228.487 108.562C228.487 109.335 228.162 109.952 227.512 110.411C226.873 110.86 225.982 111.084 224.839 111.084Z" fill="#173F5F"/>
<path d="M328.322 99.2295C329.825 99.2295 331.002 99.5883 331.854 100.306C332.706 101.023 333.131 102.01 333.131 103.265C333.131 104.521 332.706 105.507 331.854 106.225C331.002 106.931 329.825 107.284 328.322 107.284H325.161V111H323.917V99.2295H328.322ZM328.289 106.191C329.455 106.191 330.346 105.939 330.962 105.434C331.579 104.919 331.887 104.196 331.887 103.265C331.887 102.312 331.579 101.584 330.962 101.079C330.346 100.564 329.455 100.306 328.289 100.306H325.161V106.191H328.289ZM335.004 102.155H336.197V111H335.004V102.155ZM335.609 100.222C335.362 100.222 335.155 100.138 334.987 99.9694C334.819 99.8012 334.735 99.5995 334.735 99.3641C334.735 99.1399 334.819 98.9437 334.987 98.7755C335.155 98.6074 335.362 98.5233 335.609 98.5233C335.856 98.5233 336.063 98.6074 336.231 98.7755C336.399 98.9325 336.483 99.123 336.483 99.3472C336.483 99.5939 336.399 99.8012 336.231 99.9694C336.063 100.138 335.856 100.222 335.609 100.222ZM342.849 111.084C341.974 111.084 341.19 110.894 340.495 110.512C339.811 110.131 339.273 109.599 338.88 108.915C338.488 108.22 338.292 107.441 338.292 106.578C338.292 105.715 338.488 104.941 338.88 104.257C339.273 103.573 339.811 103.041 340.495 102.66C341.19 102.279 341.974 102.088 342.849 102.088C343.611 102.088 344.289 102.239 344.883 102.542C345.489 102.834 345.965 103.265 346.313 103.837L345.421 104.442C345.13 104.005 344.76 103.68 344.312 103.467C343.863 103.243 343.376 103.131 342.849 103.131C342.21 103.131 341.632 103.276 341.117 103.568C340.612 103.848 340.214 104.252 339.923 104.778C339.643 105.305 339.503 105.905 339.503 106.578C339.503 107.261 339.643 107.867 339.923 108.394C340.214 108.909 340.612 109.313 341.117 109.604C341.632 109.885 342.21 110.025 342.849 110.025C343.376 110.025 343.863 109.918 344.312 109.705C344.76 109.492 345.13 109.167 345.421 108.73L346.313 109.335C345.965 109.907 345.489 110.344 344.883 110.647C344.278 110.938 343.6 111.084 342.849 111.084ZM353.078 110.462C352.854 110.664 352.573 110.821 352.237 110.933C351.912 111.034 351.57 111.084 351.211 111.084C350.382 111.084 349.743 110.86 349.294 110.411C348.846 109.963 348.622 109.33 348.622 108.511V103.164H347.041V102.155H348.622V100.222H349.816V102.155H352.506V103.164H349.816V108.444C349.816 108.971 349.945 109.375 350.202 109.655C350.472 109.924 350.853 110.058 351.346 110.058C351.593 110.058 351.828 110.019 352.052 109.941C352.288 109.862 352.489 109.75 352.657 109.604L353.078 110.462ZM362.885 102.155V111H361.742V109.386C361.428 109.924 360.996 110.344 360.447 110.647C359.898 110.938 359.27 111.084 358.564 111.084C357.409 111.084 356.495 110.765 355.823 110.126C355.161 109.475 354.831 108.528 354.831 107.284V102.155H356.025V107.166C356.025 108.097 356.254 108.803 356.714 109.285C357.174 109.767 357.829 110.008 358.681 110.008C359.612 110.008 360.346 109.728 360.884 109.167C361.422 108.595 361.691 107.805 361.691 106.796V102.155H362.885ZM367.036 103.887C367.316 103.293 367.731 102.845 368.28 102.542C368.841 102.239 369.53 102.088 370.348 102.088V103.248L370.063 103.231C369.132 103.231 368.404 103.517 367.877 104.089C367.35 104.661 367.086 105.462 367.086 106.494V111H365.893V102.155H367.036V103.887ZM379.793 106.948H372.394C372.462 107.867 372.815 108.612 373.454 109.184C374.093 109.744 374.9 110.025 375.875 110.025C376.424 110.025 376.929 109.929 377.388 109.739C377.848 109.537 378.246 109.246 378.582 108.865L379.255 109.638C378.863 110.109 378.369 110.468 377.775 110.714C377.192 110.961 376.548 111.084 375.841 111.084C374.933 111.084 374.126 110.894 373.42 110.512C372.725 110.12 372.181 109.582 371.789 108.898C371.397 108.214 371.201 107.441 371.201 106.578C371.201 105.715 371.385 104.941 371.755 104.257C372.137 103.573 372.652 103.041 373.302 102.66C373.964 102.279 374.704 102.088 375.522 102.088C376.34 102.088 377.075 102.279 377.725 102.66C378.375 103.041 378.885 103.573 379.255 104.257C379.625 104.93 379.81 105.703 379.81 106.578L379.793 106.948ZM375.522 103.114C374.67 103.114 373.953 103.388 373.37 103.938C372.798 104.476 372.473 105.182 372.394 106.056H378.666C378.588 105.182 378.257 104.476 377.674 103.938C377.103 103.388 376.385 103.114 375.522 103.114Z" fill="#173F5F"/>
<path d="M456.917 99.2295H461.709C462.953 99.2295 464.052 99.4818 465.005 99.9862C465.958 100.479 466.698 101.174 467.224 102.071C467.751 102.957 468.015 103.971 468.015 105.115C468.015 106.258 467.751 107.278 467.224 108.175C466.698 109.061 465.958 109.756 465.005 110.26C464.052 110.753 462.953 111 461.709 111H456.917V99.2295ZM461.642 109.924C462.673 109.924 463.576 109.722 464.349 109.319C465.123 108.904 465.722 108.338 466.148 107.62C466.574 106.892 466.787 106.056 466.787 105.115C466.787 104.173 466.574 103.344 466.148 102.626C465.722 101.898 465.123 101.331 464.349 100.928C463.576 100.513 462.673 100.306 461.642 100.306H458.161V109.924H461.642ZM477.922 106.948H470.523C470.59 107.867 470.943 108.612 471.582 109.184C472.221 109.744 473.029 110.025 474.004 110.025C474.553 110.025 475.058 109.929 475.517 109.739C475.977 109.537 476.375 109.246 476.711 108.865L477.384 109.638C476.991 110.109 476.498 110.468 475.904 110.714C475.321 110.961 474.676 111.084 473.97 111.084C473.062 111.084 472.255 110.894 471.549 110.512C470.854 110.12 470.31 109.582 469.918 108.898C469.525 108.214 469.329 107.441 469.329 106.578C469.329 105.715 469.514 104.941 469.884 104.257C470.265 103.573 470.781 103.041 471.431 102.66C472.092 102.279 472.832 102.088 473.651 102.088C474.469 102.088 475.203 102.279 475.853 102.66C476.504 103.041 477.014 103.573 477.384 104.257C477.754 104.93 477.938 105.703 477.938 106.578L477.922 106.948ZM473.651 103.114C472.799 103.114 472.081 103.388 471.498 103.938C470.927 104.476 470.602 105.182 470.523 106.056H476.795C476.717 105.182 476.386 104.476 475.803 103.938C475.231 103.388 474.514 103.114 473.651 103.114ZM482.403 111.084C481.686 111.084 480.996 110.983 480.335 110.781C479.685 110.568 479.175 110.305 478.805 109.991L479.343 109.049C479.713 109.341 480.178 109.582 480.738 109.773C481.299 109.952 481.882 110.042 482.487 110.042C483.294 110.042 483.888 109.918 484.27 109.672C484.662 109.414 484.858 109.055 484.858 108.595C484.858 108.27 484.752 108.018 484.539 107.839C484.326 107.648 484.057 107.508 483.731 107.418C483.406 107.318 482.975 107.222 482.437 107.133C481.719 106.998 481.142 106.864 480.705 106.729C480.268 106.583 479.892 106.342 479.578 106.006C479.276 105.67 479.124 105.204 479.124 104.61C479.124 103.87 479.432 103.265 480.049 102.794C480.666 102.323 481.523 102.088 482.622 102.088C483.193 102.088 483.765 102.167 484.337 102.323C484.909 102.469 485.379 102.665 485.749 102.912L485.228 103.87C484.499 103.366 483.631 103.114 482.622 103.114C481.859 103.114 481.282 103.248 480.89 103.517C480.509 103.786 480.318 104.14 480.318 104.577C480.318 104.913 480.425 105.182 480.638 105.384C480.862 105.586 481.136 105.737 481.461 105.838C481.787 105.927 482.235 106.023 482.807 106.124C483.513 106.258 484.079 106.393 484.505 106.527C484.931 106.662 485.295 106.892 485.598 107.217C485.901 107.542 486.052 107.99 486.052 108.562C486.052 109.335 485.727 109.952 485.077 110.411C484.438 110.86 483.547 111.084 482.403 111.084ZM491.588 111.084C490.714 111.084 489.929 110.894 489.234 110.512C488.551 110.131 488.012 109.599 487.62 108.915C487.228 108.22 487.032 107.441 487.032 106.578C487.032 105.715 487.228 104.941 487.62 104.257C488.012 103.573 488.551 103.041 489.234 102.66C489.929 102.279 490.714 102.088 491.588 102.088C492.351 102.088 493.029 102.239 493.623 102.542C494.228 102.834 494.705 103.265 495.052 103.837L494.161 104.442C493.87 104.005 493.5 103.68 493.051 103.467C492.603 103.243 492.115 103.131 491.588 103.131C490.949 103.131 490.372 103.276 489.856 103.568C489.352 103.848 488.954 104.252 488.663 104.778C488.382 105.305 488.242 105.905 488.242 106.578C488.242 107.261 488.382 107.867 488.663 108.394C488.954 108.909 489.352 109.313 489.856 109.604C490.372 109.885 490.949 110.025 491.588 110.025C492.115 110.025 492.603 109.918 493.051 109.705C493.5 109.492 493.87 109.167 494.161 108.73L495.052 109.335C494.705 109.907 494.228 110.344 493.623 110.647C493.018 110.938 492.339 111.084 491.588 111.084ZM498.205 103.887C498.485 103.293 498.9 102.845 499.449 102.542C500.009 102.239 500.699 102.088 501.517 102.088V103.248L501.231 103.231C500.301 103.231 499.572 103.517 499.045 104.089C498.519 104.661 498.255 105.462 498.255 106.494V111H497.061V102.155H498.205V103.887ZM503.343 102.155H504.536V111H503.343V102.155ZM503.948 100.222C503.701 100.222 503.494 100.138 503.326 99.9694C503.158 99.8012 503.074 99.5995 503.074 99.3641C503.074 99.1399 503.158 98.9437 503.326 98.7755C503.494 98.6074 503.701 98.5233 503.948 98.5233C504.195 98.5233 504.402 98.6074 504.57 98.7755C504.738 98.9325 504.822 99.123 504.822 99.3472C504.822 99.5939 504.738 99.8012 504.57 99.9694C504.402 100.138 504.195 100.222 503.948 100.222ZM512.079 102.088C512.908 102.088 513.659 102.279 514.332 102.66C515.005 103.03 515.532 103.557 515.913 104.24C516.294 104.924 516.484 105.703 516.484 106.578C516.484 107.463 516.294 108.248 515.913 108.932C515.532 109.616 515.005 110.148 514.332 110.529C513.671 110.899 512.92 111.084 512.079 111.084C511.361 111.084 510.711 110.938 510.128 110.647C509.557 110.344 509.086 109.907 508.716 109.335V114.262H507.522V102.155H508.665V103.904C509.024 103.321 509.495 102.873 510.078 102.559C510.672 102.245 511.339 102.088 512.079 102.088ZM511.995 110.025C512.611 110.025 513.172 109.885 513.676 109.604C514.181 109.313 514.573 108.904 514.853 108.377C515.145 107.85 515.291 107.25 515.291 106.578C515.291 105.905 515.145 105.311 514.853 104.795C514.573 104.268 514.181 103.859 513.676 103.568C513.172 103.276 512.611 103.131 511.995 103.131C511.367 103.131 510.801 103.276 510.296 103.568C509.803 103.859 509.411 104.268 509.119 104.795C508.839 105.311 508.699 105.905 508.699 106.578C508.699 107.25 508.839 107.85 509.119 108.377C509.411 108.904 509.803 109.313 510.296 109.604C510.801 109.885 511.367 110.025 511.995 110.025ZM523.24 110.462C523.015 110.664 522.735 110.821 522.399 110.933C522.074 111.034 521.732 111.084 521.373 111.084C520.544 111.084 519.905 110.86 519.456 110.411C519.008 109.963 518.784 109.33 518.784 108.511V103.164H517.203V102.155H518.784V100.222H519.977V102.155H522.668V103.164H519.977V108.444C519.977 108.971 520.106 109.375 520.364 109.655C520.633 109.924 521.014 110.058 521.508 110.058C521.754 110.058 521.99 110.019 522.214 109.941C522.449 109.862 522.651 109.75 522.819 109.604L523.24 110.462ZM525.077 102.155H526.27V111H525.077V102.155ZM525.682 100.222C525.435 100.222 525.228 100.138 525.06 99.9694C524.892 99.8012 524.808 99.5995 524.808 99.3641C524.808 99.1399 524.892 98.9437 525.06 98.7755C525.228 98.6074 525.435 98.5233 525.682 98.5233C525.929 98.5233 526.136 98.6074 526.304 98.7755C526.472 98.9325 526.556 99.123 526.556 99.3472C526.556 99.5939 526.472 99.8012 526.304 99.9694C526.136 100.138 525.929 100.222 525.682 100.222ZM532.871 111.084C532.019 111.084 531.251 110.894 530.568 110.512C529.884 110.12 529.346 109.582 528.953 108.898C528.561 108.214 528.365 107.441 528.365 106.578C528.365 105.715 528.561 104.941 528.953 104.257C529.346 103.573 529.884 103.041 530.568 102.66C531.251 102.279 532.019 102.088 532.871 102.088C533.723 102.088 534.491 102.279 535.175 102.66C535.859 103.041 536.391 103.573 536.772 104.257C537.165 104.941 537.361 105.715 537.361 106.578C537.361 107.441 537.165 108.214 536.772 108.898C536.391 109.582 535.859 110.12 535.175 110.512C534.491 110.894 533.723 111.084 532.871 111.084ZM532.871 110.025C533.499 110.025 534.059 109.885 534.553 109.604C535.057 109.313 535.449 108.904 535.73 108.377C536.01 107.85 536.15 107.25 536.15 106.578C536.15 105.905 536.01 105.305 535.73 104.778C535.449 104.252 535.057 103.848 534.553 103.568C534.059 103.276 533.499 103.131 532.871 103.131C532.243 103.131 531.677 103.276 531.173 103.568C530.68 103.848 530.287 104.252 529.996 104.778C529.716 105.305 529.575 105.905 529.575 106.578C529.575 107.25 529.716 107.85 529.996 108.377C530.287 108.904 530.68 109.313 531.173 109.604C531.677 109.885 532.243 110.025 532.871 110.025ZM543.968 102.088C545.078 102.088 545.958 102.413 546.608 103.063C547.27 103.702 547.6 104.638 547.6 105.871V111H546.406V105.989C546.406 105.07 546.177 104.369 545.717 103.887C545.257 103.405 544.602 103.164 543.75 103.164C542.797 103.164 542.04 103.45 541.48 104.022C540.93 104.582 540.656 105.361 540.656 106.359V111H539.462V102.155H540.605V103.786C540.93 103.248 541.379 102.834 541.95 102.542C542.533 102.239 543.206 102.088 543.968 102.088Z" fill="#173F5F"/>
<path d="M625.162 111.101C624.288 111.101 623.447 110.961 622.64 110.681C621.844 110.4 621.227 110.03 620.79 109.571L621.278 108.612C621.704 109.038 622.27 109.386 622.976 109.655C623.682 109.913 624.411 110.042 625.162 110.042C626.216 110.042 627.006 109.851 627.533 109.47C628.06 109.077 628.323 108.573 628.323 107.956C628.323 107.486 628.178 107.11 627.886 106.83C627.606 106.55 627.258 106.337 626.844 106.191C626.429 106.034 625.852 105.866 625.112 105.686C624.226 105.462 623.52 105.249 622.993 105.048C622.466 104.835 622.012 104.515 621.631 104.089C621.261 103.663 621.076 103.086 621.076 102.357C621.076 101.763 621.233 101.225 621.547 100.743C621.861 100.25 622.343 99.8573 622.993 99.5658C623.643 99.2744 624.45 99.1286 625.414 99.1286C626.087 99.1286 626.743 99.2239 627.382 99.4145C628.032 99.5939 628.592 99.8461 629.063 100.171L628.643 101.163C628.15 100.838 627.623 100.597 627.062 100.44C626.502 100.272 625.952 100.188 625.414 100.188C624.383 100.188 623.604 100.39 623.077 100.793C622.561 101.186 622.304 101.696 622.304 102.323C622.304 102.794 622.444 103.175 622.724 103.467C623.015 103.747 623.374 103.966 623.8 104.123C624.237 104.268 624.82 104.431 625.549 104.61C626.412 104.823 627.107 105.036 627.634 105.249C628.172 105.451 628.626 105.765 628.996 106.191C629.366 106.606 629.551 107.172 629.551 107.889C629.551 108.483 629.388 109.027 629.063 109.52C628.749 110.002 628.262 110.389 627.6 110.681C626.939 110.961 626.126 111.101 625.162 111.101ZM639.644 102.155V111H638.5V109.386C638.187 109.924 637.755 110.344 637.206 110.647C636.656 110.938 636.029 111.084 635.322 111.084C634.168 111.084 633.254 110.765 632.582 110.126C631.92 109.475 631.589 108.528 631.589 107.284V102.155H632.783V107.166C632.783 108.097 633.013 108.803 633.473 109.285C633.932 109.767 634.588 110.008 635.44 110.008C636.37 110.008 637.105 109.728 637.643 109.167C638.181 108.595 638.45 107.805 638.45 106.796V102.155H639.644ZM647.208 102.088C648.038 102.088 648.789 102.279 649.461 102.66C650.134 103.03 650.661 103.557 651.042 104.24C651.423 104.924 651.614 105.703 651.614 106.578C651.614 107.452 651.423 108.231 651.042 108.915C650.661 109.599 650.134 110.131 649.461 110.512C648.789 110.894 648.038 111.084 647.208 111.084C646.468 111.084 645.801 110.927 645.207 110.613C644.624 110.299 644.153 109.845 643.795 109.251V111H642.651V98.5233H643.845V103.837C644.215 103.265 644.686 102.834 645.257 102.542C645.84 102.239 646.491 102.088 647.208 102.088ZM647.124 110.025C647.741 110.025 648.301 109.885 648.805 109.604C649.31 109.313 649.702 108.904 649.982 108.377C650.274 107.85 650.42 107.25 650.42 106.578C650.42 105.905 650.274 105.305 649.982 104.778C649.702 104.252 649.31 103.848 648.805 103.568C648.301 103.276 647.741 103.131 647.124 103.131C646.496 103.131 645.93 103.276 645.426 103.568C644.932 103.848 644.54 104.252 644.249 104.778C643.968 105.305 643.828 105.905 643.828 106.578C643.828 107.25 643.968 107.85 644.249 108.377C644.54 108.904 644.932 109.313 645.426 109.604C645.93 109.885 646.496 110.025 647.124 110.025ZM664.742 102.088C665.851 102.088 666.72 102.408 667.348 103.047C667.987 103.685 668.306 104.627 668.306 105.871V111H667.112V105.989C667.112 105.07 666.888 104.369 666.44 103.887C666.003 103.405 665.381 103.164 664.573 103.164C663.654 103.164 662.931 103.45 662.404 104.022C661.877 104.582 661.614 105.361 661.614 106.359V111H660.42V105.989C660.42 105.07 660.196 104.369 659.748 103.887C659.31 103.405 658.683 103.164 657.864 103.164C656.956 103.164 656.233 103.45 655.695 104.022C655.168 104.582 654.905 105.361 654.905 106.359V111H653.711V102.155H654.854V103.77C655.168 103.231 655.605 102.817 656.166 102.525C656.726 102.234 657.371 102.088 658.1 102.088C658.84 102.088 659.478 102.245 660.017 102.559C660.566 102.873 660.975 103.338 661.244 103.955C661.569 103.372 662.034 102.918 662.64 102.593C663.256 102.256 663.957 102.088 664.742 102.088ZM671.208 102.155H672.402V111H671.208V102.155ZM671.813 100.222C671.566 100.222 671.359 100.138 671.191 99.9694C671.023 99.8012 670.939 99.5995 670.939 99.3641C670.939 99.1399 671.023 98.9437 671.191 98.7755C671.359 98.6074 671.566 98.5233 671.813 98.5233C672.06 98.5233 672.267 98.6074 672.435 98.7755C672.603 98.9325 672.687 99.123 672.687 99.3472C672.687 99.5939 672.603 99.8012 672.435 99.9694C672.267 100.138 672.06 100.222 671.813 100.222ZM680.045 110.462C679.821 110.664 679.54 110.821 679.204 110.933C678.879 111.034 678.537 111.084 678.178 111.084C677.349 111.084 676.71 110.86 676.261 110.411C675.813 109.963 675.589 109.33 675.589 108.511V103.164H674.008V102.155H675.589V100.222H676.783V102.155H679.473V103.164H676.783V108.444C676.783 108.971 676.912 109.375 677.17 109.655C677.439 109.924 677.82 110.058 678.313 110.058C678.56 110.058 678.795 110.019 679.019 109.941C679.255 109.862 679.456 109.75 679.624 109.604L680.045 110.462Z" fill="#173F5F"/>
<line x1="91" y1="38.5" x2="161" y2="38.5" stroke="#173F5F" stroke-width="3"/>
<line x1="241" y1="38.5" x2="311" y2="38.5" stroke="#173F5F" stroke-width="3"/>
<line x1="391" y1="38.5" x2="461" y2="38.5" stroke="#173F5F" stroke-width="3"/>
<line x1="541" y1="38.5" x2="611" y2="38.5" stroke="#173F5F" stroke-width="3"/>
<path fill-rule="evenodd" clip-rule="evenodd" d="M63.2518 13.2639C57.5642 10.6968 51.2098 10.0608 45.1362 11.4509C39.0626 12.8409 33.5953 16.1826 29.5497 20.9774C25.5041 25.7722 23.097 31.7633 22.6873 38.0572C22.2776 44.351 23.8873 50.6104 27.2763 55.9019C30.6654 61.1933 35.6522 65.2332 41.493 67.4191C47.3338 69.605 53.7156 69.8198 59.6868 68.0313C65.6579 66.2429 70.8984 62.5472 74.6266 57.4953C78.3549 52.4434 80.3711 46.306 80.3747 39.9984V37.0103C80.3747 35.2154 81.8111 33.7603 83.583 33.7603C85.3549 33.7603 86.7914 35.2154 86.7914 37.0103V40.0003C86.787 47.7095 84.3227 55.2126 79.7659 61.3872C75.2092 67.5617 68.8042 72.0788 61.5061 74.2646C54.2081 76.4504 46.408 76.1879 39.2692 73.5163C32.1305 70.8446 26.0355 65.907 21.8934 59.4397C17.7512 52.9724 15.7838 45.322 16.2845 37.6295C16.7852 29.937 19.7273 22.6145 24.6719 16.7542C29.6166 10.8939 36.2988 6.80964 43.7221 5.11067C51.1453 3.4117 58.9119 4.18901 65.8634 7.32665C67.4819 8.05719 68.2094 9.97851 67.4882 11.618C66.767 13.2576 64.8703 13.9945 63.2518 13.2639Z" fill="#F1F9FF"/>
<path fill-rule="evenodd" clip-rule="evenodd" d="M85.8505 11.7011C87.1041 12.9696 87.1051 15.0274 85.8528 16.2972L53.7695 48.8297C53.1679 49.4397 52.3517 49.7826 51.5005 49.7828C50.6493 49.783 49.8329 49.4406 49.2311 48.8309L39.6061 39.0809C38.3531 37.8117 38.3531 35.7539 39.6061 34.4847C40.859 33.2155 42.8904 33.2155 44.1433 34.4847L51.4986 41.9355L81.3133 11.7033C82.5656 10.4335 84.597 10.4325 85.8505 11.7011Z" fill="#F1F9FF"/>
<path fill-rule="evenodd" clip-rule="evenodd" d="M213.252 13.2639C207.564 10.6968 201.21 10.0608 195.136 11.4509C189.063 12.8409 183.595 16.1826 179.55 20.9774C175.504 25.7722 173.097 31.7633 172.687 38.0572C172.278 44.351 173.887 50.6104 177.276 55.9019C180.665 61.1933 185.652 65.2332 191.493 67.4191C197.334 69.605 203.716 69.8198 209.687 68.0313C215.658 66.2429 220.898 62.5472 224.627 57.4953C228.355 52.4434 230.371 46.306 230.375 39.9984V37.0103C230.375 35.2154 231.811 33.7603 233.583 33.7603C235.355 33.7603 236.791 35.2154 236.791 37.0103V40.0003C236.787 47.7095 234.323 55.2126 229.766 61.3872C225.209 67.5617 218.804 72.0788 211.506 74.2646C204.208 76.4504 196.408 76.1879 189.269 73.5163C182.13 70.8446 176.036 65.907 171.893 59.4397C167.751 52.9724 165.784 45.322 166.285 37.6295C166.785 29.937 169.727 22.6145 174.672 16.7542C179.617 10.8939 186.299 6.80964 193.722 5.11067C201.145 3.4117 208.912 4.18901 215.863 7.32665C217.482 8.05719 218.209 9.97851 217.488 11.618C216.767 13.2576 214.87 13.9945 213.252 13.2639Z" fill="#F1F9FF"/>
<path fill-rule="evenodd" clip-rule="evenodd" d="M235.851 11.7011C237.104 12.9696 237.105 15.0274 235.853 16.2972L203.769 48.8297C203.168 49.4397 202.352 49.7826 201.5 49.7828C200.649 49.783 199.833 49.4406 199.231 48.8309L189.606 39.0809C188.353 37.8117 188.353 35.7539 189.606 34.4847C190.859 33.2155 192.89 33.2155 194.143 34.4847L201.499 41.9355L231.313 11.7033C232.566 10.4335 234.597 10.4325 235.851 11.7011Z" fill="#F1F9FF"/>
<path fill-rule="evenodd" clip-rule="evenodd" d="M363.252 13.2639C357.564 10.6968 351.21 10.0608 345.136 11.4509C339.063 12.8409 333.595 16.1826 329.55 20.9774C325.504 25.7722 323.097 31.7633 322.687 38.0572C322.278 44.351 323.887 50.6104 327.276 55.9019C330.665 61.1933 335.652 65.2332 341.493 67.4191C347.334 69.605 353.716 69.8198 359.687 68.0313C365.658 66.2429 370.898 62.5472 374.627 57.4953C378.355 52.4434 380.371 46.306 380.375 39.9984V37.0103C380.375 35.2154 381.811 33.7603 383.583 33.7603C385.355 33.7603 386.791 35.2154 386.791 37.0103V40.0003C386.787 47.7095 384.323 55.2126 379.766 61.3872C375.209 67.5617 368.804 72.0788 361.506 74.2646C354.208 76.4504 346.408 76.1879 339.269 73.5163C332.13 70.8446 326.036 65.907 321.893 59.4397C317.751 52.9724 315.784 45.322 316.285 37.6295C316.785 29.937 319.727 22.6145 324.672 16.7542C329.617 10.8939 336.299 6.80964 343.722 5.11067C351.145 3.4117 358.912 4.18901 365.863 7.32665C367.482 8.05719 368.209 9.97851 367.488 11.618C366.767 13.2576 364.87 13.9945 363.252 13.2639Z" fill="#F1F9FF"/>
<path fill-rule="evenodd" clip-rule="evenodd" d="M385.851 11.7011C387.104 12.9696 387.105 15.0274 385.853 16.2972L353.769 48.8297C353.168 49.4397 352.352 49.7826 351.5 49.7828C350.649 49.783 349.833 49.4406 349.231 48.8309L339.606 39.0809C338.353 37.8117 338.353 35.7539 339.606 34.4847C340.859 33.2155 342.89 33.2155 344.143 34.4847L351.499 41.9355L381.313 11.7033C382.566 10.4335 384.597 10.4325 385.851 11.7011Z" fill="#F1F9FF"/>
</svg>
