<svg width="541" height="120" viewBox="0 0 541 120" fill="none" xmlns="http://www.w3.org/2000/svg">
<circle cx="51" cy="40" r="40" fill="#B6DBFA"/>
<circle cx="201" cy="40" r="40" fill="#B6DBFA"/>
<circle cx="351" cy="40" r="40" fill="#B6DBFA"/>
<circle cx="501" cy="40" r="40" fill="#C4C4C4"/>
<path d="M501.538 48.6865H492.752V44.5027L501.119 24.7132H506.14V44.5027H508.316V48.6865H506.14V54H501.538V48.6865ZM501.538 44.5027V33.0809H501.454L496.936 44.5027H501.538Z" fill="#173F5F"/>
<path d="M5.98139 100.23H7.2257V112H5.98139V100.23ZM14.9733 103.088C16.0831 103.088 16.9631 103.413 17.6133 104.063C18.2747 104.702 18.6053 105.638 18.6053 106.871V112H17.4115V106.989C17.4115 106.07 17.1817 105.369 16.7221 104.887C16.2625 104.405 15.6067 104.164 14.7547 104.164C13.8019 104.164 13.0452 104.45 12.4847 105.022C11.9354 105.582 11.6608 106.361 11.6608 107.359V112H10.4669V103.155H11.6103V104.786C11.9354 104.248 12.3838 103.834 12.9555 103.542C13.5384 103.239 14.211 103.088 14.9733 103.088ZM24.4361 100.448C23.9204 100.448 23.5281 100.588 23.259 100.869C23.0012 101.149 22.8723 101.564 22.8723 102.113V103.155H25.5963V104.164H22.9059V112H21.712V104.164H20.1314V103.155H21.712V102.062C21.712 101.255 21.9418 100.616 22.4015 100.145C22.8723 99.6746 23.5337 99.4392 24.3856 99.4392C24.7219 99.4392 25.047 99.4897 25.3609 99.5906C25.6748 99.6802 25.9382 99.8148 26.1512 99.9941L25.7476 100.885C25.4001 100.594 24.9629 100.448 24.4361 100.448ZM30.3394 112.084C29.4875 112.084 28.7196 111.894 28.0358 111.512C27.352 111.12 26.8139 110.582 26.4215 109.898C26.0292 109.214 25.833 108.441 25.833 107.578C25.833 106.715 26.0292 105.941 26.4215 105.257C26.8139 104.573 27.352 104.041 28.0358 103.66C28.7196 103.279 29.4875 103.088 30.3394 103.088C31.1914 103.088 31.9593 103.279 32.6431 103.66C33.3269 104.041 33.8593 104.573 34.2405 105.257C34.6328 105.941 34.829 106.715 34.829 107.578C34.829 108.441 34.6328 109.214 34.2405 109.898C33.8593 110.582 33.3269 111.12 32.6431 111.512C31.9593 111.894 31.1914 112.084 30.3394 112.084ZM30.3394 111.025C30.9672 111.025 31.5277 110.885 32.0209 110.604C32.5254 110.313 32.9177 109.904 33.198 109.377C33.4782 108.85 33.6183 108.25 33.6183 107.578C33.6183 106.905 33.4782 106.305 33.198 105.778C32.9177 105.252 32.5254 104.848 32.0209 104.568C31.5277 104.276 30.9672 104.131 30.3394 104.131C29.7117 104.131 29.1456 104.276 28.6411 104.568C28.1479 104.848 27.7555 105.252 27.4641 105.778C27.1838 106.305 27.0437 106.905 27.0437 107.578C27.0437 108.25 27.1838 108.85 27.4641 109.377C27.7555 109.904 28.1479 110.313 28.6411 110.604C29.1456 110.885 29.7117 111.025 30.3394 111.025ZM38.0735 104.887C38.3538 104.293 38.7685 103.845 39.3178 103.542C39.8783 103.239 40.5677 103.088 41.3861 103.088V104.248L41.1002 104.231C40.1698 104.231 39.4411 104.517 38.9143 105.089C38.3874 105.661 38.124 106.462 38.124 107.494V112H36.9301V103.155H38.0735V104.887ZM54.242 103.088C55.3518 103.088 56.2206 103.408 56.8483 104.047C57.4873 104.685 57.8068 105.627 57.8068 106.871V112H56.6129V106.989C56.6129 106.07 56.3887 105.369 55.9403 104.887C55.5031 104.405 54.881 104.164 54.0739 104.164C53.1546 104.164 52.4316 104.45 51.9047 105.022C51.3779 105.582 51.1144 106.361 51.1144 107.359V112H49.9206V106.989C49.9206 106.07 49.6964 105.369 49.248 104.887C48.8108 104.405 48.183 104.164 47.3647 104.164C46.4567 104.164 45.7336 104.45 45.1956 105.022C44.6687 105.582 44.4053 106.361 44.4053 107.359V112H43.2114V103.155H44.3548V104.77C44.6687 104.231 45.1059 103.817 45.6664 103.525C46.2269 103.234 46.8714 103.088 47.6001 103.088C48.34 103.088 48.9789 103.245 49.517 103.559C50.0663 103.873 50.4755 104.338 50.7445 104.955C51.0696 104.372 51.5348 103.918 52.1401 103.593C52.7567 103.256 53.4573 103.088 54.242 103.088ZM63.8021 103.088C64.9567 103.088 65.8423 103.38 66.4588 103.962C67.0754 104.534 67.3837 105.386 67.3837 106.518V112H66.2403V110.621C65.9712 111.081 65.5733 111.44 65.0464 111.697C64.5307 111.955 63.9142 112.084 63.1967 112.084C62.2103 112.084 61.4256 111.849 60.8427 111.378C60.2597 110.907 59.9683 110.285 59.9683 109.511C59.9683 108.76 60.2373 108.155 60.7754 107.695C61.3247 107.236 62.1935 107.006 63.3817 107.006H66.1898V106.468C66.1898 105.706 65.9768 105.128 65.5508 104.736C65.1249 104.332 64.5027 104.131 63.6844 104.131C63.1239 104.131 62.5858 104.226 62.0701 104.416C61.5545 104.596 61.1117 104.848 60.7418 105.173L60.2037 104.282C60.6521 103.901 61.1902 103.609 61.8179 103.408C62.4457 103.195 63.1071 103.088 63.8021 103.088ZM63.3817 111.142C64.0543 111.142 64.6316 110.991 65.1137 110.688C65.5957 110.375 65.9544 109.926 66.1898 109.343V107.897H63.4153C61.902 107.897 61.1453 108.424 61.1453 109.478C61.1453 109.993 61.3415 110.403 61.7338 110.705C62.1262 110.997 62.6755 111.142 63.3817 111.142ZM74.9478 111.462C74.7236 111.664 74.4433 111.821 74.107 111.933C73.7819 112.034 73.44 112.084 73.0813 112.084C72.2518 112.084 71.6128 111.86 71.1644 111.411C70.716 110.963 70.4918 110.33 70.4918 109.511V104.164H68.9112V103.155H70.4918V101.222H71.6857V103.155H74.3761V104.164H71.6857V109.444C71.6857 109.971 71.8146 110.375 72.0724 110.655C72.3415 110.924 72.7226 111.058 73.2158 111.058C73.4625 111.058 73.6979 111.019 73.9221 110.941C74.1575 110.862 74.3592 110.75 74.5274 110.604L74.9478 111.462ZM76.7848 103.155H77.9787V112H76.7848V103.155ZM77.3901 101.222C77.1435 101.222 76.9361 101.138 76.768 100.969C76.5998 100.801 76.5158 100.599 76.5158 100.364C76.5158 100.14 76.5998 99.9437 76.768 99.7755C76.9361 99.6074 77.1435 99.5233 77.3901 99.5233C77.6368 99.5233 77.8441 99.6074 78.0123 99.7755C78.1804 99.9325 78.2645 100.123 78.2645 100.347C78.2645 100.594 78.1804 100.801 78.0123 100.969C77.8441 101.138 77.6368 101.222 77.3901 101.222ZM84.5794 112.084C83.7275 112.084 82.9596 111.894 82.2758 111.512C81.592 111.12 81.0539 110.582 80.6616 109.898C80.2692 109.214 80.073 108.441 80.073 107.578C80.073 106.715 80.2692 105.941 80.6616 105.257C81.0539 104.573 81.592 104.041 82.2758 103.66C82.9596 103.279 83.7275 103.088 84.5794 103.088C85.4314 103.088 86.1993 103.279 86.8831 103.66C87.5669 104.041 88.0994 104.573 88.4805 105.257C88.8729 105.941 89.069 106.715 89.069 107.578C89.069 108.441 88.8729 109.214 88.4805 109.898C88.0994 110.582 87.5669 111.12 86.8831 111.512C86.1993 111.894 85.4314 112.084 84.5794 112.084ZM84.5794 111.025C85.2072 111.025 85.7677 110.885 86.2609 110.604C86.7654 110.313 87.1577 109.904 87.438 109.377C87.7182 108.85 87.8584 108.25 87.8584 107.578C87.8584 106.905 87.7182 106.305 87.438 105.778C87.1577 105.252 86.7654 104.848 86.2609 104.568C85.7677 104.276 85.2072 104.131 84.5794 104.131C83.9517 104.131 83.3856 104.276 82.8811 104.568C82.3879 104.848 81.9955 105.252 81.7041 105.778C81.4238 106.305 81.2837 106.905 81.2837 107.578C81.2837 108.25 81.4238 108.85 81.7041 109.377C81.9955 109.904 82.3879 110.313 82.8811 110.604C83.3856 110.885 83.9517 111.025 84.5794 111.025ZM95.6765 103.088C96.7863 103.088 97.6663 103.413 98.3165 104.063C98.9779 104.702 99.3086 105.638 99.3086 106.871V112H98.1147V106.989C98.1147 106.07 97.8849 105.369 97.4253 104.887C96.9657 104.405 96.3099 104.164 95.4579 104.164C94.5051 104.164 93.7484 104.45 93.1879 105.022C92.6386 105.582 92.364 106.361 92.364 107.359V112H91.1701V103.155H92.3135V104.786C92.6386 104.248 93.087 103.834 93.6587 103.542C94.2417 103.239 94.9142 103.088 95.6765 103.088Z" fill="#173F5F"/>
<path d="M174.917 100.23H179.709C180.953 100.23 182.052 100.482 183.005 100.986C183.958 101.479 184.698 102.174 185.224 103.071C185.751 103.957 186.015 104.971 186.015 106.115C186.015 107.258 185.751 108.278 185.224 109.175C184.698 110.061 183.958 110.756 183.005 111.26C182.052 111.753 180.953 112 179.709 112H174.917V100.23ZM179.642 110.924C180.673 110.924 181.576 110.722 182.349 110.319C183.123 109.904 183.722 109.338 184.148 108.62C184.574 107.892 184.787 107.056 184.787 106.115C184.787 105.173 184.574 104.344 184.148 103.626C183.722 102.898 183.123 102.331 182.349 101.928C181.576 101.513 180.673 101.306 179.642 101.306H176.161V110.924H179.642ZM195.922 107.948H188.523C188.59 108.867 188.943 109.612 189.582 110.184C190.221 110.744 191.029 111.025 192.004 111.025C192.553 111.025 193.058 110.929 193.517 110.739C193.977 110.537 194.375 110.246 194.711 109.865L195.384 110.638C194.991 111.109 194.498 111.468 193.904 111.714C193.321 111.961 192.676 112.084 191.97 112.084C191.062 112.084 190.255 111.894 189.549 111.512C188.854 111.12 188.31 110.582 187.918 109.898C187.525 109.214 187.329 108.441 187.329 107.578C187.329 106.715 187.514 105.941 187.884 105.257C188.265 104.573 188.781 104.041 189.431 103.66C190.092 103.279 190.832 103.088 191.651 103.088C192.469 103.088 193.203 103.279 193.853 103.66C194.504 104.041 195.014 104.573 195.384 105.257C195.754 105.93 195.938 106.703 195.938 107.578L195.922 107.948ZM191.651 104.114C190.799 104.114 190.081 104.388 189.498 104.938C188.927 105.476 188.602 106.182 188.523 107.056H194.795C194.717 106.182 194.386 105.476 193.803 104.938C193.231 104.388 192.514 104.114 191.651 104.114ZM202.69 111.462C202.466 111.664 202.185 111.821 201.849 111.933C201.524 112.034 201.182 112.084 200.823 112.084C199.994 112.084 199.355 111.86 198.907 111.411C198.458 110.963 198.234 110.33 198.234 109.511V104.164H196.653V103.155H198.234V101.222H199.428V103.155H202.118V104.164H199.428V109.444C199.428 109.971 199.557 110.375 199.815 110.655C200.084 110.924 200.465 111.058 200.958 111.058C201.205 111.058 201.44 111.019 201.664 110.941C201.9 110.862 202.101 110.75 202.27 110.604L202.69 111.462ZM207.621 103.088C208.776 103.088 209.661 103.38 210.278 103.962C210.894 104.534 211.203 105.386 211.203 106.518V112H210.059V110.621C209.79 111.081 209.392 111.44 208.865 111.697C208.35 111.955 207.733 112.084 207.016 112.084C206.029 112.084 205.244 111.849 204.661 111.378C204.079 110.907 203.787 110.285 203.787 109.511C203.787 108.76 204.056 108.155 204.594 107.695C205.144 107.236 206.012 107.006 207.201 107.006H210.009V106.468C210.009 105.706 209.796 105.128 209.37 104.736C208.944 104.332 208.322 104.131 207.503 104.131C206.943 104.131 206.405 104.226 205.889 104.416C205.373 104.596 204.931 104.848 204.561 105.173L204.023 104.282C204.471 103.901 205.009 103.609 205.637 103.408C206.265 103.195 206.926 103.088 207.621 103.088ZM207.201 111.142C207.873 111.142 208.45 110.991 208.932 110.688C209.415 110.375 209.773 109.926 210.009 109.343V107.897H207.234C205.721 107.897 204.964 108.424 204.964 109.478C204.964 109.993 205.16 110.403 205.553 110.705C205.945 110.997 206.494 111.142 207.201 111.142ZM214.109 103.155H215.303V112H214.109V103.155ZM214.714 101.222C214.468 101.222 214.26 101.138 214.092 100.969C213.924 100.801 213.84 100.599 213.84 100.364C213.84 100.14 213.924 99.9437 214.092 99.7755C214.26 99.6074 214.468 99.5233 214.714 99.5233C214.961 99.5233 215.168 99.6074 215.336 99.7755C215.505 99.9325 215.589 100.123 215.589 100.347C215.589 100.594 215.505 100.801 215.336 100.969C215.168 101.138 214.961 101.222 214.714 101.222ZM218.288 99.5233H219.482V112H218.288V99.5233ZM224.839 112.084C224.121 112.084 223.432 111.983 222.77 111.781C222.12 111.568 221.61 111.305 221.24 110.991L221.778 110.049C222.148 110.341 222.613 110.582 223.174 110.773C223.734 110.952 224.317 111.042 224.923 111.042C225.73 111.042 226.324 110.918 226.705 110.672C227.097 110.414 227.294 110.055 227.294 109.595C227.294 109.27 227.187 109.018 226.974 108.839C226.761 108.648 226.492 108.508 226.167 108.418C225.842 108.318 225.41 108.222 224.872 108.133C224.155 107.998 223.578 107.864 223.14 107.729C222.703 107.583 222.328 107.342 222.014 107.006C221.711 106.67 221.56 106.204 221.56 105.61C221.56 104.87 221.868 104.265 222.485 103.794C223.101 103.323 223.959 103.088 225.057 103.088C225.629 103.088 226.201 103.167 226.772 103.323C227.344 103.469 227.815 103.665 228.185 103.912L227.664 104.87C226.935 104.366 226.066 104.114 225.057 104.114C224.295 104.114 223.718 104.248 223.325 104.517C222.944 104.786 222.754 105.14 222.754 105.577C222.754 105.913 222.86 106.182 223.073 106.384C223.297 106.586 223.572 106.737 223.897 106.838C224.222 106.927 224.67 107.023 225.242 107.124C225.948 107.258 226.515 107.393 226.941 107.527C227.366 107.662 227.731 107.892 228.033 108.217C228.336 108.542 228.487 108.99 228.487 109.562C228.487 110.335 228.162 110.952 227.512 111.411C226.873 111.86 225.982 112.084 224.839 112.084Z" fill="#173F5F"/>
<path d="M328.322 100.23C329.825 100.23 331.002 100.588 331.854 101.306C332.706 102.023 333.131 103.01 333.131 104.265C333.131 105.521 332.706 106.507 331.854 107.225C331.002 107.931 329.825 108.284 328.322 108.284H325.161V112H323.917V100.23H328.322ZM328.289 107.191C329.455 107.191 330.346 106.939 330.962 106.434C331.579 105.919 331.887 105.196 331.887 104.265C331.887 103.312 331.579 102.584 330.962 102.079C330.346 101.564 329.455 101.306 328.289 101.306H325.161V107.191H328.289ZM335.004 103.155H336.197V112H335.004V103.155ZM335.609 101.222C335.362 101.222 335.155 101.138 334.987 100.969C334.819 100.801 334.735 100.599 334.735 100.364C334.735 100.14 334.819 99.9437 334.987 99.7755C335.155 99.6074 335.362 99.5233 335.609 99.5233C335.856 99.5233 336.063 99.6074 336.231 99.7755C336.399 99.9325 336.483 100.123 336.483 100.347C336.483 100.594 336.399 100.801 336.231 100.969C336.063 101.138 335.856 101.222 335.609 101.222ZM342.849 112.084C341.974 112.084 341.19 111.894 340.495 111.512C339.811 111.131 339.273 110.599 338.88 109.915C338.488 109.22 338.292 108.441 338.292 107.578C338.292 106.715 338.488 105.941 338.88 105.257C339.273 104.573 339.811 104.041 340.495 103.66C341.19 103.279 341.974 103.088 342.849 103.088C343.611 103.088 344.289 103.239 344.883 103.542C345.489 103.834 345.965 104.265 346.313 104.837L345.421 105.442C345.13 105.005 344.76 104.68 344.312 104.467C343.863 104.243 343.376 104.131 342.849 104.131C342.21 104.131 341.632 104.276 341.117 104.568C340.612 104.848 340.214 105.252 339.923 105.778C339.643 106.305 339.503 106.905 339.503 107.578C339.503 108.261 339.643 108.867 339.923 109.394C340.214 109.909 340.612 110.313 341.117 110.604C341.632 110.885 342.21 111.025 342.849 111.025C343.376 111.025 343.863 110.918 344.312 110.705C344.76 110.492 345.13 110.167 345.421 109.73L346.313 110.335C345.965 110.907 345.489 111.344 344.883 111.647C344.278 111.938 343.6 112.084 342.849 112.084ZM353.078 111.462C352.854 111.664 352.573 111.821 352.237 111.933C351.912 112.034 351.57 112.084 351.211 112.084C350.382 112.084 349.743 111.86 349.294 111.411C348.846 110.963 348.622 110.33 348.622 109.511V104.164H347.041V103.155H348.622V101.222H349.816V103.155H352.506V104.164H349.816V109.444C349.816 109.971 349.945 110.375 350.202 110.655C350.472 110.924 350.853 111.058 351.346 111.058C351.593 111.058 351.828 111.019 352.052 110.941C352.288 110.862 352.489 110.75 352.657 110.604L353.078 111.462ZM362.885 103.155V112H361.742V110.386C361.428 110.924 360.996 111.344 360.447 111.647C359.898 111.938 359.27 112.084 358.564 112.084C357.409 112.084 356.495 111.765 355.823 111.126C355.161 110.475 354.831 109.528 354.831 108.284V103.155H356.025V108.166C356.025 109.097 356.254 109.803 356.714 110.285C357.174 110.767 357.829 111.008 358.681 111.008C359.612 111.008 360.346 110.728 360.884 110.167C361.422 109.595 361.691 108.805 361.691 107.796V103.155H362.885ZM367.036 104.887C367.316 104.293 367.731 103.845 368.28 103.542C368.841 103.239 369.53 103.088 370.348 103.088V104.248L370.063 104.231C369.132 104.231 368.404 104.517 367.877 105.089C367.35 105.661 367.086 106.462 367.086 107.494V112H365.893V103.155H367.036V104.887ZM379.793 107.948H372.394C372.462 108.867 372.815 109.612 373.454 110.184C374.093 110.744 374.9 111.025 375.875 111.025C376.424 111.025 376.929 110.929 377.388 110.739C377.848 110.537 378.246 110.246 378.582 109.865L379.255 110.638C378.863 111.109 378.369 111.468 377.775 111.714C377.192 111.961 376.548 112.084 375.841 112.084C374.933 112.084 374.126 111.894 373.42 111.512C372.725 111.12 372.181 110.582 371.789 109.898C371.397 109.214 371.201 108.441 371.201 107.578C371.201 106.715 371.385 105.941 371.755 105.257C372.137 104.573 372.652 104.041 373.302 103.66C373.964 103.279 374.704 103.088 375.522 103.088C376.34 103.088 377.075 103.279 377.725 103.66C378.375 104.041 378.885 104.573 379.255 105.257C379.625 105.93 379.81 106.703 379.81 107.578L379.793 107.948ZM375.522 104.114C374.67 104.114 373.953 104.388 373.37 104.938C372.798 105.476 372.473 106.182 372.394 107.056H378.666C378.588 106.182 378.257 105.476 377.674 104.938C377.103 104.388 376.385 104.114 375.522 104.114Z" fill="#173F5F"/>
<path d="M475.162 116.101C474.288 116.101 473.447 115.961 472.64 115.681C471.844 115.4 471.227 115.03 470.79 114.571L471.278 113.612C471.704 114.038 472.27 114.386 472.976 114.655C473.682 114.913 474.411 115.042 475.162 115.042C476.216 115.042 477.006 114.851 477.533 114.47C478.06 114.077 478.323 113.573 478.323 112.956C478.323 112.486 478.178 112.11 477.886 111.83C477.606 111.55 477.258 111.337 476.844 111.191C476.429 111.034 475.852 110.866 475.112 110.686C474.226 110.462 473.52 110.249 472.993 110.048C472.466 109.835 472.012 109.515 471.631 109.089C471.261 108.663 471.076 108.086 471.076 107.357C471.076 106.763 471.233 106.225 471.547 105.743C471.861 105.25 472.343 104.857 472.993 104.566C473.643 104.274 474.45 104.129 475.414 104.129C476.087 104.129 476.743 104.224 477.382 104.415C478.032 104.594 478.592 104.846 479.063 105.171L478.643 106.163C478.15 105.838 477.623 105.597 477.062 105.44C476.502 105.272 475.952 105.188 475.414 105.188C474.383 105.188 473.604 105.39 473.077 105.793C472.561 106.186 472.304 106.696 472.304 107.323C472.304 107.794 472.444 108.175 472.724 108.467C473.015 108.747 473.374 108.966 473.8 109.123C474.237 109.268 474.82 109.431 475.549 109.61C476.412 109.823 477.107 110.036 477.634 110.249C478.172 110.451 478.626 110.765 478.996 111.191C479.366 111.606 479.551 112.172 479.551 112.889C479.551 113.483 479.388 114.027 479.063 114.52C478.749 115.002 478.262 115.389 477.6 115.681C476.939 115.961 476.126 116.101 475.162 116.101ZM489.644 107.155V116H488.5V114.386C488.187 114.924 487.755 115.344 487.206 115.647C486.656 115.938 486.029 116.084 485.322 116.084C484.168 116.084 483.254 115.765 482.582 115.126C481.92 114.475 481.589 113.528 481.589 112.284V107.155H482.783V112.166C482.783 113.097 483.013 113.803 483.473 114.285C483.932 114.767 484.588 115.008 485.44 115.008C486.37 115.008 487.105 114.728 487.643 114.167C488.181 113.595 488.45 112.805 488.45 111.796V107.155H489.644ZM497.208 107.088C498.038 107.088 498.789 107.279 499.461 107.66C500.134 108.03 500.661 108.557 501.042 109.24C501.423 109.924 501.614 110.703 501.614 111.578C501.614 112.452 501.423 113.231 501.042 113.915C500.661 114.599 500.134 115.131 499.461 115.512C498.789 115.894 498.038 116.084 497.208 116.084C496.468 116.084 495.801 115.927 495.207 115.613C494.624 115.299 494.153 114.845 493.795 114.251V116H492.651V103.523H493.845V108.837C494.215 108.265 494.686 107.834 495.257 107.542C495.84 107.239 496.491 107.088 497.208 107.088ZM497.124 115.025C497.741 115.025 498.301 114.885 498.805 114.604C499.31 114.313 499.702 113.904 499.982 113.377C500.274 112.85 500.42 112.25 500.42 111.578C500.42 110.905 500.274 110.305 499.982 109.778C499.702 109.252 499.31 108.848 498.805 108.568C498.301 108.276 497.741 108.131 497.124 108.131C496.496 108.131 495.93 108.276 495.426 108.568C494.932 108.848 494.54 109.252 494.249 109.778C493.968 110.305 493.828 110.905 493.828 111.578C493.828 112.25 493.968 112.85 494.249 113.377C494.54 113.904 494.932 114.313 495.426 114.604C495.93 114.885 496.496 115.025 497.124 115.025ZM514.742 107.088C515.851 107.088 516.72 107.408 517.348 108.047C517.987 108.685 518.306 109.627 518.306 110.871V116H517.112V110.989C517.112 110.07 516.888 109.369 516.44 108.887C516.003 108.405 515.381 108.164 514.573 108.164C513.654 108.164 512.931 108.45 512.404 109.022C511.877 109.582 511.614 110.361 511.614 111.359V116H510.42V110.989C510.42 110.07 510.196 109.369 509.748 108.887C509.31 108.405 508.683 108.164 507.864 108.164C506.956 108.164 506.233 108.45 505.695 109.022C505.168 109.582 504.905 110.361 504.905 111.359V116H503.711V107.155H504.854V108.77C505.168 108.231 505.605 107.817 506.166 107.525C506.726 107.234 507.371 107.088 508.1 107.088C508.84 107.088 509.478 107.245 510.017 107.559C510.566 107.873 510.975 108.338 511.244 108.955C511.569 108.372 512.034 107.918 512.64 107.593C513.256 107.256 513.957 107.088 514.742 107.088ZM521.208 107.155H522.402V116H521.208V107.155ZM521.813 105.222C521.566 105.222 521.359 105.138 521.191 104.969C521.023 104.801 520.939 104.599 520.939 104.364C520.939 104.14 521.023 103.944 521.191 103.776C521.359 103.607 521.566 103.523 521.813 103.523C522.06 103.523 522.267 103.607 522.435 103.776C522.603 103.932 522.687 104.123 522.687 104.347C522.687 104.594 522.603 104.801 522.435 104.969C522.267 105.138 522.06 105.222 521.813 105.222ZM530.045 115.462C529.821 115.664 529.54 115.821 529.204 115.933C528.879 116.034 528.537 116.084 528.178 116.084C527.349 116.084 526.71 115.86 526.261 115.411C525.813 114.963 525.589 114.33 525.589 113.511V108.164H524.008V107.155H525.589V105.222H526.783V107.155H529.473V108.164H526.783V113.444C526.783 113.971 526.912 114.375 527.17 114.655C527.439 114.924 527.82 115.058 528.313 115.058C528.56 115.058 528.795 115.019 529.019 114.941C529.255 114.862 529.456 114.75 529.624 114.604L530.045 115.462Z" fill="#173F5F"/>
<line x1="91" y1="39.5" x2="161" y2="39.5" stroke="#173F5F" stroke-width="3"/>
<line x1="241" y1="39.5" x2="311" y2="39.5" stroke="#173F5F" stroke-width="3"/>
<line x1="391" y1="39.5" x2="461" y2="39.5" stroke="#173F5F" stroke-width="3"/>
<path fill-rule="evenodd" clip-rule="evenodd" d="M63.2518 14.2639C57.5642 11.6968 51.2098 11.0608 45.1362 12.4509C39.0626 13.8409 33.5953 17.1826 29.5497 21.9774C25.5041 26.7722 23.097 32.7633 22.6873 39.0572C22.2776 45.351 23.8873 51.6104 27.2763 56.9019C30.6654 62.1933 35.6522 66.2332 41.493 68.4191C47.3338 70.605 53.7156 70.8198 59.6868 69.0313C65.6579 67.2429 70.8984 63.5472 74.6266 58.4953C78.3549 53.4434 80.3711 47.306 80.3747 40.9984V38.0103C80.3747 36.2154 81.8111 34.7603 83.583 34.7603C85.3549 34.7603 86.7914 36.2154 86.7914 38.0103V41.0003C86.787 48.7095 84.3227 56.2126 79.7659 62.3872C75.2092 68.5617 68.8042 73.0788 61.5061 75.2646C54.2081 77.4504 46.408 77.1879 39.2692 74.5163C32.1305 71.8446 26.0355 66.907 21.8934 60.4397C17.7512 53.9724 15.7838 46.322 16.2845 38.6295C16.7852 30.937 19.7273 23.6145 24.6719 17.7542C29.6166 11.8939 36.2988 7.80964 43.7221 6.11067C51.1453 4.4117 58.9119 5.18901 65.8634 8.32665C67.4819 9.05719 68.2094 10.9785 67.4882 12.618C66.767 14.2576 64.8703 14.9945 63.2518 14.2639Z" fill="#F1F9FF"/>
<path fill-rule="evenodd" clip-rule="evenodd" d="M85.8505 12.7011C87.1041 13.9696 87.1051 16.0274 85.8528 17.2972L53.7695 49.8297C53.1679 50.4397 52.3517 50.7826 51.5005 50.7828C50.6493 50.783 49.8329 50.4406 49.2311 49.8309L39.6061 40.0809C38.3531 38.8117 38.3531 36.7539 39.6061 35.4847C40.859 34.2155 42.8904 34.2155 44.1433 35.4847L51.4986 42.9355L81.3133 12.7033C82.5656 11.4335 84.597 11.4325 85.8505 12.7011Z" fill="#F1F9FF"/>
<path fill-rule="evenodd" clip-rule="evenodd" d="M213.252 14.2639C207.564 11.6968 201.21 11.0608 195.136 12.4509C189.063 13.8409 183.595 17.1826 179.55 21.9774C175.504 26.7722 173.097 32.7633 172.687 39.0572C172.278 45.351 173.887 51.6104 177.276 56.9019C180.665 62.1933 185.652 66.2332 191.493 68.4191C197.334 70.605 203.716 70.8198 209.687 69.0313C215.658 67.2429 220.898 63.5472 224.627 58.4953C228.355 53.4434 230.371 47.306 230.375 40.9984V38.0103C230.375 36.2154 231.811 34.7603 233.583 34.7603C235.355 34.7603 236.791 36.2154 236.791 38.0103V41.0003C236.787 48.7095 234.323 56.2126 229.766 62.3872C225.209 68.5617 218.804 73.0788 211.506 75.2646C204.208 77.4504 196.408 77.1879 189.269 74.5163C182.13 71.8446 176.036 66.907 171.893 60.4397C167.751 53.9724 165.784 46.322 166.285 38.6295C166.785 30.937 169.727 23.6145 174.672 17.7542C179.617 11.8939 186.299 7.80964 193.722 6.11067C201.145 4.4117 208.912 5.18901 215.863 8.32665C217.482 9.05719 218.209 10.9785 217.488 12.618C216.767 14.2576 214.87 14.9945 213.252 14.2639Z" fill="#F1F9FF"/>
<path fill-rule="evenodd" clip-rule="evenodd" d="M235.851 12.7011C237.104 13.9696 237.105 16.0274 235.853 17.2972L203.769 49.8297C203.168 50.4397 202.352 50.7826 201.5 50.7828C200.649 50.783 199.833 50.4406 199.231 49.8309L189.606 40.0809C188.353 38.8117 188.353 36.7539 189.606 35.4847C190.859 34.2155 192.89 34.2155 194.143 35.4847L201.499 42.9355L231.313 12.7033C232.566 11.4335 234.597 11.4325 235.851 12.7011Z" fill="#F1F9FF"/>
<path fill-rule="evenodd" clip-rule="evenodd" d="M363.252 14.2639C357.564 11.6968 351.21 11.0608 345.136 12.4509C339.063 13.8409 333.595 17.1826 329.55 21.9774C325.504 26.7722 323.097 32.7633 322.687 39.0572C322.278 45.351 323.887 51.6104 327.276 56.9019C330.665 62.1933 335.652 66.2332 341.493 68.4191C347.334 70.605 353.716 70.8198 359.687 69.0313C365.658 67.2429 370.898 63.5472 374.627 58.4953C378.355 53.4434 380.371 47.306 380.375 40.9984V38.0103C380.375 36.2154 381.811 34.7603 383.583 34.7603C385.355 34.7603 386.791 36.2154 386.791 38.0103V41.0003C386.787 48.7095 384.323 56.2126 379.766 62.3872C375.209 68.5617 368.804 73.0788 361.506 75.2646C354.208 77.4504 346.408 77.1879 339.269 74.5163C332.13 71.8446 326.036 66.907 321.893 60.4397C317.751 53.9724 315.784 46.322 316.285 38.6295C316.785 30.937 319.727 23.6145 324.672 17.7542C329.617 11.8939 336.299 7.80964 343.722 6.11067C351.145 4.4117 358.912 5.18901 365.863 8.32665C367.482 9.05719 368.209 10.9785 367.488 12.618C366.767 14.2576 364.87 14.9945 363.252 14.2639Z" fill="#F1F9FF"/>
<path fill-rule="evenodd" clip-rule="evenodd" d="M385.851 12.7011C387.104 13.9696 387.105 16.0274 385.853 17.2972L353.769 49.8297C353.168 50.4397 352.352 50.7826 351.5 50.7828C350.649 50.783 349.833 50.4406 349.231 49.8309L339.606 40.0809C338.353 38.8117 338.353 36.7539 339.606 35.4847C340.859 34.2155 342.89 34.2155 344.143 35.4847L351.499 42.9355L381.313 12.7033C382.566 11.4335 384.597 11.4325 385.851 12.7011Z" fill="#F1F9FF"/>
</svg>
