<svg width="1440" height="72" viewBox="0 0 1440 72" fill="none" xmlns="http://www.w3.org/2000/svg">
<rect width="1440" height="72" fill="#173F5F"/>
<path d="M591.72 41.042C590.806 41.042 589.97 40.8227 589.214 40.384C588.468 39.9453 587.875 39.348 587.436 38.592C587.007 37.836 586.792 37.0053 586.792 36.1C586.792 35.1947 587.007 34.364 587.436 33.608C587.875 32.852 588.472 32.2547 589.228 31.816C589.984 31.3773 590.824 31.158 591.748 31.158C592.672 31.158 593.508 31.3727 594.254 31.802C595.01 32.2313 595.603 32.824 596.032 33.58C596.462 34.3267 596.676 35.1573 596.676 36.072C596.676 36.9867 596.457 37.8267 596.018 38.592C595.58 39.348 594.982 39.9453 594.226 40.384C593.47 40.8227 592.635 41.042 591.72 41.042ZM591.72 40.524C592.542 40.524 593.288 40.328 593.96 39.936C594.632 39.5347 595.164 38.998 595.556 38.326C595.948 37.6447 596.144 36.8933 596.144 36.072C596.144 35.2507 595.953 34.5087 595.57 33.846C595.188 33.174 594.66 32.6467 593.988 32.264C593.326 31.872 592.579 31.676 591.748 31.676C590.918 31.676 590.162 31.872 589.48 32.264C588.808 32.656 588.276 33.1927 587.884 33.874C587.502 34.546 587.31 35.288 587.31 36.1C587.31 36.912 587.502 37.6587 587.884 38.34C588.276 39.012 588.808 39.544 589.48 39.936C590.152 40.328 590.899 40.524 591.72 40.524ZM591.846 39.012C591.296 39.012 590.796 38.8907 590.348 38.648C589.91 38.396 589.564 38.0507 589.312 37.612C589.06 37.164 588.934 36.66 588.934 36.1C588.934 35.54 589.06 35.0407 589.312 34.602C589.564 34.154 589.91 33.8087 590.348 33.566C590.796 33.314 591.296 33.188 591.846 33.188C592.322 33.188 592.752 33.286 593.134 33.482C593.526 33.6687 593.839 33.93 594.072 34.266L593.47 34.714C593.274 34.4433 593.036 34.2427 592.756 34.112C592.476 33.9813 592.168 33.916 591.832 33.916C591.226 33.916 590.722 34.1167 590.32 34.518C589.928 34.9193 589.732 35.4467 589.732 36.1C589.732 36.7533 589.928 37.2807 590.32 37.682C590.722 38.0833 591.226 38.284 591.832 38.284C592.168 38.284 592.476 38.2187 592.756 38.088C593.036 37.9573 593.274 37.7567 593.47 37.486L594.072 37.92C593.839 38.2653 593.526 38.536 593.134 38.732C592.752 38.9187 592.322 39.012 591.846 39.012ZM608.469 40.104V41H601.595V40.286L605.669 36.296C606.182 35.792 606.527 35.358 606.705 34.994C606.891 34.6207 606.985 34.2473 606.985 33.874C606.985 33.2953 606.784 32.8473 606.383 32.53C605.991 32.2033 605.426 32.04 604.689 32.04C603.541 32.04 602.649 32.404 602.015 33.132L601.301 32.516C601.683 32.068 602.169 31.7227 602.757 31.48C603.354 31.2373 604.026 31.116 604.773 31.116C605.771 31.116 606.56 31.354 607.139 31.83C607.727 32.2967 608.021 32.9407 608.021 33.762C608.021 34.266 607.909 34.7513 607.685 35.218C607.461 35.6847 607.036 36.2213 606.411 36.828L603.079 40.104H608.469ZM613.585 41.084C612.829 41.084 612.153 40.8833 611.555 40.482C610.967 40.0807 610.505 39.5067 610.169 38.76C609.843 38.004 609.679 37.1173 609.679 36.1C609.679 35.0827 609.843 34.2007 610.169 33.454C610.505 32.698 610.967 32.1193 611.555 31.718C612.153 31.3167 612.829 31.116 613.585 31.116C614.341 31.116 615.013 31.3167 615.601 31.718C616.199 32.1193 616.665 32.698 617.001 33.454C617.337 34.2007 617.505 35.0827 617.505 36.1C617.505 37.1173 617.337 38.004 617.001 38.76C616.665 39.5067 616.199 40.0807 615.601 40.482C615.013 40.8833 614.341 41.084 613.585 41.084ZM613.585 40.16C614.155 40.16 614.654 40.0013 615.083 39.684C615.522 39.3667 615.863 38.9047 616.105 38.298C616.348 37.6913 616.469 36.9587 616.469 36.1C616.469 35.2413 616.348 34.5087 616.105 33.902C615.863 33.2953 615.522 32.8333 615.083 32.516C614.654 32.1987 614.155 32.04 613.585 32.04C613.016 32.04 612.512 32.1987 612.073 32.516C611.644 32.8333 611.308 33.2953 611.065 33.902C610.823 34.5087 610.701 35.2413 610.701 36.1C610.701 36.9587 610.823 37.6913 611.065 38.298C611.308 38.9047 611.644 39.3667 612.073 39.684C612.512 40.0013 613.016 40.16 613.585 40.16ZM625.613 40.104V41H618.739V40.286L622.813 36.296C623.327 35.792 623.672 35.358 623.849 34.994C624.036 34.6207 624.129 34.2473 624.129 33.874C624.129 33.2953 623.929 32.8473 623.527 32.53C623.135 32.2033 622.571 32.04 621.833 32.04C620.685 32.04 619.794 32.404 619.159 33.132L618.445 32.516C618.828 32.068 619.313 31.7227 619.901 31.48C620.499 31.2373 621.171 31.116 621.917 31.116C622.916 31.116 623.705 31.354 624.283 31.83C624.871 32.2967 625.165 32.9407 625.165 33.762C625.165 34.266 625.053 34.7513 624.829 35.218C624.605 35.6847 624.181 36.2213 623.555 36.828L620.223 40.104H625.613ZM630.73 41.084C629.974 41.084 629.297 40.8833 628.7 40.482C628.112 40.0807 627.65 39.5067 627.314 38.76C626.987 38.004 626.824 37.1173 626.824 36.1C626.824 35.0827 626.987 34.2007 627.314 33.454C627.65 32.698 628.112 32.1193 628.7 31.718C629.297 31.3167 629.974 31.116 630.73 31.116C631.486 31.116 632.158 31.3167 632.746 31.718C633.343 32.1193 633.81 32.698 634.146 33.454C634.482 34.2007 634.65 35.0827 634.65 36.1C634.65 37.1173 634.482 38.004 634.146 38.76C633.81 39.5067 633.343 40.0807 632.746 40.482C632.158 40.8833 631.486 41.084 630.73 41.084ZM630.73 40.16C631.299 40.16 631.798 40.0013 632.228 39.684C632.666 39.3667 633.007 38.9047 633.25 38.298C633.492 37.6913 633.614 36.9587 633.614 36.1C633.614 35.2413 633.492 34.5087 633.25 33.902C633.007 33.2953 632.666 32.8333 632.228 32.516C631.798 32.1987 631.299 32.04 630.73 32.04C630.16 32.04 629.656 32.1987 629.218 32.516C628.788 32.8333 628.452 33.2953 628.21 33.902C627.967 34.5087 627.846 35.2413 627.846 36.1C627.846 36.9587 627.967 37.6913 628.21 38.298C628.452 38.9047 628.788 39.3667 629.218 39.684C629.656 40.0013 630.16 40.16 630.73 40.16ZM644.881 41.084C643.911 41.084 643.033 40.8693 642.249 40.44C641.475 40.0107 640.863 39.418 640.415 38.662C639.977 37.8967 639.757 37.0427 639.757 36.1C639.757 35.1573 639.977 34.308 640.415 33.552C640.863 32.7867 641.479 32.1893 642.263 31.76C643.047 31.3307 643.925 31.116 644.895 31.116C645.623 31.116 646.295 31.2373 646.911 31.48C647.527 31.7227 648.05 32.0773 648.479 32.544L647.821 33.202C647.056 32.4273 646.09 32.04 644.923 32.04C644.149 32.04 643.444 32.2173 642.809 32.572C642.175 32.9267 641.675 33.412 641.311 34.028C640.957 34.644 640.779 35.3347 640.779 36.1C640.779 36.8653 640.957 37.556 641.311 38.172C641.675 38.788 642.175 39.2733 642.809 39.628C643.444 39.9827 644.149 40.16 644.923 40.16C646.099 40.16 647.065 39.768 647.821 38.984L648.479 39.642C648.05 40.1087 647.523 40.468 646.897 40.72C646.281 40.9627 645.609 41.084 644.881 41.084ZM651.43 35.078C651.663 34.5833 652.008 34.21 652.466 33.958C652.932 33.706 653.506 33.58 654.188 33.58V34.546L653.95 34.532C653.175 34.532 652.568 34.77 652.13 35.246C651.691 35.722 651.472 36.3893 651.472 37.248V41H650.478V33.636H651.43V35.078ZM662.733 33.636V40.104C662.733 41.3547 662.448 42.2787 661.879 42.876C661.31 43.4827 660.451 43.786 659.303 43.786C658.659 43.786 658.048 43.6833 657.469 43.478C656.9 43.282 656.438 43.0067 656.083 42.652L656.587 41.896C656.904 42.2133 657.296 42.4607 657.763 42.638C658.23 42.8153 658.729 42.904 659.261 42.904C660.11 42.904 660.736 42.6847 661.137 42.246C661.538 41.8167 661.739 41.1447 661.739 40.23V39.376C661.478 39.8053 661.118 40.1367 660.661 40.37C660.213 40.6033 659.704 40.72 659.135 40.72C658.174 40.72 657.413 40.454 656.853 39.922C656.302 39.3807 656.027 38.592 656.027 37.556V33.636H657.021V37.458C657.021 38.2327 657.212 38.8207 657.595 39.222C657.978 39.6233 658.524 39.824 659.233 39.824C660.008 39.824 660.619 39.5907 661.067 39.124C661.515 38.648 661.739 37.99 661.739 37.15V33.636H662.733ZM669.311 33.58C670.002 33.58 670.627 33.7387 671.187 34.056C671.747 34.364 672.186 34.8027 672.503 35.372C672.82 35.9413 672.979 36.59 672.979 37.318C672.979 38.0553 672.82 38.7087 672.503 39.278C672.186 39.8473 671.747 40.2907 671.187 40.608C670.636 40.916 670.011 41.07 669.311 41.07C668.714 41.07 668.172 40.9487 667.687 40.706C667.211 40.454 666.819 40.09 666.511 39.614V43.716H665.517V33.636H666.469V35.092C666.768 34.6067 667.16 34.2333 667.645 33.972C668.14 33.7107 668.695 33.58 669.311 33.58ZM669.241 40.188C669.754 40.188 670.221 40.0713 670.641 39.838C671.061 39.5953 671.388 39.2547 671.621 38.816C671.864 38.3773 671.985 37.878 671.985 37.318C671.985 36.758 671.864 36.2633 671.621 35.834C671.388 35.3953 671.061 35.0547 670.641 34.812C670.221 34.5693 669.754 34.448 669.241 34.448C668.718 34.448 668.247 34.5693 667.827 34.812C667.416 35.0547 667.09 35.3953 666.847 35.834C666.614 36.2633 666.497 36.758 666.497 37.318C666.497 37.878 666.614 38.3773 666.847 38.816C667.09 39.2547 667.416 39.5953 667.827 39.838C668.247 40.0713 668.718 40.188 669.241 40.188ZM678.631 40.552C678.444 40.72 678.216 40.8507 677.945 40.944C677.674 41.028 677.39 41.07 677.091 41.07C676.4 41.07 675.868 40.8833 675.495 40.51C675.122 40.1367 674.935 39.6093 674.935 38.928V32.026H675.929V33.636H678.155V34.476H675.929V38.872C675.929 39.3107 676.036 39.6467 676.251 39.88C676.466 40.104 676.778 40.216 677.189 40.216C677.637 40.216 678.001 40.09 678.281 39.838L678.631 40.552ZM683.183 41.07C682.474 41.07 681.834 40.9113 681.265 40.594C680.696 40.2673 680.248 39.8193 679.921 39.25C679.594 38.6807 679.431 38.0367 679.431 37.318C679.431 36.5993 679.594 35.9553 679.921 35.386C680.248 34.8167 680.696 34.3733 681.265 34.056C681.834 33.7387 682.474 33.58 683.183 33.58C683.892 33.58 684.532 33.7387 685.101 34.056C685.67 34.3733 686.114 34.8167 686.431 35.386C686.758 35.9553 686.921 36.5993 686.921 37.318C686.921 38.0367 686.758 38.6807 686.431 39.25C686.114 39.8193 685.67 40.2673 685.101 40.594C684.532 40.9113 683.892 41.07 683.183 41.07ZM683.183 40.188C683.706 40.188 684.172 40.0713 684.583 39.838C685.003 39.5953 685.33 39.2547 685.563 38.816C685.796 38.3773 685.913 37.878 685.913 37.318C685.913 36.758 685.796 36.2587 685.563 35.82C685.33 35.3813 685.003 35.0453 684.583 34.812C684.172 34.5693 683.706 34.448 683.183 34.448C682.66 34.448 682.189 34.5693 681.769 34.812C681.358 35.0453 681.032 35.3813 680.789 35.82C680.556 36.2587 680.439 36.758 680.439 37.318C680.439 37.878 680.556 38.3773 680.789 38.816C681.032 39.2547 681.358 39.5953 681.769 39.838C682.189 40.0713 682.66 40.188 683.183 40.188ZM692.702 33.58C693.626 33.58 694.359 33.8507 694.9 34.392C695.451 34.924 695.726 35.7033 695.726 36.73V41H694.732V36.828C694.732 36.0627 694.541 35.4793 694.158 35.078C693.776 34.6767 693.23 34.476 692.52 34.476C691.727 34.476 691.097 34.714 690.63 35.19C690.173 35.6567 689.944 36.3053 689.944 37.136V41H688.95V33.636H689.902V34.994C690.173 34.546 690.546 34.2007 691.022 33.958C691.508 33.706 692.068 33.58 692.702 33.58ZM705.172 33.636V41H704.22V39.544C703.922 40.0387 703.525 40.4167 703.03 40.678C702.545 40.9393 701.994 41.07 701.378 41.07C700.688 41.07 700.062 40.9113 699.502 40.594C698.942 40.2767 698.504 39.8333 698.186 39.264C697.869 38.6947 697.71 38.046 697.71 37.318C697.71 36.59 697.869 35.9413 698.186 35.372C698.504 34.8027 698.942 34.364 699.502 34.056C700.062 33.7387 700.688 33.58 701.378 33.58C701.976 33.58 702.512 33.706 702.988 33.958C703.474 34.2007 703.87 34.56 704.178 35.036V33.636H705.172ZM701.462 40.188C701.976 40.188 702.438 40.0713 702.848 39.838C703.268 39.5953 703.595 39.2547 703.828 38.816C704.071 38.3773 704.192 37.878 704.192 37.318C704.192 36.758 704.071 36.2587 703.828 35.82C703.595 35.3813 703.268 35.0453 702.848 34.812C702.438 34.5693 701.976 34.448 701.462 34.448C700.94 34.448 700.468 34.5693 700.048 34.812C699.638 35.0453 699.311 35.3813 699.068 35.82C698.835 36.2587 698.718 36.758 698.718 37.318C698.718 37.878 698.835 38.3773 699.068 38.816C699.311 39.2547 699.638 39.5953 700.048 39.838C700.468 40.0713 700.94 40.188 701.462 40.188ZM711.567 40.552C711.38 40.72 711.151 40.8507 710.881 40.944C710.61 41.028 710.325 41.07 710.027 41.07C709.336 41.07 708.804 40.8833 708.431 40.51C708.057 40.1367 707.871 39.6093 707.871 38.928V32.026H708.865V33.636H711.091V34.476H708.865V38.872C708.865 39.3107 708.972 39.6467 709.187 39.88C709.401 40.104 709.714 40.216 710.125 40.216C710.573 40.216 710.937 40.09 711.217 39.838L711.567 40.552ZM716.259 40.188C716.716 40.188 717.136 40.1087 717.519 39.95C717.911 39.782 718.242 39.5393 718.513 39.222L719.073 39.866C718.746 40.258 718.34 40.5567 717.855 40.762C717.369 40.9673 716.833 41.07 716.245 41.07C715.489 41.07 714.817 40.9113 714.229 40.594C713.641 40.2673 713.183 39.8193 712.857 39.25C712.53 38.6807 712.367 38.0367 712.367 37.318C712.367 36.5993 712.521 35.9553 712.829 35.386C713.146 34.8167 713.58 34.3733 714.131 34.056C714.681 33.7387 715.307 33.58 716.007 33.58C716.66 33.58 717.248 33.7293 717.771 34.028C718.303 34.3267 718.723 34.742 719.031 35.274C719.348 35.806 719.516 36.4127 719.535 37.094L713.487 38.27C713.673 38.8673 714.009 39.3387 714.495 39.684C714.989 40.02 715.577 40.188 716.259 40.188ZM716.007 34.434C715.493 34.434 715.031 34.5553 714.621 34.798C714.219 35.0313 713.902 35.3627 713.669 35.792C713.445 36.212 713.333 36.6973 713.333 37.248C713.333 37.388 713.337 37.4907 713.347 37.556L718.541 36.548C718.429 35.932 718.144 35.428 717.687 35.036C717.229 34.6347 716.669 34.434 716.007 34.434ZM721.656 41.07C721.451 41.07 721.273 40.9953 721.124 40.846C720.984 40.6967 720.914 40.5147 720.914 40.3C720.914 40.0853 720.984 39.908 721.124 39.768C721.273 39.6187 721.451 39.544 721.656 39.544C721.861 39.544 722.039 39.6187 722.188 39.768C722.337 39.908 722.412 40.0853 722.412 40.3C722.412 40.5147 722.337 40.6967 722.188 40.846C722.039 40.9953 721.861 41.07 721.656 41.07ZM732.403 31.116C733.672 31.116 734.671 31.4893 735.399 32.236C736.136 32.9733 736.505 34.042 736.505 35.442V41H735.483V38.116H729.323V41H728.315V35.442C728.315 34.042 728.679 32.9733 729.407 32.236C730.144 31.4893 731.143 31.116 732.403 31.116ZM735.483 37.22V35.344C735.483 34.252 735.212 33.4307 734.671 32.88C734.129 32.32 733.373 32.04 732.403 32.04C731.432 32.04 730.676 32.32 730.135 32.88C729.593 33.4307 729.323 34.252 729.323 35.344V37.22H735.483ZM741.472 41.07C740.809 41.07 740.296 40.8833 739.932 40.51C739.577 40.1367 739.4 39.6187 739.4 38.956V30.612H740.394V38.872C740.394 39.3107 740.496 39.6467 740.702 39.88C740.907 40.104 741.215 40.216 741.626 40.216C741.887 40.216 742.111 40.174 742.298 40.09L742.368 40.916C742.078 41.0187 741.78 41.07 741.472 41.07ZM745.792 41.07C745.129 41.07 744.616 40.8833 744.252 40.51C743.897 40.1367 743.72 39.6187 743.72 38.956V30.612H744.714V38.872C744.714 39.3107 744.817 39.6467 745.022 39.88C745.227 40.104 745.535 40.216 745.946 40.216C746.207 40.216 746.431 40.174 746.618 40.09L746.688 40.916C746.399 41.0187 746.1 41.07 745.792 41.07ZM752.656 35.078C752.89 34.5833 753.235 34.21 753.692 33.958C754.159 33.706 754.733 33.58 755.414 33.58V34.546L755.176 34.532C754.402 34.532 753.795 34.77 753.356 35.246C752.918 35.722 752.698 36.3893 752.698 37.248V41H751.704V33.636H752.656V35.078ZM757.214 33.636H758.208V41H757.214V33.636ZM757.718 32.026C757.513 32.026 757.34 31.956 757.2 31.816C757.06 31.676 756.99 31.508 756.99 31.312C756.99 31.1253 757.06 30.962 757.2 30.822C757.34 30.682 757.513 30.612 757.718 30.612C757.923 30.612 758.096 30.682 758.236 30.822C758.376 30.9527 758.446 31.1113 758.446 31.298C758.446 31.5033 758.376 31.676 758.236 31.816C758.096 31.956 757.923 32.026 757.718 32.026ZM767.792 33.636V40.104C767.792 41.3547 767.484 42.2787 766.868 42.876C766.261 43.4827 765.342 43.786 764.11 43.786C763.429 43.786 762.78 43.6833 762.164 43.478C761.557 43.282 761.063 43.0067 760.68 42.652L761.184 41.896C761.539 42.2133 761.968 42.4607 762.472 42.638C762.985 42.8153 763.522 42.904 764.082 42.904C765.015 42.904 765.701 42.6847 766.14 42.246C766.579 41.8167 766.798 41.1447 766.798 40.23V39.292C766.49 39.7587 766.084 40.1133 765.58 40.356C765.085 40.5987 764.535 40.72 763.928 40.72C763.237 40.72 762.607 40.5707 762.038 40.272C761.478 39.964 761.035 39.5393 760.708 38.998C760.391 38.4473 760.232 37.8267 760.232 37.136C760.232 36.4453 760.391 35.8293 760.708 35.288C761.035 34.7467 761.478 34.3267 762.038 34.028C762.598 33.7293 763.228 33.58 763.928 33.58C764.553 33.58 765.118 33.706 765.622 33.958C766.126 34.21 766.532 34.574 766.84 35.05V33.636H767.792ZM764.026 39.838C764.558 39.838 765.039 39.726 765.468 39.502C765.897 39.2687 766.229 38.9467 766.462 38.536C766.705 38.1253 766.826 37.6587 766.826 37.136C766.826 36.6133 766.705 36.1513 766.462 35.75C766.229 35.3393 765.897 35.022 765.468 34.798C765.048 34.5647 764.567 34.448 764.026 34.448C763.494 34.448 763.013 34.56 762.584 34.784C762.164 35.008 761.833 35.3253 761.59 35.736C761.357 36.1467 761.24 36.6133 761.24 37.136C761.24 37.6587 761.357 38.1253 761.59 38.536C761.833 38.9467 762.164 39.2687 762.584 39.502C763.013 39.726 763.494 39.838 764.026 39.838ZM774.324 33.58C775.248 33.58 775.98 33.8507 776.522 34.392C777.072 34.924 777.348 35.7033 777.348 36.73V41H776.354V36.828C776.354 36.0627 776.162 35.4793 775.78 35.078C775.397 34.6767 774.851 34.476 774.142 34.476C773.348 34.476 772.718 34.714 772.252 35.19C771.794 35.6567 771.566 36.3053 771.566 37.136V41H770.572V30.612H771.566V34.924C771.836 34.4947 772.21 34.1633 772.686 33.93C773.162 33.6967 773.708 33.58 774.324 33.58ZM783.672 40.552C783.485 40.72 783.257 40.8507 782.986 40.944C782.715 41.028 782.431 41.07 782.132 41.07C781.441 41.07 780.909 40.8833 780.536 40.51C780.163 40.1367 779.976 39.6093 779.976 38.928V32.026H780.97V33.636H783.196V34.476H780.97V38.872C780.97 39.3107 781.077 39.6467 781.292 39.88C781.507 40.104 781.819 40.216 782.23 40.216C782.678 40.216 783.042 40.09 783.322 39.838L783.672 40.552ZM787.448 41.07C786.851 41.07 786.277 40.986 785.726 40.818C785.185 40.6407 784.76 40.4213 784.452 40.16L784.9 39.376C785.208 39.6187 785.595 39.8193 786.062 39.978C786.529 40.1273 787.014 40.202 787.518 40.202C788.19 40.202 788.685 40.0993 789.002 39.894C789.329 39.6793 789.492 39.3807 789.492 38.998C789.492 38.7273 789.403 38.5173 789.226 38.368C789.049 38.2093 788.825 38.0927 788.554 38.018C788.283 37.934 787.924 37.8547 787.476 37.78C786.879 37.668 786.398 37.556 786.034 37.444C785.67 37.3227 785.357 37.122 785.096 36.842C784.844 36.562 784.718 36.1747 784.718 35.68C784.718 35.064 784.975 34.56 785.488 34.168C786.001 33.776 786.715 33.58 787.63 33.58C788.106 33.58 788.582 33.6453 789.058 33.776C789.534 33.8973 789.926 34.0607 790.234 34.266L789.8 35.064C789.193 34.644 788.47 34.434 787.63 34.434C786.995 34.434 786.515 34.546 786.188 34.77C785.871 34.994 785.712 35.288 785.712 35.652C785.712 35.932 785.801 36.156 785.978 36.324C786.165 36.492 786.393 36.618 786.664 36.702C786.935 36.7767 787.308 36.856 787.784 36.94C788.372 37.052 788.843 37.164 789.198 37.276C789.553 37.388 789.856 37.5793 790.108 37.85C790.36 38.1207 790.486 38.494 790.486 38.97C790.486 39.614 790.215 40.1273 789.674 40.51C789.142 40.8833 788.4 41.07 787.448 41.07ZM796.94 35.078C797.173 34.5833 797.518 34.21 797.976 33.958C798.442 33.706 799.016 33.58 799.698 33.58V34.546L799.46 34.532C798.685 34.532 798.078 34.77 797.64 35.246C797.201 35.722 796.982 36.3893 796.982 37.248V41H795.988V33.636H796.94V35.078ZM804.579 40.188C805.036 40.188 805.456 40.1087 805.839 39.95C806.231 39.782 806.562 39.5393 806.833 39.222L807.393 39.866C807.066 40.258 806.66 40.5567 806.175 40.762C805.69 40.9673 805.153 41.07 804.565 41.07C803.809 41.07 803.137 40.9113 802.549 40.594C801.961 40.2673 801.504 39.8193 801.177 39.25C800.85 38.6807 800.687 38.0367 800.687 37.318C800.687 36.5993 800.841 35.9553 801.149 35.386C801.466 34.8167 801.9 34.3733 802.451 34.056C803.002 33.7387 803.627 33.58 804.327 33.58C804.98 33.58 805.568 33.7293 806.091 34.028C806.623 34.3267 807.043 34.742 807.351 35.274C807.668 35.806 807.836 36.4127 807.855 37.094L801.807 38.27C801.994 38.8673 802.33 39.3387 802.815 39.684C803.31 40.02 803.898 40.188 804.579 40.188ZM804.327 34.434C803.814 34.434 803.352 34.5553 802.941 34.798C802.54 35.0313 802.222 35.3627 801.989 35.792C801.765 36.212 801.653 36.6973 801.653 37.248C801.653 37.388 801.658 37.4907 801.667 37.556L806.861 36.548C806.749 35.932 806.464 35.428 806.007 35.036C805.55 34.6347 804.99 34.434 804.327 34.434ZM811.852 41.07C811.255 41.07 810.681 40.986 810.13 40.818C809.589 40.6407 809.164 40.4213 808.856 40.16L809.304 39.376C809.612 39.6187 810 39.8193 810.466 39.978C810.933 40.1273 811.418 40.202 811.922 40.202C812.594 40.202 813.089 40.0993 813.406 39.894C813.733 39.6793 813.896 39.3807 813.896 38.998C813.896 38.7273 813.808 38.5173 813.63 38.368C813.453 38.2093 813.229 38.0927 812.958 38.018C812.688 37.934 812.328 37.8547 811.88 37.78C811.283 37.668 810.802 37.556 810.438 37.444C810.074 37.3227 809.762 37.122 809.5 36.842C809.248 36.562 809.122 36.1747 809.122 35.68C809.122 35.064 809.379 34.56 809.892 34.168C810.406 33.776 811.12 33.58 812.034 33.58C812.51 33.58 812.986 33.6453 813.462 33.776C813.938 33.8973 814.33 34.0607 814.638 34.266L814.204 35.064C813.598 34.644 812.874 34.434 812.034 34.434C811.4 34.434 810.919 34.546 810.592 34.77C810.275 34.994 810.116 35.288 810.116 35.652C810.116 35.932 810.205 36.156 810.382 36.324C810.569 36.492 810.798 36.618 811.068 36.702C811.339 36.7767 811.712 36.856 812.188 36.94C812.776 37.052 813.248 37.164 813.602 37.276C813.957 37.388 814.26 37.5793 814.512 37.85C814.764 38.1207 814.89 38.494 814.89 38.97C814.89 39.614 814.62 40.1273 814.078 40.51C813.546 40.8833 812.804 41.07 811.852 41.07ZM819.878 40.188C820.335 40.188 820.755 40.1087 821.138 39.95C821.53 39.782 821.861 39.5393 822.132 39.222L822.692 39.866C822.365 40.258 821.959 40.5567 821.474 40.762C820.988 40.9673 820.452 41.07 819.864 41.07C819.108 41.07 818.436 40.9113 817.848 40.594C817.26 40.2673 816.802 39.8193 816.476 39.25C816.149 38.6807 815.986 38.0367 815.986 37.318C815.986 36.5993 816.14 35.9553 816.448 35.386C816.765 34.8167 817.199 34.3733 817.75 34.056C818.3 33.7387 818.926 33.58 819.626 33.58C820.279 33.58 820.867 33.7293 821.39 34.028C821.922 34.3267 822.342 34.742 822.65 35.274C822.967 35.806 823.135 36.4127 823.154 37.094L817.106 38.27C817.292 38.8673 817.628 39.3387 818.114 39.684C818.608 40.02 819.196 40.188 819.878 40.188ZM819.626 34.434C819.112 34.434 818.65 34.5553 818.24 34.798C817.838 35.0313 817.521 35.3627 817.288 35.792C817.064 36.212 816.952 36.6973 816.952 37.248C816.952 37.388 816.956 37.4907 816.966 37.556L822.16 36.548C822.048 35.932 821.763 35.428 821.306 35.036C820.848 34.6347 820.288 34.434 819.626 34.434ZM826.129 35.078C826.362 34.5833 826.708 34.21 827.165 33.958C827.632 33.706 828.206 33.58 828.887 33.58V34.546L828.649 34.532C827.874 34.532 827.268 34.77 826.829 35.246C826.39 35.722 826.171 36.3893 826.171 37.248V41H825.177V33.636H826.129V35.078ZM837.189 33.636L833.913 41H832.891L829.629 33.636H830.665L833.423 39.908L836.209 33.636H837.189ZM841.534 40.188C841.991 40.188 842.411 40.1087 842.794 39.95C843.186 39.782 843.517 39.5393 843.788 39.222L844.348 39.866C844.021 40.258 843.615 40.5567 843.13 40.762C842.645 40.9673 842.108 41.07 841.52 41.07C840.764 41.07 840.092 40.9113 839.504 40.594C838.916 40.2673 838.459 39.8193 838.132 39.25C837.805 38.6807 837.642 38.0367 837.642 37.318C837.642 36.5993 837.796 35.9553 838.104 35.386C838.421 34.8167 838.855 34.3733 839.406 34.056C839.957 33.7387 840.582 33.58 841.282 33.58C841.935 33.58 842.523 33.7293 843.046 34.028C843.578 34.3267 843.998 34.742 844.306 35.274C844.623 35.806 844.791 36.4127 844.81 37.094L838.762 38.27C838.949 38.8673 839.285 39.3387 839.77 39.684C840.265 40.02 840.853 40.188 841.534 40.188ZM841.282 34.434C840.769 34.434 840.307 34.5553 839.896 34.798C839.495 35.0313 839.177 35.3627 838.944 35.792C838.72 36.212 838.608 36.6973 838.608 37.248C838.608 37.388 838.613 37.4907 838.622 37.556L843.816 36.548C843.704 35.932 843.419 35.428 842.962 35.036C842.505 34.6347 841.945 34.434 841.282 34.434ZM853.553 30.612V41H852.601V39.544C852.303 40.0387 851.906 40.4167 851.411 40.678C850.926 40.9393 850.375 41.07 849.759 41.07C849.069 41.07 848.443 40.9113 847.883 40.594C847.323 40.2767 846.885 39.8333 846.567 39.264C846.25 38.6947 846.091 38.046 846.091 37.318C846.091 36.59 846.25 35.9413 846.567 35.372C846.885 34.8027 847.323 34.364 847.883 34.056C848.443 33.7387 849.069 33.58 849.759 33.58C850.357 33.58 850.893 33.706 851.369 33.958C851.855 34.2007 852.251 34.56 852.559 35.036V30.612H853.553ZM849.843 40.188C850.357 40.188 850.819 40.0713 851.229 39.838C851.649 39.5953 851.976 39.2547 852.209 38.816C852.452 38.3773 852.573 37.878 852.573 37.318C852.573 36.758 852.452 36.2587 852.209 35.82C851.976 35.3813 851.649 35.0453 851.229 34.812C850.819 34.5693 850.357 34.448 849.843 34.448C849.321 34.448 848.849 34.5693 848.429 34.812C848.019 35.0453 847.692 35.3813 847.449 35.82C847.216 36.2587 847.099 36.758 847.099 37.318C847.099 37.878 847.216 38.3773 847.449 38.816C847.692 39.2547 848.019 39.5953 848.429 39.838C848.849 40.0713 849.321 40.188 849.843 40.188Z" fill="#F5EA92"/>
</svg>
