<svg width="397" height="50" viewBox="0 0 397 50" fill="none" xmlns="http://www.w3.org/2000/svg">
<rect x="0.5" y="1.02698" width="396" height="48" rx="5.5" fill="#124874" fill-opacity="0.8"/>
<path d="M163.266 17.0394H167.082V30.4179H175.349V33.527H163.266V17.0394ZM182.689 33.7154C181.354 33.7154 180.153 33.4406 179.085 32.891C178.033 32.3257 177.208 31.5485 176.612 30.5592C176.015 29.57 175.717 28.4472 175.717 27.1911C175.717 25.9349 176.015 24.8121 176.612 23.8229C177.208 22.8336 178.033 22.0642 179.085 21.5146C180.153 20.9493 181.354 20.6667 182.689 20.6667C184.023 20.6667 185.217 20.9493 186.269 21.5146C187.321 22.0642 188.145 22.8336 188.742 23.8229C189.339 24.8121 189.637 25.9349 189.637 27.1911C189.637 28.4472 189.339 29.57 188.742 30.5592C188.145 31.5485 187.321 32.3257 186.269 32.891C185.217 33.4406 184.023 33.7154 182.689 33.7154ZM182.689 30.7005C183.631 30.7005 184.4 30.3865 184.997 29.7584C185.609 29.1146 185.915 28.2588 185.915 27.1911C185.915 26.1233 185.609 25.2754 184.997 24.6473C184.4 24.0035 183.631 23.6816 182.689 23.6816C181.746 23.6816 180.969 24.0035 180.357 24.6473C179.744 25.2754 179.438 26.1233 179.438 27.1911C179.438 28.2588 179.744 29.1146 180.357 29.7584C180.969 30.3865 181.746 30.7005 182.689 30.7005ZM204.694 20.8551V31.4072C204.694 33.7311 204.09 35.4584 202.88 36.5889C201.671 37.7195 199.905 38.2848 197.581 38.2848C196.356 38.2848 195.194 38.1356 194.095 37.8373C192.996 37.5389 192.085 37.1071 191.363 36.5418L192.823 33.9038C193.357 34.3435 194.032 34.689 194.849 34.9402C195.665 35.2071 196.482 35.3406 197.298 35.3406C198.57 35.3406 199.504 35.0501 200.101 34.4691C200.713 33.9038 201.02 33.0402 201.02 31.8782V31.3365C200.062 32.3886 198.727 32.9146 197.016 32.9146C195.854 32.9146 194.786 32.6633 193.812 32.1609C192.854 31.6427 192.093 30.9204 191.528 29.9939C190.962 29.0675 190.68 27.9997 190.68 26.7906C190.68 25.5816 190.962 24.5138 191.528 23.5874C192.093 22.6609 192.854 21.9465 193.812 21.444C194.786 20.9258 195.854 20.6667 197.016 20.6667C198.853 20.6667 200.25 21.2712 201.208 22.4803V20.8551H204.694ZM197.746 29.8997C198.719 29.8997 199.512 29.6171 200.125 29.0518C200.753 28.4708 201.067 27.7171 201.067 26.7906C201.067 25.8642 200.753 25.1183 200.125 24.5531C199.512 23.9721 198.719 23.6816 197.746 23.6816C196.772 23.6816 195.971 23.9721 195.343 24.5531C194.715 25.1183 194.401 25.8642 194.401 26.7906C194.401 27.7171 194.715 28.4708 195.343 29.0518C195.971 29.6171 196.772 29.8997 197.746 29.8997ZM214.101 17.0394H217.917V33.527H214.101V17.0394ZM228.802 20.6667C230.372 20.6667 231.636 21.1378 232.594 22.0799C233.567 23.0221 234.054 24.4196 234.054 26.2725V33.527H230.38V26.8378C230.38 25.8328 230.16 25.0869 229.72 24.6002C229.281 24.0977 228.645 23.8464 227.812 23.8464C226.886 23.8464 226.148 24.1369 225.598 24.7179C225.049 25.2832 224.774 26.1311 224.774 27.2617V33.527H221.1V20.8551H224.609V22.339C225.096 21.8051 225.7 21.3969 226.423 21.1142C227.145 20.8159 227.938 20.6667 228.802 20.6667Z" fill="white"/>
<rect x="0.5" y="1.02698" width="396" height="48" rx="5.5" stroke="#3373A7"/>
</svg>
