<svg width="90" height="42" viewBox="0 0 90 42" fill="none" xmlns="http://www.w3.org/2000/svg">
<rect width="90" height="42" rx="6" fill="#91AFC8"/>
<path d="M22.2222 14.4H23.5542V25.848H30.6102V27H22.2222V14.4ZM35.9212 27.09C35.0092 27.09 34.1872 26.886 33.4552 26.478C32.7232 26.058 32.1472 25.482 31.7272 24.75C31.3072 24.018 31.0972 23.19 31.0972 22.266C31.0972 21.342 31.3072 20.514 31.7272 19.782C32.1472 19.05 32.7232 18.48 33.4552 18.072C34.1872 17.664 35.0092 17.46 35.9212 17.46C36.8332 17.46 37.6552 17.664 38.3872 18.072C39.1192 18.48 39.6892 19.05 40.0972 19.782C40.5172 20.514 40.7272 21.342 40.7272 22.266C40.7272 23.19 40.5172 24.018 40.0972 24.75C39.6892 25.482 39.1192 26.058 38.3872 26.478C37.6552 26.886 36.8332 27.09 35.9212 27.09ZM35.9212 25.956C36.5932 25.956 37.1932 25.806 37.7212 25.506C38.2612 25.194 38.6812 24.756 38.9812 24.192C39.2812 23.628 39.4312 22.986 39.4312 22.266C39.4312 21.546 39.2812 20.904 38.9812 20.34C38.6812 19.776 38.2612 19.344 37.7212 19.044C37.1932 18.732 36.5932 18.576 35.9212 18.576C35.2492 18.576 34.6432 18.732 34.1032 19.044C33.5752 19.344 33.1552 19.776 32.8432 20.34C32.5432 20.904 32.3932 21.546 32.3932 22.266C32.3932 22.986 32.5432 23.628 32.8432 24.192C33.1552 24.756 33.5752 25.194 34.1032 25.506C34.6432 25.806 35.2492 25.956 35.9212 25.956ZM51.7423 17.532V25.848C51.7423 27.456 51.3463 28.644 50.5543 29.412C49.7743 30.192 48.5923 30.582 47.0083 30.582C46.1323 30.582 45.2983 30.45 44.5063 30.186C43.7263 29.934 43.0903 29.58 42.5983 29.124L43.2463 28.152C43.7023 28.56 44.2543 28.878 44.9023 29.106C45.5623 29.334 46.2523 29.448 46.9723 29.448C48.1723 29.448 49.0543 29.166 49.6183 28.602C50.1823 28.05 50.4643 27.186 50.4643 26.01V24.804C50.0683 25.404 49.5463 25.86 48.8983 26.172C48.2623 26.484 47.5543 26.64 46.7743 26.64C45.8863 26.64 45.0763 26.448 44.3443 26.064C43.6243 25.668 43.0543 25.122 42.6343 24.426C42.2263 23.718 42.0223 22.92 42.0223 22.032C42.0223 21.144 42.2263 20.352 42.6343 19.656C43.0543 18.96 43.6243 18.42 44.3443 18.036C45.0643 17.652 45.8743 17.46 46.7743 17.46C47.5783 17.46 48.3043 17.622 48.9523 17.946C49.6003 18.27 50.1223 18.738 50.5183 19.35V17.532H51.7423ZM46.9003 25.506C47.5843 25.506 48.2023 25.362 48.7543 25.074C49.3063 24.774 49.7323 24.36 50.0323 23.832C50.3443 23.304 50.5003 22.704 50.5003 22.032C50.5003 21.36 50.3443 20.766 50.0323 20.25C49.7323 19.722 49.3063 19.314 48.7543 19.026C48.2143 18.726 47.5963 18.576 46.9003 18.576C46.2163 18.576 45.5983 18.72 45.0463 19.008C44.5063 19.296 44.0803 19.704 43.7683 20.232C43.4683 20.76 43.3183 21.36 43.3183 22.032C43.3183 22.704 43.4683 23.304 43.7683 23.832C44.0803 24.36 44.5063 24.774 45.0463 25.074C45.5983 25.362 46.2163 25.506 46.9003 25.506ZM54.9562 17.532H56.2342V27H54.9562V17.532ZM55.6042 15.462C55.3402 15.462 55.1182 15.372 54.9382 15.192C54.7582 15.012 54.6682 14.796 54.6682 14.544C54.6682 14.304 54.7582 14.094 54.9382 13.914C55.1182 13.734 55.3402 13.644 55.6042 13.644C55.8682 13.644 56.0902 13.734 56.2702 13.914C56.4502 14.082 56.5402 14.286 56.5402 14.526C56.5402 14.79 56.4502 15.012 56.2702 15.192C56.0902 15.372 55.8682 15.462 55.6042 15.462ZM64.2542 17.46C65.4422 17.46 66.3842 17.808 67.0802 18.504C67.7882 19.188 68.1422 20.19 68.1422 21.51V27H66.8642V21.636C66.8642 20.652 66.6182 19.902 66.1262 19.386C65.6342 18.87 64.9322 18.612 64.0202 18.612C63.0002 18.612 62.1902 18.918 61.5902 19.53C61.0022 20.13 60.7082 20.964 60.7082 22.032V27H59.4302V17.532H60.6542V19.278C61.0022 18.702 61.4822 18.258 62.0942 17.946C62.7182 17.622 63.4382 17.46 64.2542 17.46Z" fill="white"/>
</svg>
