<svg width="194" height="46" viewBox="0 0 194 46" fill="none" xmlns="http://www.w3.org/2000/svg">
<path d="M23.3265 23.6942C23.3265 35.4269 42.4182 45.7712 30.6855 45.7712C18.9529 45.7712 0 35.4269 0 23.6942C0 11.9616 11.5939 0.228851 23.3265 0.228851C43.043 0.228851 23.3265 11.9616 23.3265 23.6942Z" fill="#F8AA15"/>
<path d="M40.055 15.7977C40.606 16.082 40.8814 16.5352 40.8814 17.1573C40.8814 17.5305 40.7481 17.8948 40.4816 18.2503C40.1972 18.6235 39.8329 18.8101 39.3885 18.8101C39.0864 18.8101 38.7843 18.7301 38.4821 18.5702C37.6113 18.1614 36.6693 17.957 35.6563 17.957C34.4122 17.957 33.3281 18.2236 32.4039 18.7568C31.4797 19.2722 30.7688 20.0098 30.2712 20.9695C29.7736 21.9114 29.5247 22.9956 29.5247 24.2219C29.5247 26.319 30.0846 27.9097 31.2043 28.9938C32.3417 30.0779 33.8257 30.62 35.6563 30.62C36.7404 30.62 37.6824 30.4156 38.4821 30.0069C38.802 29.8647 39.0864 29.7936 39.3352 29.7936C39.7973 29.7936 40.1883 29.9891 40.5082 30.3801C40.7748 30.7178 40.9081 31.0821 40.9081 31.4731C40.9081 31.7575 40.837 32.0152 40.6948 32.2462C40.5526 32.4772 40.3483 32.655 40.0817 32.7794C38.6954 33.4725 37.2203 33.8191 35.6563 33.8191C33.9146 33.8191 32.315 33.4547 30.8577 32.7261C29.4003 31.9796 28.2362 30.8866 27.3654 29.447C26.4945 28.0074 26.0591 26.2657 26.0591 24.2219C26.0591 22.4091 26.4679 20.7829 27.2854 19.3433C28.1207 17.9037 29.267 16.784 30.7244 15.9843C32.1817 15.1667 33.8257 14.758 35.6563 14.758C37.2381 14.758 38.7043 15.1045 40.055 15.7977Z" fill="black"/>
<path d="M58.3418 30.9399C58.5728 31.0821 58.7505 31.2687 58.875 31.4998C59.0171 31.7308 59.0882 31.9707 59.0882 32.2195C59.0882 32.5395 58.9816 32.8327 58.7683 33.0993C58.5017 33.4192 58.093 33.5791 57.542 33.5791C57.1155 33.5791 56.7245 33.4814 56.369 33.2859C55.0894 32.5572 54.4496 31.0732 54.4496 28.8339C54.4496 28.194 54.2363 27.6875 53.8098 27.3143C53.401 26.9411 52.8056 26.7545 52.0236 26.7545H47.0384V31.9263C47.0384 32.4062 46.9051 32.7972 46.6385 33.0993C46.3897 33.4014 46.052 33.5525 45.6255 33.5525C45.1101 33.5525 44.6569 33.4014 44.2659 33.0993C43.8926 32.7794 43.706 32.3884 43.706 31.9263V16.5174C43.706 16.0554 43.8571 15.6732 44.1592 15.3711C44.4791 15.0512 44.8701 14.8913 45.3322 14.8913H53.01C53.9342 14.8913 54.805 15.1401 55.6226 15.6377C56.4401 16.1353 57.0888 16.8196 57.5687 17.6904C58.0663 18.5613 58.3151 19.5388 58.3151 20.6229C58.3151 21.5115 58.0752 22.3824 57.5953 23.2355C57.1155 24.0708 56.4934 24.7373 55.7292 25.2349C56.8489 26.0169 57.462 27.0655 57.5687 28.3807C57.622 28.665 57.6486 28.9405 57.6486 29.2071C57.7197 29.758 57.7908 30.1579 57.8619 30.4067C57.933 30.6378 58.093 30.8155 58.3418 30.9399ZM52.8767 24.0086C53.1966 24.0086 53.5076 23.8575 53.8098 23.5554C54.1119 23.2533 54.3607 22.8534 54.5562 22.3557C54.7517 21.8403 54.8495 21.2894 54.8495 20.7029C54.8495 20.2053 54.7517 19.7521 54.5562 19.3433C54.3607 18.9167 54.1119 18.5791 53.8098 18.3303C53.5076 18.0814 53.1966 17.957 52.8767 17.957H47.0384V24.0086H52.8767Z" fill="black"/>
<path d="M74.9767 16.4641C74.9767 16.8196 74.879 17.1484 74.6835 17.4505L69.1118 25.4215V31.9263C69.1118 32.3884 68.9607 32.7794 68.6586 33.0993C68.3564 33.4014 67.9921 33.5525 67.5655 33.5525C67.1212 33.5525 66.7391 33.4014 66.4192 33.0993C66.1171 32.7794 65.966 32.3884 65.966 31.9263V25.0483L60.421 17.6904C60.1011 17.2639 59.9411 16.8462 59.9411 16.4375C59.9411 15.9754 60.1188 15.5933 60.4743 15.2911C60.8475 14.9712 61.2385 14.8113 61.6473 14.8113C62.1449 14.8113 62.5803 15.0601 62.9536 15.5577L67.6455 22.0358L72.0442 15.611C72.4175 15.0779 72.8618 14.8113 73.3772 14.8113C73.8037 14.8113 74.177 14.9712 74.4969 15.2911C74.8168 15.611 74.9767 16.002 74.9767 16.4641Z" fill="black"/>
<path d="M85.0725 14.8913C85.9789 14.8913 86.8409 15.1667 87.6584 15.7177C88.476 16.2509 89.1336 16.9795 89.6312 17.9037C90.1288 18.8101 90.3777 19.8054 90.3777 20.8895C90.3777 21.9559 90.1288 22.9511 89.6312 23.8753C89.1336 24.7995 88.476 25.537 87.6584 26.088C86.8409 26.6212 85.9789 26.8878 85.0725 26.8878H80.4339V31.9263C80.4339 32.4062 80.2917 32.7972 80.0073 33.0993C79.723 33.4014 79.3498 33.5525 78.8877 33.5525C78.4434 33.5525 78.079 33.4014 77.7947 33.0993C77.5103 32.7794 77.3681 32.3884 77.3681 31.9263V16.5174C77.3681 16.0554 77.5192 15.6732 77.8213 15.3711C78.1412 15.0512 78.5322 14.8913 78.9943 14.8913H85.0725ZM85.0725 23.8486C85.4102 23.8486 85.739 23.7065 86.0589 23.4221C86.3966 23.1377 86.6632 22.7734 86.8587 22.3291C87.0719 21.867 87.1786 21.3871 87.1786 20.8895C87.1786 20.3919 87.0719 19.9209 86.8587 19.4766C86.6632 19.0145 86.3966 18.6502 86.0589 18.3836C85.739 18.0992 85.4102 17.957 85.0725 17.957H80.4339V23.8486H85.0725Z" fill="black"/>
<path d="M105.694 14.8913C106.174 14.8913 106.565 15.0334 106.867 15.3178C107.169 15.6022 107.32 15.9754 107.32 16.4375C107.32 16.8996 107.169 17.2728 106.867 17.5571C106.565 17.8237 106.174 17.957 105.694 17.957H101.509V31.9263C101.509 32.3884 101.34 32.7794 101.002 33.0993C100.665 33.4014 100.247 33.5525 99.7493 33.5525C99.2517 33.5525 98.8429 33.4014 98.523 33.0993C98.2031 32.7794 98.0431 32.3884 98.0431 31.9263V17.957H93.8577C93.3778 17.957 92.9868 17.8148 92.6847 17.5305C92.3826 17.2461 92.2315 16.8729 92.2315 16.4108C92.2315 15.9665 92.3826 15.6022 92.6847 15.3178C93.0046 15.0334 93.3956 14.8913 93.8577 14.8913H105.694Z" fill="black"/>
<path d="M126.767 24.2219C126.767 25.9814 126.376 27.5987 125.594 29.0738C124.812 30.5311 123.728 31.6864 122.341 32.5395C120.973 33.3925 119.427 33.8191 117.703 33.8191C115.979 33.8191 114.424 33.3925 113.037 32.5395C111.669 31.6864 110.594 30.5311 109.812 29.0738C109.047 27.5987 108.665 25.9814 108.665 24.2219C108.665 22.4624 109.047 20.854 109.812 19.3966C110.594 17.9215 111.669 16.7574 113.037 15.9043C114.424 15.0512 115.979 14.6247 117.703 14.6247C119.427 14.6247 120.973 15.0512 122.341 15.9043C123.728 16.7574 124.812 17.9215 125.594 19.3966C126.376 20.854 126.767 22.4624 126.767 24.2219ZM123.301 24.2219C123.301 23.0311 123.061 21.9559 122.581 20.9961C122.101 20.0187 121.435 19.2455 120.582 18.6768C119.729 18.1081 118.769 17.8237 117.703 17.8237C116.618 17.8237 115.65 18.1081 114.797 18.6768C113.961 19.2278 113.304 19.992 112.824 20.9695C112.362 21.947 112.131 23.0311 112.131 24.2219C112.131 25.4126 112.362 26.4968 112.824 27.4743C113.304 28.4518 113.961 29.2249 114.797 29.7936C115.65 30.3445 116.618 30.62 117.703 30.62C118.769 30.62 119.729 30.3356 120.582 29.7669C121.435 29.1982 122.101 28.434 122.581 27.4743C123.061 26.4968 123.301 25.4126 123.301 24.2219Z" fill="black"/>
<path d="M143.983 14.8913C144.409 14.8913 144.756 15.0334 145.022 15.3178C145.289 15.6022 145.422 15.9576 145.422 16.3842V31.9263C145.422 32.3884 145.262 32.7794 144.942 33.0993C144.64 33.4014 144.258 33.5525 143.796 33.5525C143.547 33.5525 143.298 33.5169 143.05 33.4459C142.819 33.357 142.65 33.2415 142.543 33.0993L132.759 20.6762V32.0596C132.759 32.4861 132.617 32.8416 132.333 33.1259C132.066 33.4103 131.711 33.5525 131.266 33.5525C130.84 33.5525 130.493 33.4103 130.227 33.1259C129.96 32.8416 129.827 32.4861 129.827 32.0596V16.5174C129.827 16.0554 129.978 15.6732 130.28 15.3711C130.6 15.0512 130.991 14.8913 131.453 14.8913C131.72 14.8913 131.977 14.9446 132.226 15.0512C132.493 15.1578 132.688 15.3 132.813 15.4777L142.516 27.8475V16.3842C142.516 15.9576 142.65 15.6022 142.916 15.3178C143.201 15.0334 143.556 14.8913 143.983 14.8913Z" fill="black"/>
<path d="M164.066 31.4731C164.155 31.7041 164.2 31.9174 164.2 32.1129C164.2 32.575 164.048 32.9571 163.746 33.2592C163.444 33.5436 163.098 33.6858 162.707 33.6858C162.387 33.6858 162.093 33.588 161.827 33.3925C161.578 33.197 161.383 32.9304 161.24 32.5928L159.854 29.367H151.91L150.523 32.6194C150.399 32.9571 150.204 33.2237 149.937 33.4192C149.688 33.5969 149.413 33.6858 149.111 33.6858C148.648 33.6858 148.293 33.5614 148.044 33.3126C147.813 33.0637 147.698 32.7261 147.698 32.2995C147.698 32.1396 147.724 31.9707 147.778 31.793L154.416 15.851C154.558 15.4955 154.771 15.22 155.055 15.0245C155.34 14.829 155.66 14.7491 156.015 14.7846C156.335 14.7846 156.628 14.8824 156.895 15.0779C157.179 15.2556 157.384 15.5133 157.508 15.851L164.066 31.4731ZM158.548 26.3013L155.855 20.0631L153.216 26.3013H158.548Z" fill="black"/>
<path d="M177.392 14.8913C177.872 14.8913 178.263 15.0334 178.565 15.3178C178.867 15.6022 179.018 15.9754 179.018 16.4375C179.018 16.8996 178.867 17.2728 178.565 17.5571C178.263 17.8237 177.872 17.957 177.392 17.957H173.207V31.9263C173.207 32.3884 173.038 32.7794 172.7 33.0993C172.362 33.4014 171.945 33.5525 171.447 33.5525C170.95 33.5525 170.541 33.4014 170.221 33.0993C169.901 32.7794 169.741 32.3884 169.741 31.9263V17.957H165.556C165.076 17.957 164.685 17.8148 164.383 17.5305C164.08 17.2461 163.929 16.8729 163.929 16.4108C163.929 15.9665 164.08 15.6022 164.383 15.3178C164.702 15.0334 165.093 14.8913 165.556 14.8913H177.392Z" fill="black"/>
<path d="M192.374 30.4867C192.836 30.4867 193.218 30.6467 193.52 30.9666C193.84 31.2687 194 31.6242 194 32.0329C194 32.4772 193.84 32.8416 193.52 33.1259C193.218 33.4103 192.836 33.5525 192.374 33.5525H183.443C182.981 33.5525 182.59 33.4014 182.27 33.0993C181.968 32.7794 181.817 32.3884 181.817 31.9263V16.5174C181.817 16.0554 181.968 15.6732 182.27 15.3711C182.59 15.0512 182.981 14.8913 183.443 14.8913H192.374C192.836 14.8913 193.218 15.0423 193.52 15.3445C193.84 15.6288 194 16.002 194 16.4641C194 16.9084 193.849 17.2728 193.547 17.5571C193.245 17.8237 192.854 17.957 192.374 17.957H185.149V22.489H191.174C191.636 22.489 192.018 22.6401 192.32 22.9422C192.64 23.2266 192.8 23.5998 192.8 24.0619C192.8 24.5062 192.649 24.8706 192.347 25.1549C192.045 25.4215 191.654 25.5548 191.174 25.5548H185.149V30.4867H192.374Z" fill="black"/>
</svg>
