<svg width="383" height="84" viewBox="0 0 383 84" fill="none" xmlns="http://www.w3.org/2000/svg">
<path d="M46.6215 43.0592C46.6215 64.5656 84.1651 83.527 61.0929 83.527C38.0207 83.527 0.75 64.5656 0.75 43.0592C0.75 21.5529 23.5494 0.0463409 46.6215 0.0463409C85.3939 0.0463409 46.6215 21.5529 46.6215 43.0592Z" fill="#F8AA15"/>
<path d="M79.518 28.5845C80.6014 29.1057 81.1431 29.9365 81.1431 31.0767C81.1431 31.7608 80.881 32.4287 80.3568 33.0802C79.7976 33.7643 79.0811 34.1064 78.2074 34.1064C77.6132 34.1064 77.0191 33.9598 76.4249 33.6666C74.7124 32.9173 72.8601 32.5427 70.8679 32.5427C68.4214 32.5427 66.2895 33.0313 64.4721 34.0087C62.6547 34.9534 61.2567 36.3054 60.2781 38.0646C59.2996 39.7912 58.8103 41.7785 58.8103 44.0264C58.8103 47.8705 59.9112 50.7863 62.113 52.7735C64.3498 54.7607 67.2681 55.7544 70.8679 55.7544C72.9998 55.7544 74.8522 55.3797 76.4249 54.6304C77.054 54.3698 77.6132 54.2395 78.1025 54.2395C79.0112 54.2395 79.7801 54.5979 80.4092 55.3146C80.9334 55.9335 81.1956 56.6014 81.1956 57.3181C81.1956 57.8394 81.0558 58.3117 80.7762 58.7352C80.4966 59.1588 80.0946 59.4845 79.5704 59.7126C76.8443 60.9831 73.9435 61.6184 70.8679 61.6184C67.4428 61.6184 64.2974 60.9505 61.4315 59.6148C58.5656 58.2466 56.2764 56.243 54.5639 53.6042C52.8513 50.9654 51.9951 47.7728 51.9951 44.0264C51.9951 40.7034 52.7989 37.7226 54.4066 35.0837C56.0492 32.4449 58.3035 30.3925 61.1694 28.9265C64.0352 27.428 67.2681 26.6787 70.8679 26.6787C73.9784 26.6787 76.8618 27.3139 79.518 28.5845Z" fill="black"/>
<path d="M115.479 56.3408C115.933 56.6014 116.283 56.9435 116.527 57.367C116.807 57.7905 116.947 58.2303 116.947 58.6864C116.947 59.2728 116.737 59.8103 116.318 60.299C115.793 60.8854 114.99 61.1786 113.906 61.1786C113.067 61.1786 112.298 60.9994 111.599 60.641C109.083 59.3054 107.825 56.5851 107.825 52.4803C107.825 51.3075 107.405 50.379 106.567 49.6949C105.763 49.0108 104.592 48.6687 103.054 48.6687H93.2508V58.1488C93.2508 59.0284 92.9886 59.7452 92.4644 60.299C91.9751 60.8528 91.3111 61.1297 90.4723 61.1297C89.4587 61.1297 88.5675 60.8528 87.7986 60.299C87.0647 59.7126 86.6977 58.9959 86.6977 58.1488V29.9039C86.6977 29.0569 86.9948 28.3564 87.5889 27.8026C88.218 27.2162 88.9869 26.923 89.8956 26.923H104.994C106.811 26.923 108.524 27.3791 110.131 28.2913C111.739 29.2035 113.015 30.4577 113.958 32.054C114.937 33.6503 115.426 35.4421 115.426 37.4294C115.426 39.0582 114.955 40.6546 114.011 42.2183C113.067 43.7494 111.844 44.9711 110.341 45.8833C112.543 47.3167 113.749 49.2388 113.958 51.6496C114.063 52.1708 114.116 52.6758 114.116 53.1644C114.256 54.1743 114.395 54.9073 114.535 55.3634C114.675 55.7869 114.99 56.1127 115.479 56.3408ZM104.732 43.6354C105.361 43.6354 105.972 43.3585 106.567 42.8047C107.161 42.2509 107.65 41.5179 108.035 40.6057C108.419 39.6609 108.611 38.651 108.611 37.576C108.611 36.6638 108.419 35.833 108.035 35.0837C107.65 34.3019 107.161 33.6829 106.567 33.2268C105.972 32.7707 105.361 32.5427 104.732 32.5427H93.2508V43.6354H104.732Z" fill="black"/>
<path d="M148.191 29.8061C148.191 30.4577 147.999 31.0604 147.615 31.6142L136.658 46.2254V58.1488C136.658 58.9959 136.361 59.7126 135.767 60.299C135.173 60.8528 134.456 61.1297 133.617 61.1297C132.744 61.1297 131.992 60.8528 131.363 60.299C130.769 59.7126 130.472 58.9959 130.472 58.1488V45.5412L119.568 32.054C118.938 31.2721 118.624 30.5066 118.624 29.7573C118.624 28.9103 118.973 28.2098 119.672 27.656C120.406 27.0696 121.175 26.7764 121.979 26.7764C122.958 26.7764 123.814 27.2325 124.548 28.1447L133.775 40.0193L142.425 28.2424C143.159 27.2651 144.032 26.7764 145.046 26.7764C145.885 26.7764 146.619 27.0696 147.248 27.656C147.877 28.2424 148.191 28.9591 148.191 29.8061Z" fill="black"/>
<path d="M168.045 26.923C169.827 26.923 171.522 27.428 173.13 28.4379C174.738 29.4152 176.031 30.7509 177.009 32.4449C177.988 34.1064 178.477 35.9308 178.477 37.918C178.477 39.8727 177.988 41.697 177.009 43.3911C176.031 45.0851 174.738 46.4371 173.13 47.447C171.522 48.4244 169.827 48.913 168.045 48.913H158.923V58.1488C158.923 59.0284 158.643 59.7452 158.084 60.299C157.525 60.8528 156.791 61.1297 155.882 61.1297C155.008 61.1297 154.292 60.8528 153.733 60.299C153.174 59.7126 152.894 58.9959 152.894 58.1488V29.9039C152.894 29.0569 153.191 28.3564 153.785 27.8026C154.414 27.2162 155.183 26.923 156.092 26.923H168.045ZM168.045 43.3422C168.709 43.3422 169.355 43.0816 169.984 42.5604C170.648 42.0391 171.173 41.3713 171.557 40.5568C171.977 39.7098 172.186 38.8302 172.186 37.918C172.186 37.0058 171.977 36.1425 171.557 35.3281C171.173 34.4811 170.648 33.8132 169.984 33.3245C169.355 32.8033 168.709 32.5427 168.045 32.5427H158.923V43.3422H168.045Z" fill="black"/>
<path d="M208.597 26.923C209.541 26.923 210.31 27.1836 210.904 27.7049C211.498 28.2261 211.795 28.9103 211.795 29.7573C211.795 30.6043 211.498 31.2884 210.904 31.8097C210.31 32.2983 209.541 32.5427 208.597 32.5427H200.367V58.1488C200.367 58.9959 200.034 59.7126 199.37 60.299C198.706 60.8528 197.885 61.1297 196.906 61.1297C195.928 61.1297 195.124 60.8528 194.495 60.299C193.866 59.7126 193.551 58.9959 193.551 58.1488V32.5427H185.321C184.377 32.5427 183.608 32.2821 183.014 31.7608C182.42 31.2396 182.123 30.5554 182.123 29.7084C182.123 28.894 182.42 28.2261 183.014 27.7049C183.643 27.1836 184.412 26.923 185.321 26.923H208.597Z" fill="black"/>
<path d="M250.036 44.0264C250.036 47.2516 249.267 50.2161 247.729 52.9201C246.191 55.5915 244.06 57.709 241.333 59.2728C238.642 60.8365 235.602 61.6184 232.212 61.6184C228.821 61.6184 225.763 60.8365 223.037 59.2728C220.346 57.709 218.232 55.5915 216.694 52.9201C215.191 50.2161 214.44 47.2516 214.44 44.0264C214.44 40.8012 215.191 37.8529 216.694 35.1815C218.232 32.4775 220.346 30.3437 223.037 28.7799C225.763 27.2162 228.821 26.4343 232.212 26.4343C235.602 26.4343 238.642 27.2162 241.333 28.7799C244.06 30.3437 246.191 32.4775 247.729 35.1815C249.267 37.8529 250.036 40.8012 250.036 44.0264ZM243.221 44.0264C243.221 41.8436 242.749 39.8727 241.805 38.1135C240.862 36.3217 239.551 34.9046 237.873 33.8621C236.196 32.8196 234.309 32.2983 232.212 32.2983C230.08 32.2983 228.175 32.8196 226.497 33.8621C224.855 34.872 223.562 36.2728 222.618 38.0646C221.709 39.8564 221.255 41.8436 221.255 44.0264C221.255 46.2091 221.709 48.1963 222.618 49.9881C223.562 51.7799 224.855 53.197 226.497 54.2395C228.175 55.2494 230.08 55.7544 232.212 55.7544C234.309 55.7544 236.196 55.2331 237.873 54.1906C239.551 53.1481 240.862 51.7473 241.805 49.9881C242.749 48.1963 243.221 46.2091 243.221 44.0264Z" fill="black"/>
<path d="M283.891 26.923C284.73 26.923 285.412 27.1836 285.936 27.7049C286.46 28.2261 286.722 28.8777 286.722 29.6595V58.1488C286.722 58.9959 286.408 59.7126 285.778 60.299C285.184 60.8528 284.433 61.1297 283.524 61.1297C283.035 61.1297 282.546 61.0646 282.056 60.9342C281.602 60.7714 281.27 60.5596 281.06 60.299L261.82 37.5271V58.3932C261.82 59.175 261.541 59.8266 260.982 60.3478C260.457 60.8691 259.758 61.1297 258.885 61.1297C258.046 61.1297 257.364 60.8691 256.84 60.3478C256.316 59.8266 256.054 59.175 256.054 58.3932V29.9039C256.054 29.0569 256.351 28.3564 256.945 27.8026C257.574 27.2162 258.343 26.923 259.252 26.923C259.776 26.923 260.283 27.0207 260.772 27.2162C261.296 27.4117 261.681 27.6723 261.925 27.9981L281.008 50.6722V29.6595C281.008 28.8777 281.27 28.2261 281.794 27.7049C282.353 27.1836 283.052 26.923 283.891 26.923Z" fill="black"/>
<path d="M323.385 57.3181C323.56 57.7416 323.647 58.1325 323.647 58.4909C323.647 59.3379 323.35 60.0384 322.756 60.5922C322.162 61.1134 321.481 61.374 320.712 61.374C320.083 61.374 319.506 61.1949 318.982 60.8365C318.492 60.4782 318.108 59.9895 317.828 59.3705L315.102 53.4576H299.48L296.754 59.4194C296.509 60.0384 296.125 60.527 295.6 60.8854C295.111 61.2112 294.569 61.374 293.975 61.374C293.066 61.374 292.367 61.146 291.878 60.6899C291.424 60.2338 291.197 59.6148 291.197 58.833C291.197 58.5398 291.249 58.2303 291.354 57.9045L304.408 28.6822C304.687 28.0307 305.107 27.5257 305.666 27.1673C306.225 26.809 306.854 26.6624 307.553 26.7275C308.182 26.7275 308.759 26.9067 309.283 27.2651C309.842 27.5909 310.244 28.0632 310.489 28.6822L323.385 57.3181ZM312.533 47.838L307.239 36.4032L302.049 47.838H312.533Z" fill="black"/>
<path d="M349.591 26.923C350.534 26.923 351.303 27.1836 351.897 27.7049C352.492 28.2261 352.789 28.9103 352.789 29.7573C352.789 30.6043 352.492 31.2884 351.897 31.8097C351.303 32.2983 350.534 32.5427 349.591 32.5427H341.36V58.1488C341.36 58.9959 341.028 59.7126 340.364 60.299C339.7 60.8528 338.879 61.1297 337.9 61.1297C336.921 61.1297 336.118 60.8528 335.488 60.299C334.859 59.7126 334.545 58.9959 334.545 58.1488V32.5427H326.314C325.371 32.5427 324.602 32.2821 324.007 31.7608C323.413 31.2396 323.116 30.5554 323.116 29.7084C323.116 28.894 323.413 28.2261 324.007 27.7049C324.637 27.1836 325.405 26.923 326.314 26.923H349.591Z" fill="black"/>
<path d="M379.052 55.51C379.961 55.51 380.712 55.8032 381.306 56.3896C381.935 56.9435 382.25 57.595 382.25 58.3443C382.25 59.1588 381.935 59.8266 381.306 60.3478C380.712 60.8691 379.961 61.1297 379.052 61.1297H361.49C360.581 61.1297 359.812 60.8528 359.183 60.299C358.589 59.7126 358.292 58.9959 358.292 58.1488V29.9039C358.292 29.0569 358.589 28.3564 359.183 27.8026C359.812 27.2162 360.581 26.923 361.49 26.923H379.052C379.961 26.923 380.712 27.1999 381.306 27.7537C381.935 28.275 382.25 28.9591 382.25 29.8061C382.25 30.6206 381.953 31.2884 381.359 31.8097C380.765 32.2983 379.996 32.5427 379.052 32.5427H364.845V40.85H376.693C377.602 40.85 378.353 41.1269 378.947 41.6808C379.576 42.202 379.891 42.8861 379.891 43.7332C379.891 44.5476 379.594 45.2154 379 45.7367C378.406 46.2254 377.637 46.4697 376.693 46.4697H364.845V55.51H379.052Z" fill="black"/>
</svg>
