<svg width="337" height="98" viewBox="0 0 337 98" fill="none" xmlns="http://www.w3.org/2000/svg">
<path d="M40.6158 50.2652C40.6158 75.2524 73.7555 97.2828 53.3897 97.2828C33.0239 97.2828 0.125 75.2524 0.125 50.2652C0.125 25.278 20.25 0.290527 40.6158 0.290527C74.8402 0.290527 40.6158 25.278 40.6158 50.2652Z" fill="#F8AA15"/>
<path d="M69.6535 33.4477C70.6098 34.0533 71.088 35.0185 71.088 36.3432C71.088 37.1381 70.8566 37.914 70.3939 38.671C69.9003 39.4659 69.2679 39.8633 68.4966 39.8633C67.9722 39.8633 67.4477 39.693 66.9233 39.3523C65.4116 38.4818 63.7765 38.0465 62.0181 38.0465C59.8586 38.0465 57.9767 38.6143 56.3725 39.7498C54.7683 40.8475 53.5343 42.4183 52.6705 44.4622C51.8067 46.4683 51.3748 48.7772 51.3748 51.3889C51.3748 55.8552 52.3466 59.2429 54.2901 61.5517C56.2645 63.8606 58.8405 65.0151 62.0181 65.0151C63.8999 65.0151 65.535 64.5798 66.9233 63.7092C67.4786 63.4064 67.9722 63.255 68.4041 63.255C69.2062 63.255 69.8849 63.6714 70.4402 64.5041C70.9029 65.2233 71.1343 65.9992 71.1343 66.8319C71.1343 67.4375 71.0109 67.9864 70.7641 68.4784C70.5173 68.9705 70.1625 69.349 69.6998 69.6139C67.2935 71.0901 64.7329 71.8282 62.0181 71.8282C58.9948 71.8282 56.2183 71.0523 53.6885 69.5004C51.1588 67.9107 49.1381 65.5828 47.6265 62.5169C46.1148 59.451 45.359 55.7417 45.359 51.3889C45.359 47.5281 46.0686 44.0648 47.4877 40.9989C48.9376 37.933 50.9275 35.5484 53.4572 33.8451C55.9869 32.104 58.8405 31.2334 62.0181 31.2334C64.7637 31.2334 67.3089 31.9715 69.6535 33.4477Z" fill="black"/>
<path d="M101.396 65.6964C101.797 65.9992 102.106 66.3966 102.322 66.8887C102.568 67.3807 102.692 67.8917 102.692 68.4216C102.692 69.103 102.507 69.7275 102.137 70.2952C101.674 70.9766 100.964 71.3172 100.008 71.3172C99.2674 71.3172 98.5887 71.109 97.9717 70.6927C95.7505 69.1408 94.6399 65.9803 94.6399 61.2111C94.6399 59.8485 94.2697 58.7697 93.5293 57.9749C92.8198 57.18 91.7863 56.7826 90.4289 56.7826H81.7754V67.7971C81.7754 68.8191 81.544 69.6518 81.0813 70.2952C80.6494 70.9387 80.0632 71.2604 79.3228 71.2604C78.4282 71.2604 77.6415 70.9387 76.9628 70.2952C76.3149 69.6139 75.991 68.7812 75.991 67.7971V34.9806C75.991 33.9965 76.2532 33.1827 76.7777 32.5392C77.333 31.8579 78.0117 31.5173 78.8138 31.5173H92.1411C93.7453 31.5173 95.2569 32.0472 96.676 33.107C98.0951 34.1668 99.2212 35.6241 100.054 37.4787C100.918 39.3334 101.35 41.4152 101.35 43.7241C101.35 45.6166 100.933 47.4713 100.1 49.2881C99.2674 51.0671 98.1877 52.4865 96.8611 53.5463C98.8047 55.2118 99.869 57.445 100.054 60.2459C100.147 60.8515 100.193 61.4382 100.193 62.006C100.316 63.1793 100.44 64.031 100.563 64.5609C100.687 65.0529 100.964 65.4314 101.396 65.6964ZM91.9097 50.9346C92.465 50.9346 93.0049 50.6129 93.5293 49.9695C94.0538 49.326 94.4857 48.4744 94.825 47.4145C95.1644 46.3169 95.334 45.1435 95.334 43.8944C95.334 42.8346 95.1644 41.8694 94.825 40.9989C94.4857 40.0904 94.0538 39.3713 93.5293 38.8414C93.0049 38.3115 92.465 38.0465 91.9097 38.0465H81.7754V50.9346H91.9097Z" fill="black"/>
<path d="M130.271 34.867C130.271 35.6241 130.102 36.3243 129.762 36.9678L120.091 53.9438V67.7971C120.091 68.7812 119.829 69.6139 119.304 70.2952C118.78 70.9387 118.147 71.2604 117.407 71.2604C116.636 71.2604 115.972 70.9387 115.417 70.2952C114.893 69.6139 114.63 68.7812 114.63 67.7971V53.1489L105.005 37.4787C104.45 36.5703 104.172 35.6808 104.172 34.8103C104.172 33.8262 104.481 33.0124 105.098 32.3689C105.746 31.6876 106.424 31.3469 107.134 31.3469C107.998 31.3469 108.753 31.8769 109.401 32.9367L117.546 46.7332L125.181 33.0502C125.829 31.9147 126.6 31.3469 127.495 31.3469C128.235 31.3469 128.883 31.6876 129.439 32.3689C129.994 33.0502 130.271 33.8829 130.271 34.867Z" fill="black"/>
<path d="M147.796 31.5173C149.369 31.5173 150.866 32.104 152.285 33.2773C153.704 34.4128 154.845 35.9647 155.709 37.933C156.573 39.8633 157.005 41.983 157.005 44.2919C157.005 46.5629 156.573 48.6825 155.709 50.6508C154.845 52.619 153.704 54.1898 152.285 55.3632C150.866 56.4987 149.369 57.0664 147.796 57.0664H139.744V67.7971C139.744 68.8191 139.497 69.6518 139.004 70.2952C138.51 70.9387 137.862 71.2604 137.06 71.2604C136.289 71.2604 135.656 70.9387 135.163 70.2952C134.669 69.6139 134.422 68.7812 134.422 67.7971V34.9806C134.422 33.9965 134.685 33.1827 135.209 32.5392C135.764 31.8579 136.443 31.5173 137.245 31.5173H147.796ZM147.796 50.594C148.382 50.594 148.953 50.2912 149.508 49.6856C150.094 49.08 150.557 48.304 150.896 47.3578C151.267 46.3736 151.452 45.3517 151.452 44.2919C151.452 43.232 151.267 42.229 150.896 41.2827C150.557 40.2986 150.094 39.5227 149.508 38.9549C148.953 38.3493 148.382 38.0465 147.796 38.0465H139.744V50.594H147.796Z" fill="black"/>
<path d="M183.592 31.5173C184.425 31.5173 185.103 31.8201 185.628 32.4257C186.152 33.0313 186.414 33.8262 186.414 34.8103C186.414 35.7944 186.152 36.5893 185.628 37.1949C185.103 37.7626 184.425 38.0465 183.592 38.0465H176.326V67.7971C176.326 68.7812 176.033 69.6139 175.447 70.2952C174.861 70.9387 174.136 71.2604 173.272 71.2604C172.409 71.2604 171.699 70.9387 171.144 70.2952C170.588 69.6139 170.311 68.7812 170.311 67.7971V38.0465H163.045C162.213 38.0465 161.534 37.7437 161.009 37.1381C160.485 36.5325 160.223 35.7376 160.223 34.7535C160.223 33.8072 160.485 33.0313 161.009 32.4257C161.565 31.8201 162.243 31.5173 163.045 31.5173H183.592Z" fill="black"/>
<path d="M220.17 51.3889C220.17 55.1361 219.491 58.5805 218.134 61.7221C216.776 64.8258 214.894 67.2861 212.488 69.1029C210.113 70.9198 207.429 71.8282 204.436 71.8282C201.444 71.8282 198.744 70.9198 196.338 69.1029C193.963 67.2861 192.096 64.8258 190.739 61.7221C189.412 58.5805 188.749 55.1361 188.749 51.3889C188.749 47.6416 189.412 44.2162 190.739 41.1124C192.096 37.9708 193.963 35.4916 196.338 33.6748C198.744 31.8579 201.444 30.9495 204.436 30.9495C207.429 30.9495 210.113 31.8579 212.488 33.6748C214.894 35.4916 216.776 37.9708 218.134 41.1124C219.491 44.2162 220.17 47.6416 220.17 51.3889ZM214.154 51.3889C214.154 48.8529 213.737 46.5629 212.904 44.519C212.072 42.4372 210.915 40.7907 209.434 39.5795C207.953 38.3682 206.287 37.7626 204.436 37.7626C202.554 37.7626 200.873 38.3682 199.392 39.5795C197.942 40.7528 196.801 42.3804 195.968 44.4622C195.166 46.544 194.765 48.8529 194.765 51.3889C194.765 53.9248 195.166 56.2337 195.968 58.3155C196.801 60.3973 197.942 62.0438 199.392 63.255C200.873 64.4284 202.554 65.0151 204.436 65.0151C206.287 65.0151 207.953 64.4095 209.434 63.1983C210.915 61.987 212.072 60.3595 212.904 58.3155C213.737 56.2337 214.154 53.9248 214.154 51.3889Z" fill="black"/>
<path d="M250.054 31.5173C250.794 31.5173 251.396 31.8201 251.858 32.4257C252.321 33.0313 252.553 33.7883 252.553 34.6967V67.7971C252.553 68.7812 252.275 69.6139 251.72 70.2952C251.195 70.9387 250.532 71.2604 249.73 71.2604C249.298 71.2604 248.866 71.1847 248.434 71.0333C248.033 70.8441 247.74 70.598 247.555 70.2952L230.572 43.8377V68.081C230.572 68.9894 230.325 69.7464 229.831 70.352C229.369 70.9576 228.752 71.2604 227.98 71.2604C227.24 71.2604 226.638 70.9576 226.176 70.352C225.713 69.7464 225.482 68.9894 225.482 68.081V34.9806C225.482 33.9965 225.744 33.1827 226.268 32.5392C226.824 31.8579 227.502 31.5173 228.304 31.5173C228.767 31.5173 229.214 31.6308 229.646 31.8579C230.109 32.085 230.448 32.3878 230.664 32.7663L247.509 59.1104V34.6967C247.509 33.7883 247.74 33.0313 248.203 32.4257C248.696 31.8201 249.313 31.5173 250.054 31.5173Z" fill="black"/>
<path d="M284.915 66.8319C285.069 67.324 285.147 67.7782 285.147 68.1945C285.147 69.1787 284.884 69.9924 284.36 70.6359C283.835 71.2415 283.234 71.5443 282.555 71.5443C282 71.5443 281.491 71.3361 281.028 70.9198C280.596 70.5034 280.257 69.9357 280.01 69.2165L277.604 62.3466H263.814L261.407 69.2733C261.191 69.9924 260.852 70.5602 260.389 70.9766C259.957 71.3551 259.479 71.5443 258.955 71.5443C258.153 71.5443 257.536 71.2794 257.104 70.7495C256.703 70.2195 256.502 69.5004 256.502 68.592C256.502 68.2513 256.548 67.8917 256.641 67.5132L268.164 33.5612C268.41 32.8042 268.781 32.2175 269.274 31.8011C269.768 31.3848 270.323 31.2145 270.94 31.2902C271.495 31.2902 272.004 31.4983 272.467 31.9147C272.961 32.2932 273.316 32.842 273.531 33.5612L284.915 66.8319ZM275.336 55.8174L270.662 42.5318L266.081 55.8174H275.336Z" fill="black"/>
<path d="M308.047 31.5173C308.88 31.5173 309.558 31.8201 310.083 32.4257C310.607 33.0313 310.869 33.8262 310.869 34.8103C310.869 35.7944 310.607 36.5893 310.083 37.1949C309.558 37.7626 308.88 38.0465 308.047 38.0465H300.781V67.7971C300.781 68.7812 300.488 69.6139 299.902 70.2952C299.316 70.9387 298.591 71.2604 297.727 71.2604C296.863 71.2604 296.154 70.9387 295.599 70.2952C295.043 69.6139 294.766 68.7812 294.766 67.7971V38.0465H287.5C286.668 38.0465 285.989 37.7437 285.464 37.1381C284.94 36.5325 284.678 35.7376 284.678 34.7535C284.678 33.8072 284.94 33.0313 285.464 32.4257C286.02 31.8201 286.698 31.5173 287.5 31.5173H308.047Z" fill="black"/>
<path d="M334.052 64.7312C334.854 64.7312 335.518 65.0719 336.042 65.7532C336.597 66.3966 336.875 67.1536 336.875 68.0242C336.875 68.9705 336.597 69.7464 336.042 70.352C335.518 70.9576 334.854 71.2604 334.052 71.2604H318.55C317.748 71.2604 317.069 70.9387 316.514 70.2952C315.989 69.6139 315.727 68.7812 315.727 67.7971V34.9806C315.727 33.9965 315.989 33.1827 316.514 32.5392C317.069 31.8579 317.748 31.5173 318.55 31.5173H334.052C334.854 31.5173 335.518 31.839 336.042 32.4825C336.597 33.0881 336.875 33.8829 336.875 34.867C336.875 35.8133 336.613 36.5893 336.088 37.1949C335.564 37.7626 334.885 38.0465 334.052 38.0465H321.512V47.6984H331.97C332.772 47.6984 333.435 48.0201 333.96 48.6636C334.515 49.2692 334.793 50.0641 334.793 51.0482C334.793 51.9945 334.53 52.7704 334.006 53.376C333.482 53.9438 332.803 54.2276 331.97 54.2276H321.512V64.7312H334.052Z" fill="black"/>
</svg>
