<svg width="428" height="235" viewBox="0 0 428 235" fill="none" xmlns="http://www.w3.org/2000/svg">
<rect x="1" width="427" height="235" rx="23" fill="#91AFC8"/>
<path d="M0 88H428V212C428 224.703 417.703 235 405 235H23C10.2974 235 0 224.703 0 212V88Z" fill="#E5E9F2"/>
<path d="M56.6275 130.314C54.7598 130.314 53.0666 129.913 51.548 129.11C50.0468 128.289 48.8598 127.163 47.987 125.732C47.1317 124.283 46.7041 122.651 46.7041 120.836C46.7041 119.02 47.1317 117.397 47.987 115.966C48.8598 114.517 50.0468 113.391 51.548 112.588C53.0666 111.768 54.7685 111.357 56.6537 111.357C58.2422 111.357 59.6735 111.637 60.9478 112.195C62.2395 112.754 63.3217 113.557 64.1945 114.604L61.4714 117.118C60.2321 115.686 58.696 114.971 56.8632 114.971C55.7286 114.971 54.7161 115.224 53.8259 115.73C52.9357 116.219 52.2375 116.908 51.7313 117.799C51.2425 118.689 50.9981 119.701 50.9981 120.836C50.9981 121.97 51.2425 122.983 51.7313 123.873C52.2375 124.763 52.9357 125.462 53.8259 125.968C54.7161 126.457 55.7286 126.701 56.8632 126.701C58.696 126.701 60.2321 125.976 61.4714 124.528L64.1945 127.041C63.3217 128.106 62.2395 128.918 60.9478 129.476C59.6561 130.035 58.216 130.314 56.6275 130.314ZM66.2472 110.572H70.3318V130H66.2472V110.572ZM73.599 115.913H77.6836V130H73.599V115.913ZM75.6413 113.95C74.8907 113.95 74.2798 113.731 73.8085 113.295C73.3372 112.859 73.1015 112.318 73.1015 111.672C73.1015 111.026 73.3372 110.485 73.8085 110.048C74.2798 109.612 74.8907 109.394 75.6413 109.394C76.3919 109.394 77.0029 109.603 77.4741 110.022C77.9454 110.441 78.1811 110.965 78.1811 111.593C78.1811 112.274 77.9454 112.841 77.4741 113.295C77.0029 113.731 76.3919 113.95 75.6413 113.95ZM87.7585 130.209C86.2573 130.209 84.9045 129.904 83.7001 129.293C82.5131 128.665 81.5792 127.801 80.8984 126.701C80.2351 125.601 79.9035 124.353 79.9035 122.957C79.9035 121.56 80.2351 120.312 80.8984 119.212C81.5792 118.113 82.5131 117.257 83.7001 116.647C84.9045 116.018 86.2573 115.704 87.7585 115.704C89.2422 115.704 90.5339 116.018 91.6336 116.647C92.7507 117.257 93.5624 118.139 94.0686 119.291L90.9005 120.993C90.1673 119.701 89.1113 119.055 87.7323 119.055C86.6675 119.055 85.786 119.404 85.0878 120.103C84.3895 120.801 84.0404 121.752 84.0404 122.957C84.0404 124.161 84.3895 125.112 85.0878 125.811C85.786 126.509 86.6675 126.858 87.7323 126.858C89.1287 126.858 90.1848 126.212 90.9005 124.92L94.0686 126.649C93.5624 127.766 92.7507 128.638 91.6336 129.267C90.5339 129.895 89.2422 130.209 87.7585 130.209ZM101.843 124.475L99.8791 126.413V130H95.7945V110.572H99.8791V121.569L105.849 115.913H110.719L104.854 121.883L111.243 130H106.294L101.843 124.475ZM128.009 115.704C129.755 115.704 131.16 116.228 132.225 117.275C133.307 118.322 133.848 119.876 133.848 121.936V130H129.764V122.564C129.764 121.447 129.519 120.618 129.031 120.077C128.542 119.518 127.835 119.239 126.91 119.239C125.88 119.239 125.059 119.562 124.448 120.207C123.837 120.836 123.532 121.778 123.532 123.035V130H119.447V110.572H123.532V117.38C124.073 116.839 124.728 116.428 125.496 116.149C126.264 115.852 127.102 115.704 128.009 115.704ZM150.979 123.009C150.979 123.061 150.953 123.428 150.901 124.109H140.244C140.436 124.982 140.89 125.671 141.605 126.177C142.321 126.683 143.211 126.937 144.276 126.937C145.009 126.937 145.655 126.832 146.214 126.622C146.79 126.395 147.322 126.046 147.811 125.575L149.984 127.932C148.658 129.45 146.72 130.209 144.171 130.209C142.583 130.209 141.178 129.904 139.956 129.293C138.734 128.665 137.791 127.801 137.128 126.701C136.465 125.601 136.133 124.353 136.133 122.957C136.133 121.578 136.456 120.338 137.102 119.239C137.765 118.122 138.664 117.257 139.799 116.647C140.951 116.018 142.234 115.704 143.648 115.704C145.027 115.704 146.275 116.001 147.392 116.594C148.509 117.188 149.382 118.043 150.01 119.16C150.656 120.26 150.979 121.543 150.979 123.009ZM143.674 118.794C142.749 118.794 141.972 119.055 141.344 119.579C140.715 120.103 140.331 120.818 140.192 121.726H147.13C146.991 120.836 146.606 120.129 145.978 119.605C145.35 119.064 144.582 118.794 143.674 118.794ZM157.076 117.772C157.565 117.092 158.219 116.577 159.04 116.228C159.878 115.878 160.838 115.704 161.92 115.704V119.474C161.466 119.439 161.161 119.422 161.004 119.422C159.834 119.422 158.918 119.754 158.254 120.417C157.591 121.063 157.259 122.04 157.259 123.349V130H153.175V115.913H157.076V117.772ZM177.496 123.009C177.496 123.061 177.47 123.428 177.417 124.109H166.761C166.953 124.982 167.407 125.671 168.122 126.177C168.838 126.683 169.728 126.937 170.793 126.937C171.526 126.937 172.172 126.832 172.73 126.622C173.306 126.395 173.839 126.046 174.328 125.575L176.501 127.932C175.174 129.45 173.237 130.209 170.688 130.209C169.1 130.209 167.695 129.904 166.473 129.293C165.251 128.665 164.308 127.801 163.645 126.701C162.982 125.601 162.65 124.353 162.65 122.957C162.65 121.578 162.973 120.338 163.619 119.239C164.282 118.122 165.181 117.257 166.316 116.647C167.468 116.018 168.751 115.704 170.164 115.704C171.543 115.704 172.792 116.001 173.909 116.594C175.026 117.188 175.899 118.043 176.527 119.16C177.173 120.26 177.496 121.543 177.496 123.009ZM170.191 118.794C169.266 118.794 168.489 119.055 167.86 119.579C167.232 120.103 166.848 120.818 166.708 121.726H173.647C173.507 120.836 173.123 120.129 172.495 119.605C171.866 119.064 171.098 118.794 170.191 118.794ZM195.669 129.319C195.267 129.616 194.77 129.843 194.176 130C193.6 130.14 192.989 130.209 192.343 130.209C190.668 130.209 189.367 129.782 188.442 128.926C187.534 128.071 187.081 126.814 187.081 125.156V119.37H184.907V116.228H187.081V112.798H191.165V116.228H194.674V119.37H191.165V125.104C191.165 125.697 191.314 126.16 191.61 126.491C191.924 126.806 192.361 126.963 192.919 126.963C193.565 126.963 194.115 126.788 194.569 126.439L195.669 129.319ZM203.706 130.209C202.222 130.209 200.887 129.904 199.7 129.293C198.531 128.665 197.614 127.801 196.951 126.701C196.288 125.601 195.956 124.353 195.956 122.957C195.956 121.56 196.288 120.312 196.951 119.212C197.614 118.113 198.531 117.257 199.7 116.647C200.887 116.018 202.222 115.704 203.706 115.704C205.19 115.704 206.516 116.018 207.686 116.647C208.856 117.257 209.772 118.113 210.435 119.212C211.099 120.312 211.43 121.56 211.43 122.957C211.43 124.353 211.099 125.601 210.435 126.701C209.772 127.801 208.856 128.665 207.686 129.293C206.516 129.904 205.19 130.209 203.706 130.209ZM203.706 126.858C204.753 126.858 205.609 126.509 206.272 125.811C206.953 125.095 207.293 124.144 207.293 122.957C207.293 121.77 206.953 120.827 206.272 120.129C205.609 119.413 204.753 119.055 203.706 119.055C202.659 119.055 201.795 119.413 201.114 120.129C200.433 120.827 200.093 121.77 200.093 122.957C200.093 124.144 200.433 125.095 201.114 125.811C201.795 126.509 202.659 126.858 203.706 126.858ZM227.336 130.209C225.835 130.209 224.482 129.904 223.278 129.293C222.091 128.665 221.157 127.801 220.476 126.701C219.813 125.601 219.481 124.353 219.481 122.957C219.481 121.56 219.813 120.312 220.476 119.212C221.157 118.113 222.091 117.257 223.278 116.647C224.482 116.018 225.835 115.704 227.336 115.704C228.82 115.704 230.111 116.018 231.211 116.647C232.328 117.257 233.14 118.139 233.646 119.291L230.478 120.993C229.745 119.701 228.689 119.055 227.31 119.055C226.245 119.055 225.363 119.404 224.665 120.103C223.967 120.801 223.618 121.752 223.618 122.957C223.618 124.161 223.967 125.112 224.665 125.811C225.363 126.509 226.245 126.858 227.31 126.858C228.706 126.858 229.762 126.212 230.478 124.92L233.646 126.649C233.14 127.766 232.328 128.638 231.211 129.267C230.111 129.895 228.82 130.209 227.336 130.209ZM239.376 117.772C239.864 117.092 240.519 116.577 241.339 116.228C242.177 115.878 243.137 115.704 244.219 115.704V119.474C243.766 119.439 243.46 119.422 243.303 119.422C242.134 119.422 241.217 119.754 240.554 120.417C239.891 121.063 239.559 122.04 239.559 123.349V130H235.474V115.913H239.376V117.772ZM259.795 123.009C259.795 123.061 259.769 123.428 259.717 124.109H249.06C249.252 124.982 249.706 125.671 250.422 126.177C251.137 126.683 252.028 126.937 253.092 126.937C253.825 126.937 254.471 126.832 255.03 126.622C255.606 126.395 256.138 126.046 256.627 125.575L258.8 127.932C257.474 129.45 255.536 130.209 252.988 130.209C251.399 130.209 249.994 129.904 248.772 129.293C247.55 128.665 246.608 127.801 245.944 126.701C245.281 125.601 244.949 124.353 244.949 122.957C244.949 121.578 245.272 120.338 245.918 119.239C246.581 118.122 247.48 117.257 248.615 116.647C249.767 116.018 251.05 115.704 252.464 115.704C253.843 115.704 255.091 116.001 256.208 116.594C257.325 117.188 258.198 118.043 258.827 119.16C259.472 120.26 259.795 121.543 259.795 123.009ZM252.49 118.794C251.565 118.794 250.788 119.055 250.16 119.579C249.531 120.103 249.147 120.818 249.008 121.726H255.946C255.807 120.836 255.423 120.129 254.794 119.605C254.166 119.064 253.398 118.794 252.49 118.794ZM267.289 115.704C269.471 115.704 271.147 116.228 272.316 117.275C273.486 118.305 274.071 119.867 274.071 121.962V130H270.248V128.246C269.48 129.555 268.049 130.209 265.954 130.209C264.872 130.209 263.929 130.026 263.126 129.66C262.341 129.293 261.738 128.787 261.319 128.141C260.901 127.495 260.691 126.762 260.691 125.942C260.691 124.632 261.18 123.603 262.157 122.852C263.152 122.101 264.68 121.726 266.739 121.726H269.986C269.986 120.836 269.716 120.155 269.174 119.684C268.633 119.195 267.822 118.951 266.739 118.951C265.989 118.951 265.247 119.073 264.514 119.317C263.798 119.544 263.187 119.858 262.681 120.26L261.215 117.406C261.983 116.865 262.899 116.446 263.964 116.149C265.046 115.852 266.155 115.704 267.289 115.704ZM266.975 127.46C267.673 127.46 268.293 127.303 268.834 126.989C269.375 126.657 269.759 126.177 269.986 125.549V124.109H267.185C265.509 124.109 264.671 124.659 264.671 125.758C264.671 126.282 264.872 126.701 265.273 127.015C265.692 127.312 266.259 127.46 266.975 127.46ZM286.329 129.319C285.928 129.616 285.43 129.843 284.837 130C284.261 130.14 283.65 130.209 283.004 130.209C281.328 130.209 280.028 129.782 279.103 128.926C278.195 128.071 277.741 126.814 277.741 125.156V119.37H275.568V116.228H277.741V112.798H281.826V116.228H285.334V119.37H281.826V125.104C281.826 125.697 281.974 126.16 282.271 126.491C282.585 126.806 283.022 126.963 283.58 126.963C284.226 126.963 284.776 126.788 285.23 126.439L286.329 129.319ZM301.463 123.009C301.463 123.061 301.436 123.428 301.384 124.109H290.727C290.919 124.982 291.373 125.671 292.089 126.177C292.805 126.683 293.695 126.937 294.76 126.937C295.493 126.937 296.139 126.832 296.697 126.622C297.273 126.395 297.806 126.046 298.294 125.575L300.468 127.932C299.141 129.45 297.203 130.209 294.655 130.209C293.066 130.209 291.661 129.904 290.439 129.293C289.217 128.665 288.275 127.801 287.612 126.701C286.948 125.601 286.617 124.353 286.617 122.957C286.617 121.578 286.94 120.338 287.585 119.239C288.249 118.122 289.148 117.257 290.282 116.647C291.434 116.018 292.717 115.704 294.131 115.704C295.51 115.704 296.758 116.001 297.875 116.594C298.993 117.188 299.865 118.043 300.494 119.16C301.14 120.26 301.463 121.543 301.463 123.009ZM294.157 118.794C293.232 118.794 292.455 119.055 291.827 119.579C291.199 120.103 290.815 120.818 290.675 121.726H297.614C297.474 120.836 297.09 120.129 296.462 119.605C295.833 119.064 295.065 118.794 294.157 118.794ZM317.253 130.209C315.769 130.209 314.434 129.904 313.247 129.293C312.077 128.665 311.161 127.801 310.497 126.701C309.834 125.601 309.502 124.353 309.502 122.957C309.502 121.56 309.834 120.312 310.497 119.212C311.161 118.113 312.077 117.257 313.247 116.647C314.434 116.018 315.769 115.704 317.253 115.704C318.736 115.704 320.063 116.018 321.233 116.647C322.402 117.257 323.319 118.113 323.982 119.212C324.645 120.312 324.977 121.56 324.977 122.957C324.977 124.353 324.645 125.601 323.982 126.701C323.319 127.801 322.402 128.665 321.233 129.293C320.063 129.904 318.736 130.209 317.253 130.209ZM317.253 126.858C318.3 126.858 319.155 126.509 319.819 125.811C320.499 125.095 320.84 124.144 320.84 122.957C320.84 121.77 320.499 120.827 319.819 120.129C319.155 119.413 318.3 119.055 317.253 119.055C316.205 119.055 315.341 119.413 314.661 120.129C313.98 120.827 313.639 121.77 313.639 122.957C313.639 124.144 313.98 125.095 314.661 125.811C315.341 126.509 316.205 126.858 317.253 126.858ZM331.085 117.772C331.573 117.092 332.228 116.577 333.048 116.228C333.886 115.878 334.846 115.704 335.929 115.704V119.474C335.475 119.439 335.169 119.422 335.012 119.422C333.843 119.422 332.926 119.754 332.263 120.417C331.6 121.063 331.268 122.04 331.268 123.349V130H327.183V115.913H331.085V117.772ZM349.567 130.209C348.397 130.209 347.254 130.07 346.137 129.791C345.019 129.494 344.129 129.127 343.466 128.691L344.827 125.758C345.456 126.16 346.215 126.491 347.105 126.753C347.996 126.998 348.868 127.12 349.724 127.12C351.452 127.12 352.316 126.692 352.316 125.837C352.316 125.435 352.08 125.147 351.609 124.973C351.138 124.798 350.413 124.65 349.436 124.528C348.284 124.353 347.332 124.152 346.582 123.925C345.831 123.699 345.177 123.297 344.618 122.721C344.077 122.145 343.806 121.325 343.806 120.26C343.806 119.37 344.059 118.584 344.566 117.903C345.089 117.205 345.84 116.664 346.817 116.28C347.812 115.896 348.982 115.704 350.326 115.704C351.321 115.704 352.307 115.817 353.285 116.044C354.28 116.254 355.1 116.551 355.746 116.935L354.384 119.841C353.145 119.143 351.792 118.794 350.326 118.794C349.453 118.794 348.799 118.916 348.362 119.16C347.926 119.404 347.708 119.719 347.708 120.103C347.708 120.539 347.943 120.845 348.415 121.019C348.886 121.194 349.636 121.36 350.666 121.517C351.818 121.709 352.761 121.918 353.494 122.145C354.227 122.354 354.864 122.747 355.405 123.323C355.947 123.899 356.217 124.702 356.217 125.732C356.217 126.605 355.955 127.382 355.432 128.062C354.908 128.743 354.14 129.276 353.128 129.66C352.133 130.026 350.946 130.209 349.567 130.209ZM372.012 123.009C372.012 123.061 371.986 123.428 371.934 124.109H361.277C361.469 124.982 361.923 125.671 362.639 126.177C363.354 126.683 364.245 126.937 365.309 126.937C366.042 126.937 366.688 126.832 367.247 126.622C367.823 126.395 368.355 126.046 368.844 125.575L371.017 127.932C369.691 129.45 367.753 130.209 365.205 130.209C363.616 130.209 362.211 129.904 360.989 129.293C359.767 128.665 358.825 127.801 358.161 126.701C357.498 125.601 357.166 124.353 357.166 122.957C357.166 121.578 357.489 120.338 358.135 119.239C358.798 118.122 359.697 117.257 360.832 116.647C361.984 116.018 363.267 115.704 364.681 115.704C366.06 115.704 367.308 116.001 368.425 116.594C369.542 117.188 370.415 118.043 371.043 119.16C371.689 120.26 372.012 121.543 372.012 123.009ZM364.707 118.794C363.782 118.794 363.005 119.055 362.377 119.579C361.748 120.103 361.364 120.818 361.225 121.726H368.163C368.024 120.836 367.64 120.129 367.011 119.605C366.383 119.064 365.615 118.794 364.707 118.794ZM388.007 123.009C388.007 123.061 387.98 123.428 387.928 124.109H377.271C377.463 124.982 377.917 125.671 378.633 126.177C379.349 126.683 380.239 126.937 381.304 126.937C382.037 126.937 382.683 126.832 383.241 126.622C383.817 126.395 384.35 126.046 384.838 125.575L387.012 127.932C385.685 129.45 383.747 130.209 381.199 130.209C379.61 130.209 378.205 129.904 376.983 129.293C375.761 128.665 374.819 127.801 374.156 126.701C373.492 125.601 373.161 124.353 373.161 122.957C373.161 121.578 373.484 120.338 374.129 119.239C374.793 118.122 375.692 117.257 376.826 116.647C377.978 116.018 379.261 115.704 380.675 115.704C382.054 115.704 383.302 116.001 384.419 116.594C385.537 117.188 386.409 118.043 387.038 119.16C387.684 120.26 388.007 121.543 388.007 123.009ZM380.701 118.794C379.776 118.794 378.999 119.055 378.371 119.579C377.743 120.103 377.359 120.818 377.219 121.726H384.158C384.018 120.836 383.634 120.129 383.006 119.605C382.377 119.064 381.609 118.794 380.701 118.794ZM82.7999 147.913L76.4374 162.864C75.7915 164.487 74.9885 165.631 74.0285 166.294C73.0859 166.957 71.9426 167.289 70.5985 167.289C69.8653 167.289 69.1409 167.176 68.4253 166.949C67.7096 166.722 67.1248 166.408 66.671 166.006L68.1634 163.1C68.4776 163.379 68.8355 163.597 69.2369 163.754C69.6559 163.911 70.0661 163.99 70.4676 163.99C71.0261 163.99 71.48 163.85 71.8291 163.571C72.1782 163.309 72.4924 162.864 72.7717 162.236L72.8241 162.105L66.7233 147.913H70.9389L74.8925 157.47L78.8724 147.913H82.7999ZM90.2624 162.209C88.7786 162.209 87.4433 161.904 86.2563 161.293C85.0868 160.665 84.1704 159.801 83.5071 158.701C82.8437 157.601 82.5121 156.353 82.5121 154.957C82.5121 153.56 82.8437 152.312 83.5071 151.212C84.1704 150.113 85.0868 149.257 86.2563 148.647C87.4433 148.018 88.7786 147.704 90.2624 147.704C91.7461 147.704 93.0727 148.018 94.2422 148.647C95.4117 149.257 96.3282 150.113 96.9915 151.212C97.6548 152.312 97.9864 153.56 97.9864 154.957C97.9864 156.353 97.6548 157.601 96.9915 158.701C96.3282 159.801 95.4117 160.665 94.2422 161.293C93.0727 161.904 91.7461 162.209 90.2624 162.209ZM90.2624 158.858C91.3097 158.858 92.165 158.509 92.8283 157.811C93.5091 157.095 93.8495 156.144 93.8495 154.957C93.8495 153.77 93.5091 152.827 92.8283 152.129C92.165 151.413 91.3097 151.055 90.2624 151.055C89.215 151.055 88.351 151.413 87.6702 152.129C86.9894 152.827 86.6491 153.77 86.6491 154.957C86.6491 156.144 86.9894 157.095 87.6702 157.811C88.351 158.509 89.215 158.858 90.2624 158.858ZM114.384 147.913V162H110.509V160.324C109.968 160.935 109.322 161.407 108.572 161.738C107.821 162.052 107.009 162.209 106.137 162.209C104.286 162.209 102.82 161.677 101.738 160.612C100.656 159.547 100.114 157.968 100.114 155.873V147.913H104.199V155.271C104.199 157.54 105.15 158.675 107.053 158.675C108.031 158.675 108.816 158.361 109.41 157.732C110.003 157.086 110.3 156.135 110.3 154.878V147.913H114.384ZM121.546 149.772C122.035 149.092 122.689 148.577 123.51 148.228C124.348 147.878 125.308 147.704 126.39 147.704V151.474C125.936 151.439 125.631 151.422 125.474 151.422C124.304 151.422 123.388 151.754 122.724 152.417C122.061 153.063 121.729 154.04 121.729 155.349V162H117.645V147.913H121.546V149.772ZM141.992 162.209C140.508 162.209 139.173 161.904 137.986 161.293C136.816 160.665 135.9 159.801 135.236 158.701C134.573 157.601 134.242 156.353 134.242 154.957C134.242 153.56 134.573 152.312 135.236 151.212C135.9 150.113 136.816 149.257 137.986 148.647C139.173 148.018 140.508 147.704 141.992 147.704C143.475 147.704 144.802 148.018 145.972 148.647C147.141 149.257 148.058 150.113 148.721 151.212C149.384 152.312 149.716 153.56 149.716 154.957C149.716 156.353 149.384 157.601 148.721 158.701C148.058 159.801 147.141 160.665 145.972 161.293C144.802 161.904 143.475 162.209 141.992 162.209ZM141.992 158.858C143.039 158.858 143.894 158.509 144.558 157.811C145.239 157.095 145.579 156.144 145.579 154.957C145.579 153.77 145.239 152.827 144.558 152.129C143.894 151.413 143.039 151.055 141.992 151.055C140.944 151.055 140.08 151.413 139.4 152.129C138.719 152.827 138.378 153.77 138.378 154.957C138.378 156.144 138.719 157.095 139.4 157.811C140.08 158.509 140.944 158.858 141.992 158.858ZM160.484 147.704C162.23 147.704 163.635 148.228 164.7 149.275C165.782 150.322 166.323 151.876 166.323 153.936V162H162.239V154.564C162.239 153.447 161.994 152.618 161.505 152.077C161.017 151.518 160.31 151.239 159.385 151.239C158.355 151.239 157.534 151.562 156.923 152.207C156.312 152.836 156.007 153.778 156.007 155.035V162H151.922V147.913H155.824V149.563C156.365 148.969 157.037 148.516 157.84 148.201C158.643 147.87 159.524 147.704 160.484 147.704ZM184.187 147.913V159.644C184.187 162.227 183.515 164.147 182.171 165.404C180.827 166.661 178.863 167.289 176.28 167.289C174.918 167.289 173.627 167.123 172.405 166.792C171.183 166.46 170.17 165.98 169.367 165.351L170.991 162.419C171.584 162.908 172.335 163.292 173.243 163.571C174.15 163.868 175.058 164.016 175.966 164.016C177.38 164.016 178.418 163.693 179.081 163.047C179.762 162.419 180.103 161.459 180.103 160.167V159.565C179.038 160.734 177.554 161.319 175.651 161.319C174.36 161.319 173.173 161.04 172.091 160.481C171.026 159.905 170.179 159.102 169.551 158.073C168.922 157.043 168.608 155.856 168.608 154.512C168.608 153.167 168.922 151.981 169.551 150.951C170.179 149.921 171.026 149.127 172.091 148.568C173.173 147.992 174.36 147.704 175.651 147.704C177.694 147.704 179.247 148.376 180.312 149.72V147.913H184.187ZM176.463 157.968C177.545 157.968 178.427 157.654 179.108 157.025C179.806 156.379 180.155 155.541 180.155 154.512C180.155 153.482 179.806 152.653 179.108 152.024C178.427 151.378 177.545 151.055 176.463 151.055C175.381 151.055 174.491 151.378 173.792 152.024C173.094 152.653 172.745 153.482 172.745 154.512C172.745 155.541 173.094 156.379 173.792 157.025C174.491 157.654 175.381 157.968 176.463 157.968ZM194.168 162.209C192.684 162.209 191.349 161.904 190.162 161.293C188.993 160.665 188.076 159.801 187.413 158.701C186.75 157.601 186.418 156.353 186.418 154.957C186.418 153.56 186.75 152.312 187.413 151.212C188.076 150.113 188.993 149.257 190.162 148.647C191.349 148.018 192.684 147.704 194.168 147.704C195.652 147.704 196.978 148.018 198.148 148.647C199.318 149.257 200.234 150.113 200.897 151.212C201.561 152.312 201.892 153.56 201.892 154.957C201.892 156.353 201.561 157.601 200.897 158.701C200.234 159.801 199.318 160.665 198.148 161.293C196.978 161.904 195.652 162.209 194.168 162.209ZM194.168 158.858C195.215 158.858 196.071 158.509 196.734 157.811C197.415 157.095 197.755 156.144 197.755 154.957C197.755 153.77 197.415 152.827 196.734 152.129C196.071 151.413 195.215 151.055 194.168 151.055C193.121 151.055 192.257 151.413 191.576 152.129C190.895 152.827 190.555 153.77 190.555 154.957C190.555 156.144 190.895 157.095 191.576 157.811C192.257 158.509 193.121 158.858 194.168 158.858ZM204.099 147.913H208.183V162H204.099V147.913ZM206.141 145.95C205.391 145.95 204.78 145.731 204.308 145.295C203.837 144.859 203.601 144.318 203.601 143.672C203.601 143.026 203.837 142.485 204.308 142.048C204.78 141.612 205.391 141.394 206.141 141.394C206.892 141.394 207.503 141.603 207.974 142.022C208.445 142.441 208.681 142.965 208.681 143.593C208.681 144.274 208.445 144.841 207.974 145.295C207.503 145.731 206.892 145.95 206.141 145.95ZM220.013 147.704C221.758 147.704 223.163 148.228 224.228 149.275C225.31 150.322 225.851 151.876 225.851 153.936V162H221.767V154.564C221.767 153.447 221.522 152.618 221.034 152.077C220.545 151.518 219.838 151.239 218.913 151.239C217.883 151.239 217.063 151.562 216.452 152.207C215.841 152.836 215.535 153.778 215.535 155.035V162H211.451V147.913H215.352V149.563C215.893 148.969 216.565 148.516 217.368 148.201C218.171 147.87 219.052 147.704 220.013 147.704ZM243.715 147.913V159.644C243.715 162.227 243.043 164.147 241.699 165.404C240.355 166.661 238.391 167.289 235.808 167.289C234.446 167.289 233.155 167.123 231.933 166.792C230.711 166.46 229.699 165.98 228.896 165.351L230.519 162.419C231.112 162.908 231.863 163.292 232.771 163.571C233.678 163.868 234.586 164.016 235.494 164.016C236.908 164.016 237.946 163.693 238.61 163.047C239.29 162.419 239.631 161.459 239.631 160.167V159.565C238.566 160.734 237.082 161.319 235.18 161.319C233.888 161.319 232.701 161.04 231.619 160.481C230.554 159.905 229.707 159.102 229.079 158.073C228.45 157.043 228.136 155.856 228.136 154.512C228.136 153.167 228.45 151.981 229.079 150.951C229.707 149.921 230.554 149.127 231.619 148.568C232.701 147.992 233.888 147.704 235.18 147.704C237.222 147.704 238.775 148.376 239.84 149.72V147.913H243.715ZM235.991 157.968C237.074 157.968 237.955 157.654 238.636 157.025C239.334 156.379 239.683 155.541 239.683 154.512C239.683 153.482 239.334 152.653 238.636 152.024C237.955 151.378 237.074 151.055 235.991 151.055C234.909 151.055 234.019 151.378 233.321 152.024C232.622 152.653 232.273 153.482 232.273 154.512C232.273 155.541 232.622 156.379 233.321 157.025C234.019 157.654 234.909 157.968 235.991 157.968ZM259.567 147.704C261.749 147.704 263.424 148.228 264.594 149.275C265.763 150.305 266.348 151.867 266.348 153.962V162H262.525V160.246C261.757 161.555 260.326 162.209 258.231 162.209C257.149 162.209 256.207 162.026 255.404 161.66C254.618 161.293 254.016 160.787 253.597 160.141C253.178 159.495 252.969 158.762 252.969 157.942C252.969 156.632 253.457 155.603 254.435 154.852C255.43 154.101 256.957 153.726 259.017 153.726H262.264C262.264 152.836 261.993 152.155 261.452 151.684C260.911 151.195 260.099 150.951 259.017 150.951C258.266 150.951 257.524 151.073 256.791 151.317C256.076 151.544 255.465 151.858 254.958 152.26L253.492 149.406C254.26 148.865 255.177 148.446 256.241 148.149C257.324 147.852 258.432 147.704 259.567 147.704ZM259.253 159.46C259.951 159.46 260.57 159.303 261.112 158.989C261.653 158.657 262.037 158.177 262.264 157.549V156.109H259.462C257.786 156.109 256.948 156.659 256.948 157.758C256.948 158.282 257.149 158.701 257.551 159.015C257.97 159.312 258.537 159.46 259.253 159.46ZM278.083 147.704C279.829 147.704 281.234 148.228 282.299 149.275C283.381 150.322 283.922 151.876 283.922 153.936V162H279.837V154.564C279.837 153.447 279.593 152.618 279.104 152.077C278.616 151.518 277.909 151.239 276.984 151.239C275.954 151.239 275.133 151.562 274.522 152.207C273.911 152.836 273.606 153.778 273.606 155.035V162H269.521V147.913H273.423V149.563C273.964 148.969 274.636 148.516 275.439 148.201C276.242 147.87 277.123 147.704 278.083 147.704ZM301.603 142.572V162H297.701V160.377C296.689 161.599 295.223 162.209 293.303 162.209C291.976 162.209 290.772 161.913 289.689 161.319C288.625 160.726 287.787 159.879 287.176 158.779C286.565 157.68 286.259 156.405 286.259 154.957C286.259 153.508 286.565 152.234 287.176 151.134C287.787 150.034 288.625 149.188 289.689 148.594C290.772 148.001 291.976 147.704 293.303 147.704C295.101 147.704 296.506 148.271 297.518 149.406V142.572H301.603ZM294.01 158.858C295.039 158.858 295.895 158.509 296.576 157.811C297.256 157.095 297.597 156.144 297.597 154.957C297.597 153.77 297.256 152.827 296.576 152.129C295.895 151.413 295.039 151.055 294.01 151.055C292.962 151.055 292.098 151.413 291.417 152.129C290.737 152.827 290.396 153.77 290.396 154.957C290.396 156.144 290.737 157.095 291.417 157.811C292.098 158.509 292.962 158.858 294.01 158.858ZM320.077 147.704C321.387 147.704 322.573 148.009 323.638 148.62C324.721 149.214 325.567 150.06 326.178 151.16C326.789 152.242 327.094 153.508 327.094 154.957C327.094 156.405 326.789 157.68 326.178 158.779C325.567 159.862 324.721 160.708 323.638 161.319C322.573 161.913 321.387 162.209 320.077 162.209C318.279 162.209 316.866 161.642 315.836 160.508V167.08H311.751V147.913H315.652V149.537C316.665 148.315 318.14 147.704 320.077 147.704ZM319.37 158.858C320.418 158.858 321.273 158.509 321.936 157.811C322.617 157.095 322.957 156.144 322.957 154.957C322.957 153.77 322.617 152.827 321.936 152.129C321.273 151.413 320.418 151.055 319.37 151.055C318.323 151.055 317.459 151.413 316.778 152.129C316.115 152.827 315.783 153.77 315.783 154.957C315.783 156.144 316.115 157.095 316.778 157.811C317.459 158.509 318.323 158.858 319.37 158.858ZM334.757 147.704C336.939 147.704 338.614 148.228 339.784 149.275C340.954 150.305 341.538 151.867 341.538 153.962V162H337.716V160.246C336.947 161.555 335.516 162.209 333.421 162.209C332.339 162.209 331.397 162.026 330.594 161.66C329.808 161.293 329.206 160.787 328.787 160.141C328.368 159.495 328.159 158.762 328.159 157.942C328.159 156.632 328.647 155.603 329.625 154.852C330.62 154.101 332.147 153.726 334.207 153.726H337.454C337.454 152.836 337.183 152.155 336.642 151.684C336.101 151.195 335.289 150.951 334.207 150.951C333.456 150.951 332.714 151.073 331.981 151.317C331.266 151.544 330.655 151.858 330.149 152.26L328.682 149.406C329.45 148.865 330.367 148.446 331.432 148.149C332.514 147.852 333.622 147.704 334.757 147.704ZM334.443 159.46C335.141 159.46 335.76 159.303 336.302 158.989C336.843 158.657 337.227 158.177 337.454 157.549V156.109H334.652C332.976 156.109 332.138 156.659 332.138 157.758C332.138 158.282 332.339 158.701 332.741 159.015C333.16 159.312 333.727 159.46 334.443 159.46ZM349.451 162.209C348.281 162.209 347.138 162.07 346.021 161.791C344.903 161.494 344.013 161.127 343.35 160.691L344.711 157.758C345.34 158.16 346.099 158.491 346.989 158.753C347.88 158.998 348.752 159.12 349.608 159.12C351.336 159.12 352.2 158.692 352.2 157.837C352.2 157.435 351.964 157.147 351.493 156.973C351.022 156.798 350.297 156.65 349.32 156.528C348.168 156.353 347.216 156.152 346.466 155.925C345.715 155.699 345.06 155.297 344.502 154.721C343.961 154.145 343.69 153.325 343.69 152.26C343.69 151.37 343.943 150.584 344.45 149.903C344.973 149.205 345.724 148.664 346.701 148.28C347.696 147.896 348.866 147.704 350.21 147.704C351.205 147.704 352.191 147.817 353.169 148.044C354.164 148.254 354.984 148.551 355.63 148.935L354.268 151.841C353.029 151.143 351.676 150.794 350.21 150.794C349.337 150.794 348.683 150.916 348.246 151.16C347.81 151.404 347.592 151.719 347.592 152.103C347.592 152.539 347.827 152.845 348.298 153.019C348.77 153.194 349.52 153.36 350.55 153.517C351.702 153.709 352.645 153.918 353.378 154.145C354.111 154.354 354.748 154.747 355.289 155.323C355.831 155.899 356.101 156.702 356.101 157.732C356.101 158.605 355.839 159.382 355.316 160.062C354.792 160.743 354.024 161.276 353.011 161.66C352.017 162.026 350.83 162.209 349.451 162.209ZM367.183 161.319C366.782 161.616 366.284 161.843 365.691 162C365.115 162.14 364.504 162.209 363.858 162.209C362.182 162.209 360.882 161.782 359.957 160.926C359.049 160.071 358.595 158.814 358.595 157.156V151.37H356.422V148.228H358.595V144.798H362.68V148.228H366.188V151.37H362.68V157.104C362.68 157.697 362.828 158.16 363.125 158.491C363.439 158.806 363.875 158.963 364.434 158.963C365.08 158.963 365.63 158.788 366.083 158.439L367.183 161.319ZM152.127 194.209C150.626 194.209 149.273 193.904 148.069 193.293C146.882 192.665 145.948 191.801 145.267 190.701C144.604 189.601 144.272 188.353 144.272 186.957C144.272 185.56 144.604 184.312 145.267 183.212C145.948 182.113 146.882 181.257 148.069 180.647C149.273 180.018 150.626 179.704 152.127 179.704C153.611 179.704 154.902 180.018 156.002 180.647C157.119 181.257 157.931 182.139 158.437 183.291L155.269 184.993C154.536 183.701 153.48 183.055 152.101 183.055C151.036 183.055 150.154 183.404 149.456 184.103C148.758 184.801 148.409 185.752 148.409 186.957C148.409 188.161 148.758 189.112 149.456 189.811C150.154 190.509 151.036 190.858 152.101 190.858C153.497 190.858 154.553 190.212 155.269 188.92L158.437 190.649C157.931 191.766 157.119 192.638 156.002 193.267C154.902 193.895 153.611 194.209 152.127 194.209ZM165.947 179.704C168.129 179.704 169.805 180.228 170.974 181.275C172.144 182.305 172.729 183.867 172.729 185.962V194H168.906V192.246C168.138 193.555 166.706 194.209 164.612 194.209C163.529 194.209 162.587 194.026 161.784 193.66C160.998 193.293 160.396 192.787 159.977 192.141C159.558 191.495 159.349 190.762 159.349 189.942C159.349 188.632 159.838 187.603 160.815 186.852C161.81 186.101 163.337 185.726 165.397 185.726H168.644C168.644 184.836 168.373 184.155 167.832 183.684C167.291 183.195 166.479 182.951 165.397 182.951C164.647 182.951 163.905 183.073 163.172 183.317C162.456 183.544 161.845 183.858 161.339 184.26L159.873 181.406C160.641 180.865 161.557 180.446 162.622 180.149C163.704 179.852 164.812 179.704 165.947 179.704ZM165.633 191.46C166.331 191.46 166.951 191.303 167.492 190.989C168.033 190.657 168.417 190.177 168.644 189.549V188.109H165.842C164.167 188.109 163.329 188.659 163.329 189.758C163.329 190.282 163.529 190.701 163.931 191.015C164.35 191.312 164.917 191.46 165.633 191.46ZM193.942 179.704C195.705 179.704 197.101 180.228 198.131 181.275C199.179 182.305 199.702 183.858 199.702 185.936V194H195.618V186.564C195.618 185.447 195.382 184.618 194.911 184.077C194.457 183.518 193.802 183.239 192.947 183.239C191.987 183.239 191.228 183.553 190.669 184.181C190.11 184.792 189.831 185.709 189.831 186.931V194H185.747V186.564C185.747 184.347 184.856 183.239 183.076 183.239C182.133 183.239 181.383 183.553 180.824 184.181C180.266 184.792 179.986 185.709 179.986 186.931V194H175.902V179.913H179.803V181.537C180.327 180.943 180.964 180.489 181.714 180.175C182.482 179.861 183.32 179.704 184.228 179.704C185.223 179.704 186.122 179.905 186.925 180.306C187.728 180.69 188.374 181.257 188.862 182.008C189.438 181.275 190.163 180.708 191.036 180.306C191.926 179.905 192.895 179.704 193.942 179.704ZM211.166 179.704C212.475 179.704 213.662 180.009 214.727 180.62C215.809 181.214 216.656 182.06 217.267 183.16C217.878 184.242 218.183 185.508 218.183 186.957C218.183 188.405 217.878 189.68 217.267 190.779C216.656 191.862 215.809 192.708 214.727 193.319C213.662 193.913 212.475 194.209 211.166 194.209C209.368 194.209 207.954 193.642 206.924 192.508V199.08H202.84V179.913H206.741V181.537C207.753 180.315 209.228 179.704 211.166 179.704ZM210.459 190.858C211.506 190.858 212.362 190.509 213.025 189.811C213.706 189.095 214.046 188.144 214.046 186.957C214.046 185.77 213.706 184.827 213.025 184.129C212.362 183.413 211.506 183.055 210.459 183.055C209.412 183.055 208.548 183.413 207.867 184.129C207.204 184.827 206.872 185.77 206.872 186.957C206.872 188.144 207.204 189.095 207.867 189.811C208.548 190.509 209.412 190.858 210.459 190.858ZM225.845 179.704C228.027 179.704 229.703 180.228 230.873 181.275C232.042 182.305 232.627 183.867 232.627 185.962V194H228.804V192.246C228.036 193.555 226.605 194.209 224.51 194.209C223.428 194.209 222.485 194.026 221.682 193.66C220.897 193.293 220.295 192.787 219.876 192.141C219.457 191.495 219.247 190.762 219.247 189.942C219.247 188.632 219.736 187.603 220.714 186.852C221.708 186.101 223.236 185.726 225.296 185.726H228.542C228.542 184.836 228.272 184.155 227.731 183.684C227.19 183.195 226.378 182.951 225.296 182.951C224.545 182.951 223.803 183.073 223.07 183.317C222.354 183.544 221.743 183.858 221.237 184.26L219.771 181.406C220.539 180.865 221.455 180.446 222.52 180.149C223.602 179.852 224.711 179.704 225.845 179.704ZM225.531 191.46C226.229 191.46 226.849 191.303 227.39 190.989C227.931 190.657 228.315 190.177 228.542 189.549V188.109H225.741C224.065 188.109 223.227 188.659 223.227 189.758C223.227 190.282 223.428 190.701 223.829 191.015C224.248 191.312 224.816 191.46 225.531 191.46ZM235.8 179.913H239.885V194H235.8V179.913ZM237.842 177.95C237.092 177.95 236.481 177.731 236.009 177.295C235.538 176.859 235.303 176.318 235.303 175.672C235.303 175.026 235.538 174.485 236.009 174.048C236.481 173.612 237.092 173.394 237.842 173.394C238.593 173.394 239.204 173.603 239.675 174.022C240.146 174.441 240.382 174.965 240.382 175.593C240.382 176.274 240.146 176.841 239.675 177.295C239.204 177.731 238.593 177.95 237.842 177.95ZM257.684 179.913V191.644C257.684 194.227 257.011 196.147 255.667 197.404C254.323 198.661 252.36 199.289 249.776 199.289C248.415 199.289 247.123 199.123 245.901 198.792C244.679 198.46 243.667 197.98 242.864 197.351L244.487 194.419C245.081 194.908 245.831 195.292 246.739 195.571C247.647 195.868 248.554 196.016 249.462 196.016C250.876 196.016 251.914 195.693 252.578 195.047C253.259 194.419 253.599 193.459 253.599 192.167V191.565C252.534 192.734 251.05 193.319 249.148 193.319C247.856 193.319 246.669 193.04 245.587 192.481C244.522 191.905 243.675 191.102 243.047 190.073C242.419 189.043 242.104 187.856 242.104 186.512C242.104 185.167 242.419 183.981 243.047 182.951C243.675 181.921 244.522 181.127 245.587 180.568C246.669 179.992 247.856 179.704 249.148 179.704C251.19 179.704 252.744 180.376 253.808 181.72V179.913H257.684ZM249.959 189.968C251.042 189.968 251.923 189.654 252.604 189.025C253.302 188.379 253.651 187.541 253.651 186.512C253.651 185.482 253.302 184.653 252.604 184.024C251.923 183.378 251.042 183.055 249.959 183.055C248.877 183.055 247.987 183.378 247.289 184.024C246.591 184.653 246.241 185.482 246.241 186.512C246.241 187.541 246.591 188.379 247.289 189.025C247.987 189.654 248.877 189.968 249.959 189.968ZM269.524 179.704C271.269 179.704 272.674 180.228 273.739 181.275C274.821 182.322 275.362 183.876 275.362 185.936V194H271.278V186.564C271.278 185.447 271.033 184.618 270.545 184.077C270.056 183.518 269.349 183.239 268.424 183.239C267.394 183.239 266.574 183.562 265.963 184.207C265.352 184.836 265.046 185.778 265.046 187.035V194H260.962V179.913H264.863V181.563C265.404 180.969 266.076 180.516 266.879 180.201C267.682 179.87 268.563 179.704 269.524 179.704ZM283.28 194.209C282.111 194.209 280.968 194.07 279.85 193.791C278.733 193.494 277.843 193.127 277.18 192.691L278.541 189.758C279.17 190.16 279.929 190.491 280.819 190.753C281.709 190.998 282.582 191.12 283.437 191.12C285.166 191.12 286.03 190.692 286.03 189.837C286.03 189.435 285.794 189.147 285.323 188.973C284.851 188.798 284.127 188.65 283.149 188.528C281.997 188.353 281.046 188.152 280.295 187.925C279.545 187.699 278.89 187.297 278.332 186.721C277.791 186.145 277.52 185.325 277.52 184.26C277.52 183.37 277.773 182.584 278.279 181.903C278.803 181.205 279.554 180.664 280.531 180.28C281.526 179.896 282.696 179.704 284.04 179.704C285.035 179.704 286.021 179.817 286.998 180.044C287.993 180.254 288.814 180.551 289.46 180.935L288.098 183.841C286.859 183.143 285.506 182.794 284.04 182.794C283.167 182.794 282.512 182.916 282.076 183.16C281.64 183.404 281.421 183.719 281.421 184.103C281.421 184.539 281.657 184.845 282.128 185.019C282.6 185.194 283.35 185.36 284.38 185.517C285.532 185.709 286.475 185.918 287.208 186.145C287.941 186.354 288.578 186.747 289.119 187.323C289.66 187.899 289.931 188.702 289.931 189.732C289.931 190.605 289.669 191.382 289.145 192.062C288.622 192.743 287.854 193.276 286.841 193.66C285.846 194.026 284.659 194.209 283.28 194.209Z" fill="#173F5F"/>
<path d="M108.92 61L108.884 45.88L101.468 58.336H98.84L91.46 46.204V61H85.988V35.8H90.812L100.244 51.46L109.532 35.8H114.32L114.392 61H108.92ZM138.479 41.632L129.731 62.188C128.843 64.42 127.739 65.992 126.419 66.904C125.123 67.816 123.551 68.272 121.703 68.272C120.695 68.272 119.699 68.116 118.715 67.804C117.731 67.492 116.927 67.06 116.303 66.508L118.355 62.512C118.787 62.896 119.279 63.196 119.831 63.412C120.407 63.628 120.971 63.736 121.523 63.736C122.291 63.736 122.915 63.544 123.395 63.16C123.875 62.8 124.307 62.188 124.691 61.324L124.763 61.144L116.375 41.632H122.171L127.607 54.772L133.079 41.632H138.479ZM161.982 61.432C159.414 61.432 157.086 60.88 154.998 59.776C152.934 58.648 151.302 57.1 150.102 55.132C148.926 53.14 148.338 50.896 148.338 48.4C148.338 45.904 148.926 43.672 150.102 41.704C151.302 39.712 152.934 38.164 154.998 37.06C157.086 35.932 159.426 35.368 162.018 35.368C164.202 35.368 166.17 35.752 167.922 36.52C169.698 37.288 171.186 38.392 172.386 39.832L168.642 43.288C166.938 41.32 164.826 40.336 162.306 40.336C160.746 40.336 159.354 40.684 158.13 41.38C156.906 42.052 155.946 43 155.25 44.224C154.578 45.448 154.242 46.84 154.242 48.4C154.242 49.96 154.578 51.352 155.25 52.576C155.946 53.8 156.906 54.76 158.13 55.456C159.354 56.128 160.746 56.464 162.306 56.464C164.826 56.464 166.938 55.468 168.642 53.476L172.386 56.932C171.186 58.396 169.698 59.512 167.922 60.28C166.146 61.048 164.166 61.432 161.982 61.432ZM182.879 41.344C185.879 41.344 188.183 42.064 189.791 43.504C191.399 44.92 192.203 47.068 192.203 49.948V61H186.947V58.588C185.891 60.388 183.923 61.288 181.043 61.288C179.555 61.288 178.259 61.036 177.155 60.532C176.075 60.028 175.247 59.332 174.671 58.444C174.095 57.556 173.807 56.548 173.807 55.42C173.807 53.62 174.479 52.204 175.823 51.172C177.191 50.14 179.291 49.624 182.123 49.624H186.587C186.587 48.4 186.215 47.464 185.471 46.816C184.727 46.144 183.611 45.808 182.123 45.808C181.091 45.808 180.071 45.976 179.063 46.312C178.079 46.624 177.239 47.056 176.543 47.608L174.527 43.684C175.583 42.94 176.843 42.364 178.307 41.956C179.795 41.548 181.319 41.344 182.879 41.344ZM182.447 57.508C183.407 57.508 184.259 57.292 185.003 56.86C185.747 56.404 186.275 55.744 186.587 54.88V52.9H182.735C180.431 52.9 179.279 53.656 179.279 55.168C179.279 55.888 179.555 56.464 180.107 56.896C180.683 57.304 181.463 57.508 182.447 57.508ZM221.37 41.344C223.794 41.344 225.714 42.064 227.13 43.504C228.57 44.92 229.29 47.056 229.29 49.912V61H223.674V50.776C223.674 49.24 223.35 48.1 222.702 47.356C222.078 46.588 221.178 46.204 220.002 46.204C218.682 46.204 217.638 46.636 216.87 47.5C216.102 48.34 215.718 49.6 215.718 51.28V61H210.102V50.776C210.102 47.728 208.878 46.204 206.43 46.204C205.134 46.204 204.102 46.636 203.334 47.5C202.566 48.34 202.182 49.6 202.182 51.28V61H196.566V41.632H201.93V43.864C202.65 43.048 203.526 42.424 204.558 41.992C205.614 41.56 206.766 41.344 208.014 41.344C209.382 41.344 210.618 41.62 211.722 42.172C212.826 42.7 213.714 43.48 214.386 44.512C215.178 43.504 216.174 42.724 217.374 42.172C218.598 41.62 219.93 41.344 221.37 41.344ZM245.052 41.344C246.852 41.344 248.484 41.764 249.948 42.604C251.436 43.42 252.6 44.584 253.44 46.096C254.28 47.584 254.7 49.324 254.7 51.316C254.7 53.308 254.28 55.06 253.44 56.572C252.6 58.06 251.436 59.224 249.948 60.064C248.484 60.88 246.852 61.288 245.052 61.288C242.58 61.288 240.636 60.508 239.22 58.948V67.984H233.604V41.632H238.968V43.864C240.36 42.184 242.388 41.344 245.052 41.344ZM244.08 56.68C245.52 56.68 246.696 56.2 247.608 55.24C248.544 54.256 249.012 52.948 249.012 51.316C249.012 49.684 248.544 48.388 247.608 47.428C246.696 46.444 245.52 45.952 244.08 45.952C242.64 45.952 241.452 46.444 240.516 47.428C239.604 48.388 239.148 49.684 239.148 51.316C239.148 52.948 239.604 54.256 240.516 55.24C241.452 56.2 242.64 56.68 244.08 56.68ZM265.235 41.344C268.235 41.344 270.539 42.064 272.147 43.504C273.755 44.92 274.559 47.068 274.559 49.948V61H269.303V58.588C268.247 60.388 266.279 61.288 263.399 61.288C261.911 61.288 260.615 61.036 259.511 60.532C258.431 60.028 257.603 59.332 257.027 58.444C256.451 57.556 256.163 56.548 256.163 55.42C256.163 53.62 256.835 52.204 258.179 51.172C259.547 50.14 261.647 49.624 264.479 49.624H268.943C268.943 48.4 268.571 47.464 267.827 46.816C267.083 46.144 265.967 45.808 264.479 45.808C263.447 45.808 262.427 45.976 261.419 46.312C260.435 46.624 259.595 47.056 258.899 47.608L256.883 43.684C257.939 42.94 259.199 42.364 260.663 41.956C262.151 41.548 263.675 41.344 265.235 41.344ZM264.803 57.508C265.763 57.508 266.615 57.292 267.359 56.86C268.103 56.404 268.631 55.744 268.943 54.88V52.9H265.091C262.787 52.9 261.635 53.656 261.635 55.168C261.635 55.888 261.911 56.464 262.463 56.896C263.039 57.304 263.819 57.508 264.803 57.508ZM278.922 41.632H284.538V61H278.922V41.632ZM281.73 38.932C280.698 38.932 279.858 38.632 279.21 38.032C278.562 37.432 278.238 36.688 278.238 35.8C278.238 34.912 278.562 34.168 279.21 33.568C279.858 32.968 280.698 32.668 281.73 32.668C282.762 32.668 283.602 32.956 284.25 33.532C284.898 34.108 285.222 34.828 285.222 35.692C285.222 36.628 284.898 37.408 284.25 38.032C283.602 38.632 282.762 38.932 281.73 38.932ZM309.01 41.632V57.76C309.01 61.312 308.086 63.952 306.238 65.68C304.39 67.408 301.69 68.272 298.138 68.272C296.266 68.272 294.49 68.044 292.81 67.588C291.13 67.132 289.738 66.472 288.634 65.608L290.866 61.576C291.682 62.248 292.714 62.776 293.962 63.16C295.21 63.568 296.458 63.772 297.706 63.772C299.65 63.772 301.078 63.328 301.99 62.44C302.926 61.576 303.394 60.256 303.394 58.48V57.652C301.93 59.26 299.89 60.064 297.274 60.064C295.498 60.064 293.866 59.68 292.378 58.912C290.914 58.12 289.75 57.016 288.886 55.6C288.022 54.184 287.59 52.552 287.59 50.704C287.59 48.856 288.022 47.224 288.886 45.808C289.75 44.392 290.914 43.3 292.378 42.532C293.866 41.74 295.498 41.344 297.274 41.344C300.082 41.344 302.218 42.268 303.682 44.116V41.632H309.01ZM298.39 55.456C299.878 55.456 301.09 55.024 302.026 54.16C302.986 53.272 303.466 52.12 303.466 50.704C303.466 49.288 302.986 48.148 302.026 47.284C301.09 46.396 299.878 45.952 298.39 45.952C296.902 45.952 295.678 46.396 294.718 47.284C293.758 48.148 293.278 49.288 293.278 50.704C293.278 52.12 293.758 53.272 294.718 54.16C295.678 55.024 296.902 55.456 298.39 55.456ZM325.289 41.344C327.689 41.344 329.621 42.064 331.085 43.504C332.573 44.944 333.317 47.08 333.317 49.912V61H327.701V50.776C327.701 49.24 327.365 48.1 326.693 47.356C326.021 46.588 325.049 46.204 323.777 46.204C322.361 46.204 321.233 46.648 320.393 47.536C319.553 48.4 319.133 49.696 319.133 51.424V61H313.517V41.632H318.881V43.9C319.625 43.084 320.549 42.46 321.653 42.028C322.757 41.572 323.969 41.344 325.289 41.344ZM344.204 61.288C342.596 61.288 341.024 61.096 339.488 60.712C337.952 60.304 336.728 59.8 335.816 59.2L337.688 55.168C338.552 55.72 339.596 56.176 340.82 56.536C342.044 56.872 343.244 57.04 344.42 57.04C346.796 57.04 347.984 56.452 347.984 55.276C347.984 54.724 347.66 54.328 347.012 54.088C346.364 53.848 345.368 53.644 344.024 53.476C342.44 53.236 341.132 52.96 340.1 52.648C339.068 52.336 338.168 51.784 337.4 50.992C336.656 50.2 336.284 49.072 336.284 47.608C336.284 46.384 336.632 45.304 337.328 44.368C338.048 43.408 339.08 42.664 340.424 42.136C341.792 41.608 343.4 41.344 345.248 41.344C346.616 41.344 347.972 41.5 349.316 41.812C350.684 42.1 351.812 42.508 352.7 43.036L350.828 47.032C349.124 46.072 347.264 45.592 345.248 45.592C344.048 45.592 343.148 45.76 342.548 46.096C341.948 46.432 341.648 46.864 341.648 47.392C341.648 47.992 341.972 48.412 342.62 48.652C343.268 48.892 344.3 49.12 345.716 49.336C347.3 49.6 348.596 49.888 349.604 50.2C350.612 50.488 351.488 51.028 352.232 51.82C352.976 52.612 353.348 53.716 353.348 55.132C353.348 56.332 352.988 57.4 352.268 58.336C351.548 59.272 350.492 60.004 349.1 60.532C347.732 61.036 346.1 61.288 344.204 61.288Z" fill="#E5E9F2"/>
</svg>
