<svg width="428" height="235" viewBox="0 0 428 235" fill="none" xmlns="http://www.w3.org/2000/svg">
<rect x="1" width="427" height="235" rx="23" fill="#91AFC8"/>
<path d="M0 88H428V212C428 224.703 417.703 235 405 235H23C10.2974 235 0 224.703 0 212V88Z" fill="#E5E9F2"/>
<path d="M51.2579 130.314C49.3902 130.314 47.697 129.913 46.1784 129.11C44.6772 128.289 43.4902 127.163 42.6174 125.732C41.7621 124.283 41.3344 122.651 41.3344 120.836C41.3344 119.02 41.7621 117.397 42.6174 115.966C43.4902 114.517 44.6772 113.391 46.1784 112.588C47.697 111.768 49.3989 111.357 51.2841 111.357C52.8726 111.357 54.3039 111.637 55.5782 112.195C56.8699 112.754 57.9521 113.557 58.8249 114.604L56.1018 117.118C54.8625 115.686 53.3264 114.971 51.4936 114.971C50.359 114.971 49.3465 115.224 48.4563 115.73C47.5661 116.219 46.8678 116.908 46.3616 117.799C45.8729 118.689 45.6285 119.701 45.6285 120.836C45.6285 121.97 45.8729 122.983 46.3616 123.873C46.8678 124.763 47.5661 125.462 48.4563 125.968C49.3465 126.457 50.359 126.701 51.4936 126.701C53.3264 126.701 54.8625 125.976 56.1018 124.528L58.8249 127.041C57.9521 128.106 56.8699 128.918 55.5782 129.476C54.2865 130.035 52.8464 130.314 51.2579 130.314ZM60.8776 110.572H64.9622V130H60.8776V110.572ZM68.2294 115.913H72.314V130H68.2294V115.913ZM70.2717 113.95C69.5211 113.95 68.9102 113.731 68.4389 113.295C67.9676 112.859 67.7319 112.318 67.7319 111.672C67.7319 111.026 67.9676 110.485 68.4389 110.048C68.9102 109.612 69.5211 109.394 70.2717 109.394C71.0223 109.394 71.6332 109.603 72.1045 110.022C72.5758 110.441 72.8115 110.965 72.8115 111.593C72.8115 112.274 72.5758 112.841 72.1045 113.295C71.6332 113.731 71.0223 113.95 70.2717 113.95ZM82.3889 130.209C80.8877 130.209 79.5349 129.904 78.3304 129.293C77.1435 128.665 76.2096 127.801 75.5288 126.701C74.8655 125.601 74.5339 124.353 74.5339 122.957C74.5339 121.56 74.8655 120.312 75.5288 119.212C76.2096 118.113 77.1435 117.257 78.3304 116.647C79.5349 116.018 80.8877 115.704 82.3889 115.704C83.8726 115.704 85.1643 116.018 86.264 116.647C87.3811 117.257 88.1928 118.139 88.699 119.291L85.5308 120.993C84.7977 119.701 83.7417 119.055 82.3627 119.055C81.2979 119.055 80.4164 119.404 79.7182 120.103C79.0199 120.801 78.6708 121.752 78.6708 122.957C78.6708 124.161 79.0199 125.112 79.7182 125.811C80.4164 126.509 81.2979 126.858 82.3627 126.858C83.7591 126.858 84.8152 126.212 85.5308 124.92L88.699 126.649C88.1928 127.766 87.3811 128.638 86.264 129.267C85.1643 129.895 83.8726 130.209 82.3889 130.209ZM96.4732 124.475L94.5095 126.413V130H90.4249V110.572H94.5095V121.569L100.479 115.913H105.349L99.4843 121.883L105.873 130H100.924L96.4732 124.475ZM122.64 115.704C124.385 115.704 125.79 116.228 126.855 117.275C127.938 118.322 128.479 119.876 128.479 121.936V130H124.394V122.564C124.394 121.447 124.15 120.618 123.661 120.077C123.172 119.518 122.465 119.239 121.54 119.239C120.51 119.239 119.69 119.562 119.079 120.207C118.468 120.836 118.162 121.778 118.162 123.035V130H114.078V110.572H118.162V117.38C118.704 116.839 119.358 116.428 120.126 116.149C120.894 115.852 121.732 115.704 122.64 115.704ZM145.609 123.009C145.609 123.061 145.583 123.428 145.531 124.109H134.874C135.066 124.982 135.52 125.671 136.236 126.177C136.952 126.683 137.842 126.937 138.907 126.937C139.64 126.937 140.286 126.832 140.844 126.622C141.42 126.395 141.953 126.046 142.441 125.575L144.615 127.932C143.288 129.45 141.35 130.209 138.802 130.209C137.213 130.209 135.808 129.904 134.586 129.293C133.364 128.665 132.422 127.801 131.759 126.701C131.095 125.601 130.764 124.353 130.764 122.957C130.764 121.578 131.086 120.338 131.732 119.239C132.396 118.122 133.295 117.257 134.429 116.647C135.581 116.018 136.864 115.704 138.278 115.704C139.657 115.704 140.905 116.001 142.022 116.594C143.14 117.188 144.012 118.043 144.641 119.16C145.287 120.26 145.609 121.543 145.609 123.009ZM138.304 118.794C137.379 118.794 136.602 119.055 135.974 119.579C135.346 120.103 134.962 120.818 134.822 121.726H141.761C141.621 120.836 141.237 120.129 140.608 119.605C139.98 119.064 139.212 118.794 138.304 118.794ZM151.707 117.772C152.195 117.092 152.85 116.577 153.67 116.228C154.508 115.878 155.468 115.704 156.55 115.704V119.474C156.097 119.439 155.791 119.422 155.634 119.422C154.464 119.422 153.548 119.754 152.885 120.417C152.221 121.063 151.89 122.04 151.89 123.349V130H147.805V115.913H151.707V117.772ZM172.126 123.009C172.126 123.061 172.1 123.428 172.048 124.109H161.391C161.583 124.982 162.037 125.671 162.753 126.177C163.468 126.683 164.358 126.937 165.423 126.937C166.156 126.937 166.802 126.832 167.361 126.622C167.937 126.395 168.469 126.046 168.958 125.575L171.131 127.932C169.805 129.45 167.867 130.209 165.319 130.209C163.73 130.209 162.325 129.904 161.103 129.293C159.881 128.665 158.939 127.801 158.275 126.701C157.612 125.601 157.28 124.353 157.28 122.957C157.28 121.578 157.603 120.338 158.249 119.239C158.912 118.122 159.811 117.257 160.946 116.647C162.098 116.018 163.381 115.704 164.795 115.704C166.174 115.704 167.422 116.001 168.539 116.594C169.656 117.188 170.529 118.043 171.157 119.16C171.803 120.26 172.126 121.543 172.126 123.009ZM164.821 118.794C163.896 118.794 163.119 119.055 162.491 119.579C161.862 120.103 161.478 120.818 161.339 121.726H168.277C168.138 120.836 167.754 120.129 167.125 119.605C166.497 119.064 165.729 118.794 164.821 118.794ZM190.299 129.319C189.898 129.616 189.4 129.843 188.807 130C188.231 130.14 187.62 130.209 186.974 130.209C185.298 130.209 183.998 129.782 183.072 128.926C182.165 128.071 181.711 126.814 181.711 125.156V119.37H179.538V116.228H181.711V112.798H185.796V116.228H189.304V119.37H185.796V125.104C185.796 125.697 185.944 126.16 186.241 126.491C186.555 126.806 186.991 126.963 187.55 126.963C188.196 126.963 188.746 126.788 189.199 126.439L190.299 129.319ZM198.337 130.209C196.853 130.209 195.517 129.904 194.33 129.293C193.161 128.665 192.245 127.801 191.581 126.701C190.918 125.601 190.586 124.353 190.586 122.957C190.586 121.56 190.918 120.312 191.581 119.212C192.245 118.113 193.161 117.257 194.33 116.647C195.517 116.018 196.853 115.704 198.337 115.704C199.82 115.704 201.147 116.018 202.316 116.647C203.486 117.257 204.402 118.113 205.066 119.212C205.729 120.312 206.061 121.56 206.061 122.957C206.061 124.353 205.729 125.601 205.066 126.701C204.402 127.801 203.486 128.665 202.316 129.293C201.147 129.904 199.82 130.209 198.337 130.209ZM198.337 126.858C199.384 126.858 200.239 126.509 200.902 125.811C201.583 125.095 201.924 124.144 201.924 122.957C201.924 121.77 201.583 120.827 200.902 120.129C200.239 119.413 199.384 119.055 198.337 119.055C197.289 119.055 196.425 119.413 195.744 120.129C195.064 120.827 194.723 121.77 194.723 122.957C194.723 124.144 195.064 125.095 195.744 125.811C196.425 126.509 197.289 126.858 198.337 126.858ZM229.507 110.572V130H225.606V128.377C224.593 129.599 223.127 130.209 221.207 130.209C219.88 130.209 218.676 129.913 217.594 129.319C216.529 128.726 215.691 127.879 215.08 126.779C214.469 125.68 214.164 124.405 214.164 122.957C214.164 121.508 214.469 120.234 215.08 119.134C215.691 118.034 216.529 117.188 217.594 116.594C218.676 116.001 219.88 115.704 221.207 115.704C223.005 115.704 224.41 116.271 225.423 117.406V110.572H229.507ZM221.914 126.858C222.944 126.858 223.799 126.509 224.48 125.811C225.161 125.095 225.501 124.144 225.501 122.957C225.501 121.77 225.161 120.827 224.48 120.129C223.799 119.413 222.944 119.055 221.914 119.055C220.867 119.055 220.003 119.413 219.322 120.129C218.641 120.827 218.301 121.77 218.301 122.957C218.301 124.144 218.641 125.095 219.322 125.811C220.003 126.509 220.867 126.858 221.914 126.858ZM239.467 130.209C237.983 130.209 236.648 129.904 235.461 129.293C234.291 128.665 233.375 127.801 232.712 126.701C232.048 125.601 231.717 124.353 231.717 122.957C231.717 121.56 232.048 120.312 232.712 119.212C233.375 118.113 234.291 117.257 235.461 116.647C236.648 116.018 237.983 115.704 239.467 115.704C240.951 115.704 242.277 116.018 243.447 116.647C244.616 117.257 245.533 118.113 246.196 119.212C246.859 120.312 247.191 121.56 247.191 122.957C247.191 124.353 246.859 125.601 246.196 126.701C245.533 127.801 244.616 128.665 243.447 129.293C242.277 129.904 240.951 130.209 239.467 130.209ZM239.467 126.858C240.514 126.858 241.369 126.509 242.033 125.811C242.714 125.095 243.054 124.144 243.054 122.957C243.054 121.77 242.714 120.827 242.033 120.129C241.369 119.413 240.514 119.055 239.467 119.055C238.419 119.055 237.555 119.413 236.875 120.129C236.194 120.827 235.854 121.77 235.854 122.957C235.854 124.144 236.194 125.095 236.875 125.811C237.555 126.509 238.419 126.858 239.467 126.858ZM257.959 115.704C259.705 115.704 261.11 116.228 262.175 117.275C263.257 118.322 263.798 119.876 263.798 121.936V130H259.714V122.564C259.714 121.447 259.469 120.618 258.981 120.077C258.492 119.518 257.785 119.239 256.86 119.239C255.83 119.239 255.009 119.562 254.398 120.207C253.788 120.836 253.482 121.778 253.482 123.035V130H249.397V115.913H253.299V117.563C253.84 116.969 254.512 116.516 255.315 116.201C256.118 115.87 256.999 115.704 257.959 115.704ZM272.659 115.704C274.841 115.704 276.517 116.228 277.686 117.275C278.856 118.305 279.44 119.867 279.44 121.962V130H275.618V128.246C274.85 129.555 273.418 130.209 271.324 130.209C270.241 130.209 269.299 130.026 268.496 129.66C267.71 129.293 267.108 128.787 266.689 128.141C266.27 127.495 266.061 126.762 266.061 125.942C266.061 124.632 266.549 123.603 267.527 122.852C268.522 122.101 270.049 121.726 272.109 121.726H275.356C275.356 120.836 275.085 120.155 274.544 119.684C274.003 119.195 273.191 118.951 272.109 118.951C271.358 118.951 270.617 119.073 269.883 119.317C269.168 119.544 268.557 119.858 268.051 120.26L266.584 117.406C267.352 116.865 268.269 116.446 269.334 116.149C270.416 115.852 271.524 115.704 272.659 115.704ZM272.345 127.46C273.043 127.46 273.663 127.303 274.204 126.989C274.745 126.657 275.129 126.177 275.356 125.549V124.109H272.554C270.878 124.109 270.041 124.659 270.041 125.758C270.041 126.282 270.241 126.701 270.643 127.015C271.062 127.312 271.629 127.46 272.345 127.46ZM291.699 129.319C291.298 129.616 290.8 129.843 290.207 130C289.631 130.14 289.02 130.209 288.374 130.209C286.698 130.209 285.398 129.782 284.472 128.926C283.565 128.071 283.111 126.814 283.111 125.156V119.37H280.938V116.228H283.111V112.798H287.196V116.228H290.704V119.37H287.196V125.104C287.196 125.697 287.344 126.16 287.641 126.491C287.955 126.806 288.391 126.963 288.95 126.963C289.596 126.963 290.146 126.788 290.599 126.439L291.699 129.319ZM306.832 123.009C306.832 123.061 306.806 123.428 306.754 124.109H296.097C296.289 124.982 296.743 125.671 297.459 126.177C298.174 126.683 299.064 126.937 300.129 126.937C300.862 126.937 301.508 126.832 302.067 126.622C302.643 126.395 303.175 126.046 303.664 125.575L305.837 127.932C304.511 129.45 302.573 130.209 300.025 130.209C298.436 130.209 297.031 129.904 295.809 129.293C294.587 128.665 293.645 127.801 292.981 126.701C292.318 125.601 291.986 124.353 291.986 122.957C291.986 121.578 292.309 120.338 292.955 119.239C293.618 118.122 294.517 117.257 295.652 116.647C296.804 116.018 298.087 115.704 299.501 115.704C300.88 115.704 302.128 116.001 303.245 116.594C304.362 117.188 305.235 118.043 305.863 119.16C306.509 120.26 306.832 121.543 306.832 123.009ZM299.527 118.794C298.602 118.794 297.825 119.055 297.197 119.579C296.568 120.103 296.184 120.818 296.045 121.726H302.983C302.844 120.836 302.46 120.129 301.831 119.605C301.203 119.064 300.435 118.794 299.527 118.794ZM322.622 130.209C321.139 130.209 319.803 129.904 318.616 129.293C317.447 128.665 316.53 127.801 315.867 126.701C315.204 125.601 314.872 124.353 314.872 122.957C314.872 121.56 315.204 120.312 315.867 119.212C316.53 118.113 317.447 117.257 318.616 116.647C319.803 116.018 321.139 115.704 322.622 115.704C324.106 115.704 325.433 116.018 326.602 116.647C327.772 117.257 328.688 118.113 329.351 119.212C330.015 120.312 330.346 121.56 330.346 122.957C330.346 124.353 330.015 125.601 329.351 126.701C328.688 127.801 327.772 128.665 326.602 129.293C325.433 129.904 324.106 130.209 322.622 130.209ZM322.622 126.858C323.67 126.858 324.525 126.509 325.188 125.811C325.869 125.095 326.209 124.144 326.209 122.957C326.209 121.77 325.869 120.827 325.188 120.129C324.525 119.413 323.67 119.055 322.622 119.055C321.575 119.055 320.711 119.413 320.03 120.129C319.349 120.827 319.009 121.77 319.009 122.957C319.009 124.144 319.349 125.095 320.03 125.811C320.711 126.509 321.575 126.858 322.622 126.858ZM336.454 117.772C336.943 117.092 337.598 116.577 338.418 116.228C339.256 115.878 340.216 115.704 341.298 115.704V119.474C340.844 119.439 340.539 119.422 340.382 119.422C339.212 119.422 338.296 119.754 337.633 120.417C336.969 121.063 336.638 122.04 336.638 123.349V130H332.553V115.913H336.454V117.772ZM354.936 130.209C353.767 130.209 352.623 130.07 351.506 129.791C350.389 129.494 349.499 129.127 348.836 128.691L350.197 125.758C350.825 126.16 351.585 126.491 352.475 126.753C353.365 126.998 354.238 127.12 355.093 127.12C356.821 127.12 357.685 126.692 357.685 125.837C357.685 125.435 357.45 125.147 356.979 124.973C356.507 124.798 355.783 124.65 354.805 124.528C353.653 124.353 352.702 124.152 351.951 123.925C351.201 123.699 350.546 123.297 349.988 122.721C349.446 122.145 349.176 121.325 349.176 120.26C349.176 119.37 349.429 118.584 349.935 117.903C350.459 117.205 351.209 116.664 352.187 116.28C353.182 115.896 354.351 115.704 355.696 115.704C356.691 115.704 357.677 115.817 358.654 116.044C359.649 116.254 360.47 116.551 361.115 116.935L359.754 119.841C358.515 119.143 357.162 118.794 355.696 118.794C354.823 118.794 354.168 118.916 353.732 119.16C353.295 119.404 353.077 119.719 353.077 120.103C353.077 120.539 353.313 120.845 353.784 121.019C354.255 121.194 355.006 121.36 356.036 121.517C357.188 121.709 358.131 121.918 358.864 122.145C359.597 122.354 360.234 122.747 360.775 123.323C361.316 123.899 361.587 124.702 361.587 125.732C361.587 126.605 361.325 127.382 360.801 128.062C360.278 128.743 359.51 129.276 358.497 129.66C357.502 130.026 356.315 130.209 354.936 130.209ZM377.382 123.009C377.382 123.061 377.356 123.428 377.303 124.109H366.647C366.839 124.982 367.293 125.671 368.008 126.177C368.724 126.683 369.614 126.937 370.679 126.937C371.412 126.937 372.058 126.832 372.617 126.622C373.193 126.395 373.725 126.046 374.214 125.575L376.387 127.932C375.06 129.45 373.123 130.209 370.574 130.209C368.986 130.209 367.581 129.904 366.359 129.293C365.137 128.665 364.194 127.801 363.531 126.701C362.868 125.601 362.536 124.353 362.536 122.957C362.536 121.578 362.859 120.338 363.505 119.239C364.168 118.122 365.067 117.257 366.202 116.647C367.354 116.018 368.637 115.704 370.051 115.704C371.43 115.704 372.678 116.001 373.795 116.594C374.912 117.188 375.785 118.043 376.413 119.16C377.059 120.26 377.382 121.543 377.382 123.009ZM370.077 118.794C369.152 118.794 368.375 119.055 367.746 119.579C367.118 120.103 366.734 120.818 366.594 121.726H373.533C373.393 120.836 373.009 120.129 372.381 119.605C371.752 119.064 370.984 118.794 370.077 118.794ZM393.376 123.009C393.376 123.061 393.35 123.428 393.298 124.109H382.641C382.833 124.982 383.287 125.671 384.003 126.177C384.718 126.683 385.608 126.937 386.673 126.937C387.406 126.937 388.052 126.832 388.611 126.622C389.187 126.395 389.719 126.046 390.208 125.575L392.381 127.932C391.055 129.45 389.117 130.209 386.569 130.209C384.98 130.209 383.575 129.904 382.353 129.293C381.131 128.665 380.189 127.801 379.525 126.701C378.862 125.601 378.53 124.353 378.53 122.957C378.53 121.578 378.853 120.338 379.499 119.239C380.162 118.122 381.061 117.257 382.196 116.647C383.348 116.018 384.631 115.704 386.045 115.704C387.424 115.704 388.672 116.001 389.789 116.594C390.906 117.188 391.779 118.043 392.407 119.16C393.053 120.26 393.376 121.543 393.376 123.009ZM386.071 118.794C385.146 118.794 384.369 119.055 383.741 119.579C383.112 120.103 382.728 120.818 382.589 121.726H389.527C389.388 120.836 389.004 120.129 388.375 119.605C387.747 119.064 386.979 118.794 386.071 118.794ZM132.739 147.913L126.377 162.864C125.731 164.487 124.928 165.631 123.968 166.294C123.025 166.957 121.882 167.289 120.538 167.289C119.805 167.289 119.08 167.176 118.365 166.949C117.649 166.722 117.064 166.408 116.611 166.006L118.103 163.1C118.417 163.379 118.775 163.597 119.176 163.754C119.595 163.911 120.006 163.99 120.407 163.99C120.966 163.99 121.42 163.85 121.769 163.571C122.118 163.309 122.432 162.864 122.711 162.236L122.764 162.105L116.663 147.913H120.878L124.832 157.47L128.812 147.913H132.739ZM140.202 162.209C138.718 162.209 137.383 161.904 136.196 161.293C135.026 160.665 134.11 159.801 133.447 158.701C132.783 157.601 132.452 156.353 132.452 154.957C132.452 153.56 132.783 152.312 133.447 151.212C134.11 150.113 135.026 149.257 136.196 148.647C137.383 148.018 138.718 147.704 140.202 147.704C141.686 147.704 143.012 148.018 144.182 148.647C145.351 149.257 146.268 150.113 146.931 151.212C147.594 152.312 147.926 153.56 147.926 154.957C147.926 156.353 147.594 157.601 146.931 158.701C146.268 159.801 145.351 160.665 144.182 161.293C143.012 161.904 141.686 162.209 140.202 162.209ZM140.202 158.858C141.249 158.858 142.105 158.509 142.768 157.811C143.449 157.095 143.789 156.144 143.789 154.957C143.789 153.77 143.449 152.827 142.768 152.129C142.105 151.413 141.249 151.055 140.202 151.055C139.155 151.055 138.291 151.413 137.61 152.129C136.929 152.827 136.589 153.77 136.589 154.957C136.589 156.144 136.929 157.095 137.61 157.811C138.291 158.509 139.155 158.858 140.202 158.858ZM164.324 147.913V162H160.449V160.324C159.908 160.935 159.262 161.407 158.511 161.738C157.761 162.052 156.949 162.209 156.076 162.209C154.226 162.209 152.76 161.677 151.677 160.612C150.595 159.547 150.054 157.968 150.054 155.873V147.913H154.139V155.271C154.139 157.54 155.09 158.675 156.993 158.675C157.97 158.675 158.756 158.361 159.349 157.732C159.943 157.086 160.239 156.135 160.239 154.878V147.913H164.324ZM171.486 149.772C171.974 149.092 172.629 148.577 173.449 148.228C174.287 147.878 175.247 147.704 176.33 147.704V151.474C175.876 151.439 175.57 151.422 175.413 151.422C174.244 151.422 173.327 151.754 172.664 152.417C172.001 153.063 171.669 154.04 171.669 155.349V162H167.584V147.913H171.486V149.772ZM199.577 142.572V162H195.676V160.377C194.663 161.599 193.197 162.209 191.277 162.209C189.95 162.209 188.746 161.913 187.663 161.319C186.599 160.726 185.761 159.879 185.15 158.779C184.539 157.68 184.233 156.405 184.233 154.957C184.233 153.508 184.539 152.234 185.15 151.134C185.761 150.034 186.599 149.188 187.663 148.594C188.746 148.001 189.95 147.704 191.277 147.704C193.075 147.704 194.48 148.271 195.492 149.406V142.572H199.577ZM191.984 158.858C193.014 158.858 193.869 158.509 194.55 157.811C195.23 157.095 195.571 156.144 195.571 154.957C195.571 153.77 195.23 152.827 194.55 152.129C193.869 151.413 193.014 151.055 191.984 151.055C190.936 151.055 190.072 151.413 189.392 152.129C188.711 152.827 188.37 153.77 188.37 154.957C188.37 156.144 188.711 157.095 189.392 157.811C190.072 158.509 190.936 158.858 191.984 158.858ZM209.537 162.209C208.053 162.209 206.717 161.904 205.53 161.293C204.361 160.665 203.445 159.801 202.781 158.701C202.118 157.601 201.786 156.353 201.786 154.957C201.786 153.56 202.118 152.312 202.781 151.212C203.445 150.113 204.361 149.257 205.53 148.647C206.717 148.018 208.053 147.704 209.537 147.704C211.02 147.704 212.347 148.018 213.516 148.647C214.686 149.257 215.602 150.113 216.266 151.212C216.929 152.312 217.261 153.56 217.261 154.957C217.261 156.353 216.929 157.601 216.266 158.701C215.602 159.801 214.686 160.665 213.516 161.293C212.347 161.904 211.02 162.209 209.537 162.209ZM209.537 158.858C210.584 158.858 211.439 158.509 212.103 157.811C212.783 157.095 213.124 156.144 213.124 154.957C213.124 153.77 212.783 152.827 212.103 152.129C211.439 151.413 210.584 151.055 209.537 151.055C208.489 151.055 207.625 151.413 206.944 152.129C206.264 152.827 205.923 153.77 205.923 154.957C205.923 156.144 206.264 157.095 206.944 157.811C207.625 158.509 208.489 158.858 209.537 158.858ZM228.029 147.704C229.775 147.704 231.18 148.228 232.245 149.275C233.327 150.322 233.868 151.876 233.868 153.936V162H229.783V154.564C229.783 153.447 229.539 152.618 229.05 152.077C228.562 151.518 227.855 151.239 226.929 151.239C225.9 151.239 225.079 151.562 224.468 152.207C223.857 152.836 223.552 153.778 223.552 155.035V162H219.467V147.913H223.368V149.563C223.91 148.969 224.582 148.516 225.385 148.201C226.188 147.87 227.069 147.704 228.029 147.704ZM242.729 147.704C244.911 147.704 246.586 148.228 247.756 149.275C248.925 150.305 249.51 151.867 249.51 153.962V162H245.687V160.246C244.919 161.555 243.488 162.209 241.393 162.209C240.311 162.209 239.368 162.026 238.565 161.66C237.78 161.293 237.178 160.787 236.759 160.141C236.34 159.495 236.13 158.762 236.13 157.942C236.13 156.632 236.619 155.603 237.597 154.852C238.592 154.101 240.119 153.726 242.179 153.726H245.425C245.425 152.836 245.155 152.155 244.614 151.684C244.073 151.195 243.261 150.951 242.179 150.951C241.428 150.951 240.686 151.073 239.953 151.317C239.237 151.544 238.627 151.858 238.12 152.26L236.654 149.406C237.422 148.865 238.339 148.446 239.403 148.149C240.486 147.852 241.594 147.704 242.729 147.704ZM242.414 159.46C243.113 159.46 243.732 159.303 244.273 158.989C244.815 158.657 245.199 158.177 245.425 157.549V156.109H242.624C240.948 156.109 240.11 156.659 240.11 157.758C240.11 158.282 240.311 158.701 240.712 159.015C241.131 159.312 241.699 159.46 242.414 159.46ZM261.769 161.319C261.367 161.616 260.87 161.843 260.276 162C259.7 162.14 259.089 162.209 258.443 162.209C256.768 162.209 255.467 161.782 254.542 160.926C253.634 160.071 253.181 158.814 253.181 157.156V151.37H251.007V148.228H253.181V144.798H257.265V148.228H260.774V151.37H257.265V157.104C257.265 157.697 257.414 158.16 257.71 158.491C258.025 158.806 258.461 158.963 259.02 158.963C259.665 158.963 260.215 158.788 260.669 158.439L261.769 161.319ZM263.538 147.913H267.623V162H263.538V147.913ZM265.58 145.95C264.83 145.95 264.219 145.731 263.747 145.295C263.276 144.859 263.04 144.318 263.04 143.672C263.04 143.026 263.276 142.485 263.747 142.048C264.219 141.612 264.83 141.394 265.58 141.394C266.331 141.394 266.942 141.603 267.413 142.022C267.884 142.441 268.12 142.965 268.12 143.593C268.12 144.274 267.884 144.841 267.413 145.295C266.942 145.731 266.331 145.95 265.58 145.95ZM277.593 162.209C276.109 162.209 274.774 161.904 273.587 161.293C272.417 160.665 271.501 159.801 270.837 158.701C270.174 157.601 269.842 156.353 269.842 154.957C269.842 153.56 270.174 152.312 270.837 151.212C271.501 150.113 272.417 149.257 273.587 148.647C274.774 148.018 276.109 147.704 277.593 147.704C279.076 147.704 280.403 148.018 281.573 148.647C282.742 149.257 283.658 150.113 284.322 151.212C284.985 152.312 285.317 153.56 285.317 154.957C285.317 156.353 284.985 157.601 284.322 158.701C283.658 159.801 282.742 160.665 281.573 161.293C280.403 161.904 279.076 162.209 277.593 162.209ZM277.593 158.858C278.64 158.858 279.495 158.509 280.159 157.811C280.839 157.095 281.18 156.144 281.18 154.957C281.18 153.77 280.839 152.827 280.159 152.129C279.495 151.413 278.64 151.055 277.593 151.055C276.545 151.055 275.681 151.413 275.001 152.129C274.32 152.827 273.979 153.77 273.979 154.957C273.979 156.144 274.32 157.095 275.001 157.811C275.681 158.509 276.545 158.858 277.593 158.858ZM296.085 147.704C297.831 147.704 299.236 148.228 300.301 149.275C301.383 150.322 301.924 151.876 301.924 153.936V162H297.84V154.564C297.84 153.447 297.595 152.618 297.106 152.077C296.618 151.518 295.911 151.239 294.986 151.239C293.956 151.239 293.135 151.562 292.524 152.207C291.913 152.836 291.608 153.778 291.608 155.035V162H287.523V147.913H291.425V149.563C291.966 148.969 292.638 148.516 293.441 148.201C294.244 147.87 295.125 147.704 296.085 147.704ZM309.842 162.209C308.673 162.209 307.529 162.07 306.412 161.791C305.295 161.494 304.405 161.127 303.741 160.691L305.103 157.758C305.731 158.16 306.491 158.491 307.381 158.753C308.271 158.998 309.144 159.12 309.999 159.12C311.727 159.12 312.591 158.692 312.591 157.837C312.591 157.435 312.356 157.147 311.884 156.973C311.413 156.798 310.689 156.65 309.711 156.528C308.559 156.353 307.608 156.152 306.857 155.925C306.107 155.699 305.452 155.297 304.893 154.721C304.352 154.145 304.082 153.325 304.082 152.26C304.082 151.37 304.335 150.584 304.841 149.903C305.365 149.205 306.115 148.664 307.093 148.28C308.088 147.896 309.257 147.704 310.601 147.704C311.596 147.704 312.583 147.817 313.56 148.044C314.555 148.254 315.376 148.551 316.021 148.935L314.66 151.841C313.421 151.143 312.068 150.794 310.601 150.794C309.729 150.794 309.074 150.916 308.638 151.16C308.201 151.404 307.983 151.719 307.983 152.103C307.983 152.539 308.219 152.845 308.69 153.019C309.161 153.194 309.912 153.36 310.942 153.517C312.094 153.709 313.036 153.918 313.77 154.145C314.503 154.354 315.14 154.747 315.681 155.323C316.222 155.899 316.493 156.702 316.493 157.732C316.493 158.605 316.231 159.382 315.707 160.062C315.184 160.743 314.415 161.276 313.403 161.66C312.408 162.026 311.221 162.209 309.842 162.209Z" fill="#173F5F"/>
<path d="M108.92 61L108.884 45.88L101.468 58.336H98.84L91.46 46.204V61H85.988V35.8H90.812L100.244 51.46L109.532 35.8H114.32L114.392 61H108.92ZM138.479 41.632L129.731 62.188C128.843 64.42 127.739 65.992 126.419 66.904C125.123 67.816 123.551 68.272 121.703 68.272C120.695 68.272 119.699 68.116 118.715 67.804C117.731 67.492 116.927 67.06 116.303 66.508L118.355 62.512C118.787 62.896 119.279 63.196 119.831 63.412C120.407 63.628 120.971 63.736 121.523 63.736C122.291 63.736 122.915 63.544 123.395 63.16C123.875 62.8 124.307 62.188 124.691 61.324L124.763 61.144L116.375 41.632H122.171L127.607 54.772L133.079 41.632H138.479ZM149.922 35.8H161.37C164.106 35.8 166.518 36.328 168.606 37.384C170.718 38.416 172.35 39.88 173.502 41.776C174.678 43.672 175.266 45.88 175.266 48.4C175.266 50.92 174.678 53.128 173.502 55.024C172.35 56.92 170.718 58.396 168.606 59.452C166.518 60.484 164.106 61 161.37 61H149.922V35.8ZM161.082 56.212C163.602 56.212 165.606 55.516 167.094 54.124C168.606 52.708 169.362 50.8 169.362 48.4C169.362 46 168.606 44.104 167.094 42.712C165.606 41.296 163.602 40.588 161.082 40.588H155.754V56.212H161.082ZM187.764 61.288C185.724 61.288 183.888 60.868 182.256 60.028C180.648 59.164 179.388 57.976 178.476 56.464C177.564 54.952 177.108 53.236 177.108 51.316C177.108 49.396 177.564 47.68 178.476 46.168C179.388 44.656 180.648 43.48 182.256 42.64C183.888 41.776 185.724 41.344 187.764 41.344C189.804 41.344 191.628 41.776 193.236 42.64C194.844 43.48 196.104 44.656 197.016 46.168C197.928 47.68 198.384 49.396 198.384 51.316C198.384 53.236 197.928 54.952 197.016 56.464C196.104 57.976 194.844 59.164 193.236 60.028C191.628 60.868 189.804 61.288 187.764 61.288ZM187.764 56.68C189.204 56.68 190.38 56.2 191.292 55.24C192.228 54.256 192.696 52.948 192.696 51.316C192.696 49.684 192.228 48.388 191.292 47.428C190.38 46.444 189.204 45.952 187.764 45.952C186.324 45.952 185.136 46.444 184.2 47.428C183.264 48.388 182.796 49.684 182.796 51.316C182.796 52.948 183.264 54.256 184.2 55.24C185.136 56.2 186.324 56.68 187.764 56.68ZM213.19 41.344C215.59 41.344 217.522 42.064 218.986 43.504C220.474 44.944 221.218 47.08 221.218 49.912V61H215.602V50.776C215.602 49.24 215.266 48.1 214.594 47.356C213.922 46.588 212.95 46.204 211.678 46.204C210.262 46.204 209.134 46.648 208.294 47.536C207.454 48.4 207.034 49.696 207.034 51.424V61H201.418V41.632H206.782V43.9C207.526 43.084 208.45 42.46 209.554 42.028C210.658 41.572 211.87 41.344 213.19 41.344ZM233.4 41.344C236.4 41.344 238.704 42.064 240.312 43.504C241.92 44.92 242.724 47.068 242.724 49.948V61H237.468V58.588C236.412 60.388 234.444 61.288 231.564 61.288C230.076 61.288 228.78 61.036 227.676 60.532C226.596 60.028 225.768 59.332 225.192 58.444C224.616 57.556 224.328 56.548 224.328 55.42C224.328 53.62 225 52.204 226.344 51.172C227.712 50.14 229.812 49.624 232.644 49.624H237.108C237.108 48.4 236.736 47.464 235.992 46.816C235.248 46.144 234.132 45.808 232.644 45.808C231.612 45.808 230.592 45.976 229.584 46.312C228.6 46.624 227.76 47.056 227.064 47.608L225.048 43.684C226.104 42.94 227.364 42.364 228.828 41.956C230.316 41.548 231.84 41.344 233.4 41.344ZM232.968 57.508C233.928 57.508 234.78 57.292 235.524 56.86C236.268 56.404 236.796 55.744 237.108 54.88V52.9H233.256C230.952 52.9 229.8 53.656 229.8 55.168C229.8 55.888 230.076 56.464 230.628 56.896C231.204 57.304 231.984 57.508 232.968 57.508ZM259.579 60.064C259.027 60.472 258.343 60.784 257.527 61C256.735 61.192 255.895 61.288 255.007 61.288C252.703 61.288 250.915 60.7 249.643 59.524C248.395 58.348 247.771 56.62 247.771 54.34V46.384H244.783V42.064H247.771V37.348H253.387V42.064H258.211V46.384H253.387V54.268C253.387 55.084 253.591 55.72 253.999 56.176C254.431 56.608 255.031 56.824 255.799 56.824C256.687 56.824 257.443 56.584 258.067 56.104L259.579 60.064ZM262.012 41.632H267.628V61H262.012V41.632ZM264.82 38.932C263.788 38.932 262.948 38.632 262.3 38.032C261.652 37.432 261.328 36.688 261.328 35.8C261.328 34.912 261.652 34.168 262.3 33.568C262.948 32.968 263.788 32.668 264.82 32.668C265.852 32.668 266.692 32.956 267.34 33.532C267.988 34.108 268.312 34.828 268.312 35.692C268.312 36.628 267.988 37.408 267.34 38.032C266.692 38.632 265.852 38.932 264.82 38.932ZM281.336 61.288C279.296 61.288 277.46 60.868 275.828 60.028C274.22 59.164 272.96 57.976 272.048 56.464C271.136 54.952 270.68 53.236 270.68 51.316C270.68 49.396 271.136 47.68 272.048 46.168C272.96 44.656 274.22 43.48 275.828 42.64C277.46 41.776 279.296 41.344 281.336 41.344C283.376 41.344 285.2 41.776 286.808 42.64C288.416 43.48 289.676 44.656 290.588 46.168C291.5 47.68 291.956 49.396 291.956 51.316C291.956 53.236 291.5 54.952 290.588 56.464C289.676 57.976 288.416 59.164 286.808 60.028C285.2 60.868 283.376 61.288 281.336 61.288ZM281.336 56.68C282.776 56.68 283.952 56.2 284.864 55.24C285.8 54.256 286.268 52.948 286.268 51.316C286.268 49.684 285.8 48.388 284.864 47.428C283.952 46.444 282.776 45.952 281.336 45.952C279.896 45.952 278.708 46.444 277.772 47.428C276.836 48.388 276.368 49.684 276.368 51.316C276.368 52.948 276.836 54.256 277.772 55.24C278.708 56.2 279.896 56.68 281.336 56.68ZM306.762 41.344C309.162 41.344 311.094 42.064 312.558 43.504C314.046 44.944 314.79 47.08 314.79 49.912V61H309.174V50.776C309.174 49.24 308.838 48.1 308.166 47.356C307.494 46.588 306.522 46.204 305.25 46.204C303.834 46.204 302.706 46.648 301.866 47.536C301.026 48.4 300.606 49.696 300.606 51.424V61H294.99V41.632H300.354V43.9C301.098 43.084 302.022 42.46 303.126 42.028C304.23 41.572 305.442 41.344 306.762 41.344ZM325.676 61.288C324.068 61.288 322.496 61.096 320.96 60.712C319.424 60.304 318.2 59.8 317.288 59.2L319.16 55.168C320.024 55.72 321.068 56.176 322.292 56.536C323.516 56.872 324.716 57.04 325.892 57.04C328.268 57.04 329.456 56.452 329.456 55.276C329.456 54.724 329.132 54.328 328.484 54.088C327.836 53.848 326.84 53.644 325.496 53.476C323.912 53.236 322.604 52.96 321.572 52.648C320.54 52.336 319.64 51.784 318.872 50.992C318.128 50.2 317.756 49.072 317.756 47.608C317.756 46.384 318.104 45.304 318.8 44.368C319.52 43.408 320.552 42.664 321.896 42.136C323.264 41.608 324.872 41.344 326.72 41.344C328.088 41.344 329.444 41.5 330.788 41.812C332.156 42.1 333.284 42.508 334.172 43.036L332.3 47.032C330.596 46.072 328.736 45.592 326.72 45.592C325.52 45.592 324.62 45.76 324.02 46.096C323.42 46.432 323.12 46.864 323.12 47.392C323.12 47.992 323.444 48.412 324.092 48.652C324.74 48.892 325.772 49.12 327.188 49.336C328.772 49.6 330.068 49.888 331.076 50.2C332.084 50.488 332.96 51.028 333.704 51.82C334.448 52.612 334.82 53.716 334.82 55.132C334.82 56.332 334.46 57.4 333.74 58.336C333.02 59.272 331.964 60.004 330.572 60.532C329.204 61.036 327.572 61.288 325.676 61.288Z" fill="#E5E9F2"/>
</svg>
