<svg width="108" height="42" viewBox="0 0 108 42" fill="none" xmlns="http://www.w3.org/2000/svg">
<rect width="108" height="42" rx="6" fill="#3373A7"/>
<path d="M25.8804 27.108C24.9444 27.108 24.0444 26.958 23.1804 26.658C22.3284 26.358 21.6684 25.962 21.2004 25.47L21.7224 24.444C22.1784 24.9 22.7844 25.272 23.5404 25.56C24.2964 25.836 25.0764 25.974 25.8804 25.974C27.0084 25.974 27.8544 25.77 28.4184 25.362C28.9824 24.942 29.2644 24.402 29.2644 23.742C29.2644 23.238 29.1084 22.836 28.7964 22.536C28.4964 22.236 28.1244 22.008 27.6804 21.852C27.2364 21.684 26.6184 21.504 25.8264 21.312C24.8784 21.072 24.1224 20.844 23.5584 20.628C22.9944 20.4 22.5084 20.058 22.1004 19.602C21.7044 19.146 21.5064 18.528 21.5064 17.748C21.5064 17.112 21.6744 16.536 22.0104 16.02C22.3464 15.492 22.8624 15.072 23.5584 14.76C24.2544 14.448 25.1184 14.292 26.1504 14.292C26.8704 14.292 27.5724 14.394 28.2564 14.598C28.9524 14.79 29.5524 15.06 30.0564 15.408L29.6064 16.47C29.0784 16.122 28.5144 15.864 27.9144 15.696C27.3144 15.516 26.7264 15.426 26.1504 15.426C25.0464 15.426 24.2124 15.642 23.6484 16.074C23.0964 16.494 22.8204 17.04 22.8204 17.712C22.8204 18.216 22.9704 18.624 23.2704 18.936C23.5824 19.236 23.9664 19.47 24.4224 19.638C24.8904 19.794 25.5144 19.968 26.2944 20.16C27.2184 20.388 27.9624 20.616 28.5264 20.844C29.1024 21.06 29.5884 21.396 29.9844 21.852C30.3804 22.296 30.5784 22.902 30.5784 23.67C30.5784 24.306 30.4044 24.888 30.0564 25.416C29.7204 25.932 29.1984 26.346 28.4904 26.658C27.7824 26.958 26.9124 27.108 25.8804 27.108ZM32.8506 17.532H34.1286V27H32.8506V17.532ZM33.4986 15.462C33.2346 15.462 33.0126 15.372 32.8326 15.192C32.6526 15.012 32.5626 14.796 32.5626 14.544C32.5626 14.304 32.6526 14.094 32.8326 13.914C33.0126 13.734 33.2346 13.644 33.4986 13.644C33.7626 13.644 33.9846 13.734 34.1646 13.914C34.3446 14.082 34.4346 14.286 34.4346 14.526C34.4346 14.79 34.3446 15.012 34.1646 15.192C33.9846 15.372 33.7626 15.462 33.4986 15.462ZM46.0906 17.532V25.848C46.0906 27.456 45.6946 28.644 44.9026 29.412C44.1226 30.192 42.9406 30.582 41.3566 30.582C40.4806 30.582 39.6466 30.45 38.8546 30.186C38.0746 29.934 37.4386 29.58 36.9466 29.124L37.5946 28.152C38.0506 28.56 38.6026 28.878 39.2506 29.106C39.9106 29.334 40.6006 29.448 41.3206 29.448C42.5206 29.448 43.4026 29.166 43.9666 28.602C44.5306 28.05 44.8126 27.186 44.8126 26.01V24.804C44.4166 25.404 43.8946 25.86 43.2466 26.172C42.6106 26.484 41.9026 26.64 41.1226 26.64C40.2346 26.64 39.4246 26.448 38.6926 26.064C37.9726 25.668 37.4026 25.122 36.9826 24.426C36.5746 23.718 36.3706 22.92 36.3706 22.032C36.3706 21.144 36.5746 20.352 36.9826 19.656C37.4026 18.96 37.9726 18.42 38.6926 18.036C39.4126 17.652 40.2226 17.46 41.1226 17.46C41.9266 17.46 42.6526 17.622 43.3006 17.946C43.9486 18.27 44.4706 18.738 44.8666 19.35V17.532H46.0906ZM41.2486 25.506C41.9326 25.506 42.5506 25.362 43.1026 25.074C43.6546 24.774 44.0806 24.36 44.3806 23.832C44.6926 23.304 44.8486 22.704 44.8486 22.032C44.8486 21.36 44.6926 20.766 44.3806 20.25C44.0806 19.722 43.6546 19.314 43.1026 19.026C42.5626 18.726 41.9446 18.576 41.2486 18.576C40.5646 18.576 39.9466 18.72 39.3946 19.008C38.8546 19.296 38.4286 19.704 38.1166 20.232C37.8166 20.76 37.6666 21.36 37.6666 22.032C37.6666 22.704 37.8166 23.304 38.1166 23.832C38.4286 24.36 38.8546 24.774 39.3946 25.074C39.9466 25.362 40.5646 25.506 41.2486 25.506ZM54.1285 17.46C55.3165 17.46 56.2585 17.808 56.9545 18.504C57.6625 19.188 58.0165 20.19 58.0165 21.51V27H56.7385V21.636C56.7385 20.652 56.4925 19.902 56.0005 19.386C55.5085 18.87 54.8065 18.612 53.8945 18.612C52.8745 18.612 52.0645 18.918 51.4645 19.53C50.8765 20.13 50.5825 20.964 50.5825 22.032V27H49.3045V17.532H50.5285V19.278C50.8765 18.702 51.3565 18.258 51.9685 17.946C52.5925 17.622 53.3125 17.46 54.1285 17.46ZM74.009 17.532V27H72.785V25.272C72.449 25.848 71.987 26.298 71.399 26.622C70.811 26.934 70.139 27.09 69.383 27.09C68.147 27.09 67.169 26.748 66.449 26.064C65.741 25.368 65.387 24.354 65.387 23.022V17.532H66.665V22.896C66.665 23.892 66.911 24.648 67.403 25.164C67.895 25.68 68.597 25.938 69.509 25.938C70.505 25.938 71.291 25.638 71.867 25.038C72.443 24.426 72.731 23.58 72.731 22.5V17.532H74.009ZM82.1064 17.46C82.9944 17.46 83.7984 17.664 84.5184 18.072C85.2384 18.468 85.8024 19.032 86.2104 19.764C86.6184 20.496 86.8224 21.33 86.8224 22.266C86.8224 23.214 86.6184 24.054 86.2104 24.786C85.8024 25.518 85.2384 26.088 84.5184 26.496C83.8104 26.892 83.0064 27.09 82.1064 27.09C81.3384 27.09 80.6424 26.934 80.0184 26.622C79.4064 26.298 78.9024 25.83 78.5064 25.218V30.492H77.2284V17.532H78.4524V19.404C78.8364 18.78 79.3404 18.3 79.9644 17.964C80.6004 17.628 81.3144 17.46 82.1064 17.46ZM82.0164 25.956C82.6764 25.956 83.2764 25.806 83.8164 25.506C84.3564 25.194 84.7764 24.756 85.0764 24.192C85.3884 23.628 85.5444 22.986 85.5444 22.266C85.5444 21.546 85.3884 20.91 85.0764 20.358C84.7764 19.794 84.3564 19.356 83.8164 19.044C83.2764 18.732 82.6764 18.576 82.0164 18.576C81.3444 18.576 80.7384 18.732 80.1984 19.044C79.6704 19.356 79.2504 19.794 78.9384 20.358C78.6384 20.91 78.4884 21.546 78.4884 22.266C78.4884 22.986 78.6384 23.628 78.9384 24.192C79.2504 24.756 79.6704 25.194 80.1984 25.506C80.7384 25.806 81.3444 25.956 82.0164 25.956Z" fill="white"/>
</svg>
