<svg width="401" height="98" viewBox="0 0 401 98" fill="none" xmlns="http://www.w3.org/2000/svg">
<path d="M48.1457 50.4939C48.1457 75.7407 87.5506 98 63.3346 98C39.1185 98 0 75.7407 0 50.4939C0 25.2471 23.9297 0 48.1457 0C88.8404 0 48.1457 25.2471 48.1457 50.4939Z" fill="#F8AA15"/>
<path d="M82.6732 33.5016C83.8104 34.1135 84.3789 35.0888 84.3789 36.4273C84.3789 37.2304 84.1038 38.0144 83.5536 38.7793C82.9667 39.5824 82.2147 39.984 81.2976 39.984C80.674 39.984 80.0504 39.8119 79.4268 39.4677C77.6294 38.5881 75.6852 38.1483 73.5943 38.1483C71.0265 38.1483 68.7889 38.7219 66.8814 39.8692C64.9739 40.9783 63.5066 42.5654 62.4795 44.6306C61.4524 46.6575 60.9388 48.9904 60.9388 51.6293C60.9388 56.142 62.0943 59.5649 64.4053 61.8977C66.753 64.2306 69.816 65.3971 73.5943 65.3971C75.8319 65.3971 77.7761 64.9573 79.4268 64.0776C80.0871 63.7717 80.674 63.6187 81.1876 63.6187C82.1413 63.6187 82.9483 64.0394 83.6086 64.8808C84.1589 65.6074 84.434 66.3914 84.434 67.2328C84.434 67.8447 84.2872 68.3992 83.9938 68.8964C83.7003 69.3935 83.2785 69.776 82.7282 70.0437C79.867 71.5352 76.8224 72.281 73.5943 72.281C69.9994 72.281 66.698 71.497 63.69 69.929C60.6821 68.3227 58.2794 65.9707 56.4819 62.873C54.6845 59.7752 53.7858 56.0273 53.7858 51.6293C53.7858 47.7284 54.6295 44.2291 56.3169 41.1313C58.0409 38.0335 60.407 35.6242 63.4149 33.9032C66.4229 32.144 69.816 31.2644 73.5943 31.2644C76.859 31.2644 79.8853 32.0101 82.6732 33.5016Z" fill="black"/>
<path d="M120.417 66.0854C120.894 66.3914 121.261 66.793 121.517 67.2901C121.811 67.7873 121.958 68.3036 121.958 68.839C121.958 69.5274 121.737 70.1584 121.297 70.7321C120.747 71.4205 119.903 71.7647 118.766 71.7647C117.886 71.7647 117.079 71.5543 116.345 71.1336C113.704 69.5656 112.383 66.3723 112.383 61.5535C112.383 60.1768 111.943 59.0868 111.063 58.2837C110.219 57.4806 108.99 57.079 107.376 57.079H97.0868V68.208C97.0868 69.2406 96.8117 70.0819 96.2615 70.7321C95.7479 71.3822 95.051 71.7073 94.1706 71.7073C93.1068 71.7073 92.1714 71.3822 91.3644 70.7321C90.594 70.0437 90.2089 69.2023 90.2089 68.208V35.0505C90.2089 34.0562 90.5207 33.2339 91.1443 32.5838C91.8046 31.8954 92.6116 31.5512 93.5653 31.5512H109.412C111.32 31.5512 113.117 32.0866 114.804 33.1574C116.492 34.2283 117.831 35.7007 118.821 37.5746C119.848 39.4486 120.362 41.552 120.362 43.8849C120.362 45.7971 119.867 47.671 118.876 49.5067C117.886 51.3042 116.602 52.7383 115.025 53.8092C117.336 55.4919 118.601 57.7483 118.821 60.5783C118.931 61.1902 118.986 61.783 118.986 62.3567C119.133 63.5422 119.28 64.4027 119.426 64.9381C119.573 65.4353 119.903 65.8177 120.417 66.0854ZM109.137 51.1703C109.797 51.1703 110.439 50.8452 111.063 50.1951C111.686 49.545 112.2 48.6845 112.604 47.6136C113.007 46.5046 113.209 45.319 113.209 44.057C113.209 42.9861 113.007 42.0109 112.604 41.1313C112.2 40.2134 111.686 39.4868 111.063 38.9514C110.439 38.416 109.797 38.1483 109.137 38.1483H97.0868V51.1703H109.137Z" fill="black"/>
<path d="M154.751 34.9358C154.751 35.7007 154.55 36.4082 154.146 37.0583L142.646 54.2107V68.208C142.646 69.2023 142.334 70.0437 141.711 70.7321C141.087 71.3822 140.335 71.7073 139.455 71.7073C138.538 71.7073 137.749 71.3822 137.089 70.7321C136.465 70.0437 136.153 69.2023 136.153 68.208V53.4076L124.708 37.5746C124.048 36.6568 123.718 35.758 123.718 34.8784C123.718 33.8841 124.085 33.0618 124.818 32.4117C125.589 31.7233 126.396 31.3791 127.239 31.3791C128.267 31.3791 129.165 31.9145 129.936 32.9853L139.62 46.9253L148.699 33.1001C149.469 31.9528 150.386 31.3791 151.45 31.3791C152.33 31.3791 153.101 31.7233 153.761 32.4117C154.421 33.1001 154.751 33.9414 154.751 34.9358Z" fill="black"/>
<path d="M175.589 31.5512C177.46 31.5512 179.239 32.144 180.926 33.3295C182.614 34.4769 183.971 36.0449 184.998 38.0335C186.025 39.984 186.539 42.1256 186.539 44.4585C186.539 46.7532 186.025 48.8948 184.998 50.8835C183.971 52.8722 182.614 54.4593 180.926 55.6449C179.239 56.7922 177.46 57.3658 175.589 57.3658H166.015V68.208C166.015 69.2406 165.721 70.0819 165.134 70.7321C164.547 71.3822 163.777 71.7073 162.823 71.7073C161.906 71.7073 161.154 71.3822 160.567 70.7321C159.981 70.0437 159.687 69.2023 159.687 68.208V35.0505C159.687 34.0562 159.999 33.2339 160.622 32.5838C161.283 31.8954 162.09 31.5512 163.043 31.5512H175.589ZM175.589 50.8261C176.286 50.8261 176.964 50.5202 177.625 49.9083C178.322 49.2964 178.872 48.5124 179.275 47.5563C179.716 46.5619 179.936 45.5293 179.936 44.4585C179.936 43.3877 179.716 42.3742 179.275 41.4181C178.872 40.4238 178.322 39.6398 177.625 39.0661C176.964 38.4542 176.286 38.1483 175.589 38.1483H166.015V50.8261H175.589Z" fill="black"/>
<path d="M218.152 31.5512C219.142 31.5512 219.949 31.8571 220.573 32.4691C221.197 33.081 221.508 33.8841 221.508 34.8784C221.508 35.8728 221.197 36.6759 220.573 37.2878C219.949 37.8614 219.142 38.1483 218.152 38.1483H209.513V68.208C209.513 69.2023 209.165 70.0437 208.468 70.7321C207.771 71.3822 206.909 71.7073 205.882 71.7073C204.854 71.7073 204.011 71.3822 203.351 70.7321C202.69 70.0437 202.36 69.2023 202.36 68.208V38.1483H193.721C192.731 38.1483 191.924 37.8423 191.3 37.2304C190.677 36.6185 190.365 35.8154 190.365 34.8211C190.365 33.865 190.677 33.081 191.3 32.4691C191.961 31.8571 192.768 31.5512 193.721 31.5512H218.152Z" fill="black"/>
<path d="M261.645 51.6293C261.645 55.4154 260.838 58.8956 259.224 62.0698C257.61 65.2058 255.372 67.6917 252.511 69.5274C249.687 71.3631 246.495 72.281 242.937 72.281C239.379 72.281 236.169 71.3631 233.308 69.5274C230.483 67.6917 228.264 65.2058 226.65 62.0698C225.073 58.8956 224.284 55.4154 224.284 51.6293C224.284 47.8431 225.073 44.382 226.65 41.246C228.264 38.0718 230.483 35.5668 233.308 33.7311C236.169 31.8954 239.379 30.9775 242.937 30.9775C246.495 30.9775 249.687 31.8954 252.511 33.7311C255.372 35.5668 257.61 38.0718 259.224 41.246C260.838 44.382 261.645 47.8431 261.645 51.6293ZM254.492 51.6293C254.492 49.0669 253.997 46.7532 253.006 44.688C252.016 42.5846 250.64 40.921 248.88 39.6972C247.119 38.4733 245.138 37.8614 242.937 37.8614C240.699 37.8614 238.7 38.4733 236.939 39.6972C235.215 40.8827 233.858 42.5272 232.868 44.6306C231.914 46.734 231.437 49.0669 231.437 51.6293C231.437 54.1916 231.914 56.5245 232.868 58.6279C233.858 60.7313 235.215 62.3949 236.939 63.6187C238.7 64.8043 240.699 65.3971 242.937 65.3971C245.138 65.3971 247.119 64.7852 248.88 63.5614C250.64 62.3375 252.016 60.6931 253.006 58.6279C253.997 56.5245 254.492 54.1916 254.492 51.6293Z" fill="black"/>
<path d="M297.179 31.5512C298.059 31.5512 298.775 31.8571 299.325 32.4691C299.875 33.081 300.15 33.8458 300.15 34.7637V68.208C300.15 69.2023 299.82 70.0437 299.16 70.7321C298.536 71.3822 297.747 71.7073 296.794 71.7073C296.28 71.7073 295.767 71.6308 295.253 71.4778C294.776 71.2866 294.428 71.038 294.208 70.7321L274.014 43.9996V68.4948C274.014 69.4127 273.72 70.1775 273.133 70.7894C272.583 71.4014 271.85 71.7073 270.933 71.7073C270.052 71.7073 269.337 71.4014 268.787 70.7894C268.236 70.1775 267.961 69.4127 267.961 68.4948V35.0505C267.961 34.0562 268.273 33.2339 268.897 32.5838C269.557 31.8954 270.364 31.5512 271.318 31.5512C271.868 31.5512 272.4 31.6659 272.913 31.8954C273.464 32.1249 273.867 32.4308 274.124 32.8132L294.153 59.431V34.7637C294.153 33.8458 294.428 33.081 294.978 32.4691C295.565 31.8571 296.298 31.5512 297.179 31.5512Z" fill="black"/>
<path d="M338.631 67.2328C338.814 67.7299 338.906 68.1889 338.906 68.6095C338.906 69.6039 338.594 70.4261 337.971 71.0763C337.347 71.6882 336.632 71.9941 335.825 71.9941C335.165 71.9941 334.559 71.7838 334.009 71.3631C333.495 70.9424 333.092 70.3688 332.798 69.6421L329.937 62.7009H313.54L310.679 69.6995C310.422 70.4261 310.019 70.9998 309.468 71.4205C308.955 71.8029 308.386 71.9941 307.763 71.9941C306.809 71.9941 306.075 71.7264 305.562 71.191C305.085 70.6556 304.846 69.929 304.846 69.0111C304.846 68.6669 304.901 68.3036 305.012 67.9212L318.712 33.6164C319.006 32.8515 319.446 32.2587 320.033 31.838C320.62 31.4173 321.28 31.2452 322.014 31.3217C322.674 31.3217 323.279 31.5321 323.83 31.9528C324.417 32.3352 324.838 32.8897 325.095 33.6164L338.631 67.2328ZM327.241 56.1038L321.684 42.6802L316.236 56.1038H327.241Z" fill="black"/>
<path d="M366.136 31.5512C367.126 31.5512 367.933 31.8571 368.557 32.4691C369.18 33.081 369.492 33.8841 369.492 34.8784C369.492 35.8728 369.18 36.6759 368.557 37.2878C367.933 37.8614 367.126 38.1483 366.136 38.1483H357.497V68.208C357.497 69.2023 357.148 70.0437 356.451 70.7321C355.754 71.3822 354.892 71.7073 353.865 71.7073C352.838 71.7073 351.994 71.3822 351.334 70.7321C350.674 70.0437 350.344 69.2023 350.344 68.208V38.1483H341.705C340.715 38.1483 339.908 37.8423 339.284 37.2304C338.66 36.6185 338.349 35.8154 338.349 34.8211C338.349 33.865 338.66 33.081 339.284 32.4691C339.944 31.8571 340.751 31.5512 341.705 31.5512H366.136Z" fill="black"/>
<path d="M397.058 65.1102C398.011 65.1102 398.8 65.4544 399.424 66.1428C400.084 66.793 400.414 67.5578 400.414 68.4374C400.414 69.3935 400.084 70.1775 399.424 70.7894C398.8 71.4014 398.011 71.7073 397.058 71.7073H378.625C377.671 71.7073 376.864 71.3822 376.204 70.7321C375.58 70.0437 375.268 69.2023 375.268 68.208V35.0505C375.268 34.0562 375.58 33.2339 376.204 32.5838C376.864 31.8954 377.671 31.5512 378.625 31.5512H397.058C398.011 31.5512 398.8 31.8763 399.424 32.5264C400.084 33.1383 400.414 33.9414 400.414 34.9358C400.414 35.8919 400.102 36.6759 399.479 37.2878C398.855 37.8614 398.048 38.1483 397.058 38.1483H382.146V47.9005H394.582C395.535 47.9005 396.324 48.2255 396.948 48.8757C397.608 49.4876 397.938 50.2907 397.938 51.2851C397.938 52.2412 397.626 53.0252 397.003 53.6371C396.379 54.2107 395.572 54.4975 394.582 54.4975H382.146V65.1102H397.058Z" fill="black"/>
</svg>
