<svg width="395" height="50" viewBox="0 0 395 50" fill="none" xmlns="http://www.w3.org/2000/svg">
<rect x="0.519737" y="0.572349" width="393.961" height="48.8553" rx="5.71711" fill="#124874" fill-opacity="0.8"/>
<path d="M156.542 34.7412C155.187 34.7412 153.873 34.5616 152.6 34.2026C151.343 33.8271 150.331 33.3456 149.564 32.758L150.911 29.7711C151.645 30.3097 152.518 30.7422 153.53 31.0687C154.542 31.3951 155.554 31.5584 156.566 31.5584C157.693 31.5584 158.525 31.3951 159.064 31.0687C159.602 30.7259 159.872 30.2771 159.872 29.7221C159.872 29.314 159.708 28.9794 159.382 28.7183C159.072 28.4408 158.664 28.2205 158.158 28.0572C157.668 27.894 156.999 27.7145 156.15 27.5186C154.844 27.2085 153.775 26.8984 152.943 26.5882C152.11 26.2781 151.392 25.7803 150.788 25.0947C150.201 24.4092 149.907 23.4952 149.907 22.3526C149.907 21.357 150.176 20.4592 150.715 19.6594C151.253 18.8433 152.061 18.1986 153.139 17.7253C154.232 17.2519 155.563 17.0152 157.129 17.0152C158.223 17.0152 159.292 17.1458 160.337 17.407C161.381 17.6681 162.295 18.0435 163.079 18.5332L161.855 21.5447C160.272 20.6469 158.688 20.1981 157.105 20.1981C155.995 20.1981 155.171 20.3776 154.632 20.7367C154.11 21.0958 153.849 21.5691 153.849 22.1567C153.849 22.7443 154.151 23.185 154.755 23.4788C155.375 23.7563 156.313 24.0338 157.57 24.3113C158.876 24.6214 159.945 24.9315 160.777 25.2416C161.61 25.5518 162.32 26.0414 162.908 26.7106C163.511 27.3799 163.813 28.2857 163.813 29.4283C163.813 30.4076 163.536 31.3054 162.981 32.1215C162.442 32.9213 161.626 33.5578 160.533 34.0312C159.439 34.5045 158.109 34.7412 156.542 34.7412ZM165.765 21.2753H169.584V34.4474H165.765V21.2753ZM167.674 19.4391C166.972 19.4391 166.401 19.2351 165.961 18.827C165.52 18.4189 165.299 17.913 165.299 17.309C165.299 16.7051 165.52 16.1991 165.961 15.7911C166.401 15.383 166.972 15.179 167.674 15.179C168.376 15.179 168.947 15.3749 169.388 15.7666C169.829 16.1583 170.049 16.648 170.049 17.2356C170.049 17.8722 169.829 18.4026 169.388 18.827C168.947 19.2351 168.376 19.4391 167.674 19.4391ZM186.227 21.2753V32.2439C186.227 34.6596 185.599 36.455 184.342 37.6302C183.085 38.8054 181.249 39.393 178.833 39.393C177.56 39.393 176.352 39.238 175.21 38.9278C174.067 38.6177 173.121 38.1689 172.37 37.5813L173.888 34.8391C174.443 35.2961 175.145 35.6552 175.993 35.9164C176.842 36.1939 177.691 36.3326 178.54 36.3326C179.862 36.3326 180.833 36.0306 181.453 35.4267C182.09 34.8391 182.408 33.9414 182.408 32.7336V32.1704C181.412 33.264 180.025 33.8108 178.246 33.8108C177.038 33.8108 175.928 33.5497 174.916 33.0274C173.92 32.4887 173.129 31.7379 172.541 30.7749C171.954 29.8119 171.66 28.702 171.66 27.4451C171.66 26.1883 171.954 25.0784 172.541 24.1154C173.129 23.1524 173.92 22.4097 174.916 21.8874C175.928 21.3488 177.038 21.0795 178.246 21.0795C180.155 21.0795 181.608 21.7079 182.604 22.9647V21.2753H186.227ZM179.005 30.677C180.017 30.677 180.841 30.3832 181.478 29.7955C182.13 29.1916 182.457 28.4082 182.457 27.4451C182.457 26.4821 182.13 25.7068 181.478 25.1192C180.841 24.5153 180.017 24.2133 179.005 24.2133C177.993 24.2133 177.16 24.5153 176.507 25.1192C175.855 25.7068 175.528 26.4821 175.528 27.4451C175.528 28.4082 175.855 29.1916 176.507 29.7955C177.16 30.3832 177.993 30.677 179.005 30.677ZM197.299 21.0795C198.931 21.0795 200.245 21.5691 201.24 22.5485C202.252 23.5278 202.758 24.9805 202.758 26.9065V34.4474H198.939V27.4941C198.939 26.4495 198.71 25.6742 198.253 25.1682C197.796 24.6459 197.135 24.3847 196.27 24.3847C195.307 24.3847 194.54 24.6867 193.969 25.2906C193.398 25.8782 193.112 26.7596 193.112 27.9348V34.4474H189.293V21.2753H192.941V22.8178C193.447 22.2628 194.075 21.8385 194.826 21.5447C195.577 21.2345 196.401 21.0795 197.299 21.0795ZM220.059 34.7412C217.61 34.7412 215.701 34.0638 214.329 32.7091C212.975 31.3543 212.297 29.4201 212.297 26.9065V17.309H216.264V26.7596C216.264 29.8282 217.537 31.3625 220.083 31.3625C221.324 31.3625 222.27 30.9952 222.923 30.2607C223.576 29.5099 223.902 28.3429 223.902 26.7596V17.309H227.82V26.9065C227.82 29.4201 227.134 31.3543 225.763 32.7091C224.408 34.0638 222.507 34.7412 220.059 34.7412ZM238.766 21.0795C239.99 21.0795 241.1 21.3651 242.096 21.9364C243.108 22.4913 243.899 23.283 244.471 24.3113C245.042 25.3233 245.328 26.5066 245.328 27.8614C245.328 29.2161 245.042 30.4076 244.471 31.4359C243.899 32.4479 243.108 33.2395 242.096 33.8108C241.1 34.3658 239.99 34.6433 238.766 34.6433C237.085 34.6433 235.763 34.1128 234.8 33.0518V39.1972H230.98V21.2753H234.628V22.7933C235.575 21.6508 236.954 21.0795 238.766 21.0795ZM238.105 31.5094C239.084 31.5094 239.884 31.1829 240.504 30.5301C241.141 29.8608 241.459 28.9713 241.459 27.8614C241.459 26.7515 241.141 25.8701 240.504 25.2172C239.884 24.548 239.084 24.2133 238.105 24.2133C237.126 24.2133 236.318 24.548 235.681 25.2172C235.061 25.8701 234.751 26.7515 234.751 27.8614C234.751 28.9713 235.061 29.8608 235.681 30.5301C236.318 31.1829 237.126 31.5094 238.105 31.5094Z" fill="white"/>
<rect x="0.519737" y="0.572349" width="393.961" height="48.8553" rx="5.71711" stroke="#3373A7" stroke-width="1.03947"/>
</svg>
